<?xml version="1.0" standalone="no"?>
<!DOCTYPE svg PUBLIC "-//W3C//DTD SVG 1.1//EN" "http://www.w3.org/Graphics/SVG/1.1/DTD/svg11.dtd" >
<svg xmlns="http://www.w3.org/2000/svg" xmlns:xlink="http://www.w3.org/1999/xlink" version="1.1">
<metadata>
Created by FontForge 20201107 at Wed Feb  5 19:40:36 2025
 By 
Copyright (c) 2018-2019 by TypeType. Designers Ivan Gladkikh, Pavel Emelyanov. Technical designers Marina Khodak, Vika Usmanova, Nadyr Rakhimov, Antonina Zhulkova. All rights reserved. |DCNT
</metadata>
<defs>
<font id="TTCommons-Bold" horiz-adv-x="1095" >
  <font-face 
    font-family="TT Commons"
    font-weight="700"
    font-stretch="normal"
    units-per-em="2048"
    panose-1="2 0 8 6 3 0 0 2 0 4"
    ascent="1616"
    descent="-432"
    x-height="942"
    cap-height="1290"
    bbox="-870 -594 2945 1987"
    underline-thickness="102"
    underline-position="-204"
    unicode-range="U+000D-FB06"
  />
<missing-glyph horiz-adv-x="0" 
 />
    <glyph glyph-name="ff" unicode="ff" horiz-adv-x="1249" 
d="M164 0v645h-123v256h123q0 177 87.5 268t250.5 91q50 0 96 -11l37 -10v-246l-21 4q-49 7 -51 7q-63 0 -100 -52q-17 -24 -23 -51h287v51q0 169 88 258.5t250 89.5q54 0 96 -10l37 -10v-246l-20 4q-42 6 -52 6q-55 0 -88.5 -36t-33.5 -97v-10h194v-256h-194v-645h-277v645
h-287v-645h-276z" />
    <glyph glyph-name="uniFB01" unicode="fi" horiz-adv-x="1126" 
d="M164 0v645h-123v256h123v51q0 169 88 258.5t250 89.5q54 0 96 -10l37 -10v-246l-21 4q-42 6 -51 6q-55 0 -89 -36t-34 -97v-10h564v-901h-277v645h-287v-645h-276zM717 1147q0 61 45.5 107t107.5 46t108 -46t46 -107t-46 -107.5t-108 -46.5q-61 0 -107 46t-46 108z" />
    <glyph glyph-name="uniFB02" unicode="fl" horiz-adv-x="1105" 
d="M164 0v645h-123v256h133q0 195 102.5 307.5t266.5 112.5q69 0 135 -16l49 -15h277v-1290h-277v1044l-31 11q-38 10 -92 10q-69 0 -116.5 -47.5t-47.5 -116.5h195v-256h-195v-645h-276z" />
    <glyph glyph-name="ffi" unicode="ffi" horiz-adv-x="1689" 
d="M164 0v645h-123v256h123q0 177 87.5 268t250.5 91q50 0 96 -11l37 -10v-246l-21 4q-49 7 -51 7q-63 0 -100 -52q-17 -24 -23 -51h287v51q0 169 88 258.5t250 89.5q54 0 96 -10l37 -10v-246l-20 4q-42 6 -52 6q-55 0 -88.5 -36t-33.5 -97v-10h563v-901h-277v645h-286v-645
h-277v645h-287v-645h-276zM1280 1147q0 61 46 107t108 46t107.5 -46t45.5 -107q0 -62 -46 -108t-107 -46q-62 0 -108 46.5t-46 107.5z" />
    <glyph glyph-name="ffl" unicode="ffl" horiz-adv-x="1669" 
d="M164 0v645h-123v256h123q0 177 87.5 268t250.5 91q50 0 96 -11l37 -10v-246l-21 4q-49 7 -51 7q-63 0 -100 -52q-17 -24 -23 -51h297q0 195 102.5 307.5t266.5 112.5q69 0 135 -16l49 -15h277v-1290h-277v1044l-30 11q-38 10 -93 10q-69 0 -116 -47.5t-47 -116.5h194
v-256h-194v-645h-277v645h-287v-645h-276z" />
    <glyph glyph-name="f_f_j" unicode="ffj" horiz-adv-x="1689" 
d="M164 0v645h-123v256h123q0 177 87.5 268t250.5 91q50 0 96 -11l37 -10v-246l-21 4q-49 7 -51 7q-63 0 -100 -52q-17 -24 -23 -51h287v51q0 169 88 258.5t250 89.5q54 0 96 -10l37 -10v-246l-20 4q-42 6 -52 6q-55 0 -88.5 -36t-33.5 -97v-10h563v-891q0 -169 -88 -258.5
t-250 -89.5q-49 0 -94 10q-18 3 -39 11v245l20 -6q28 -4 51 -4q55 0 89 36t34 97v594h-286v-645h-277v645h-287v-645h-276zM1280 1147q0 61 46 107t108 46t107.5 -46t45.5 -107q0 -62 -46 -108t-107 -46q-62 0 -108 46.5t-46 107.5z" />
    <glyph glyph-name="f_j" unicode="fj" horiz-adv-x="1126" 
d="M164 0v645h-123v256h123v51q0 169 88 258.5t250 89.5q54 0 96 -10l37 -10v-246l-21 4q-42 6 -51 6q-55 0 -89 -36t-34 -97v-10h564v-891q0 -169 -88 -258.5t-250 -89.5q-50 0 -95 10q-18 3 -39 11v245l21 -6q28 -4 51 -4q55 0 89 36t34 97v594h-287v-645h-276zM717 1147
q0 61 45.5 107t107.5 46t108 -46t46 -107t-46 -107.5t-108 -46.5q-61 0 -107 46t-46 108z" />
    <glyph glyph-name=".notdef" horiz-adv-x="0" 
 />
    <glyph glyph-name=".null" horiz-adv-x="0" 
 />
    <glyph glyph-name="nonmarkingreturn" horiz-adv-x="682" 
 />
    <glyph glyph-name="NULL" horiz-adv-x="0" 
 />
    <glyph glyph-name="NULL" horiz-adv-x="0" 
 />
    <glyph glyph-name="CR" unicode="&#xd;" horiz-adv-x="0" 
 />
    <glyph glyph-name="space" unicode=" " horiz-adv-x="471" 
 />
    <glyph glyph-name="exclam" unicode="!" horiz-adv-x="573" 
d="M154 389l-31 901h328l-31 -901h-266zM440 143q0 -61 -46 -107t-107 -46q-62 0 -108 46t-46 107t46.5 107.5t107.5 46.5t107 -46t46 -108z" />
    <glyph glyph-name="quotedbl" unicode="&#x22;" horiz-adv-x="829" 
d="M102 870v420h256v-420h-256zM471 870v420h256v-420h-256z" />
    <glyph glyph-name="numbersign" unicode="#" horiz-adv-x="1331" 
d="M205 0l61 307h-246l52 225h235l41 226h-235l51 225h225l62 307h225l-62 -307h226l61 307h225l-61 -307h246l-51 -225h-236l-41 -226h236l-52 -225h-225l-61 -307h-226l62 307h-225l-62 -307h-225zM532 532h226l41 226h-226z" />
    <glyph glyph-name="dollar" unicode="$" horiz-adv-x="1075" 
d="M410 -174v174q-167 30 -258 141t-91 269l287 20q0 -174 184 -174q83 0 129 38t46 95q0 39 -35 66.5t-91 46t-123.5 37.5t-135.5 48t-124 69.5t-91 111t-35 164.5q0 132 92 229t246 129v174h266v-184q138 -32 222.5 -139t84.5 -250l-287 -21q0 78 -43 121t-121 43
q-67 0 -110 -37t-43 -86q0 -37 35 -63t91 -43t123.5 -35.5t135.5 -48t124 -71t91 -113.5t35 -168q0 -131 -93.5 -235.5t-244.5 -133.5v-174h-266z" />
    <glyph glyph-name="percent" unicode="%" horiz-adv-x="1351" 
d="M891 276q0 -47 33 -79.5t80 -32.5t79.5 32.5t32.5 79.5t-32.5 80t-79.5 33t-80 -33t-33 -80zM717 276q0 123 82 205t205 82t204.5 -82t81.5 -205t-81.5 -204.5t-204.5 -81.5t-205 81.5t-82 204.5zM461 1014q0 47 -33 79.5t-80 32.5t-79.5 -32.5t-32.5 -79.5t32.5 -80
t79.5 -33t80 33t33 80zM61 1014q0 123 82 204.5t205 81.5t205 -81.5t82 -204.5t-82 -205t-205 -82t-205 82t-82 205zM164 0l788 1290h236l-789 -1290h-235z" />
    <glyph glyph-name="ampersand" unicode="&#x26;" horiz-adv-x="1198" 
d="M297 666l-61 71q-22 26 -32.5 39.5t-31 47.5t-30 73.5t-9.5 85.5q0 126 104 221.5t255 95.5q150 0 254 -95.5t104 -221.5q0 -139 -113 -235l-102 -82l164 -164l92 133h317l-225 -318l317 -317h-337l-134 133q-45 -45 -98 -78q-121 -75 -280 -75q-180 0 -285 92.5
t-105 234.5q0 151 117 268q52 52 119 91zM635 328l-184 184q-22 -18 -48 -43q-45 -53 -45 -111q0 -48 34.5 -80t88.5 -32q63 0 111 41zM481 809q59 42 86 76t27 78q0 53 -27 82.5t-75 29.5t-75.5 -29.5t-27.5 -82.5q0 -30 14.5 -58.5t29 -45t48.5 -50.5z" />
    <glyph glyph-name="quotesingle" unicode="'" horiz-adv-x="460" 
d="M102 870v420h256v-420h-256z" />
    <glyph glyph-name="parenleft" unicode="(" horiz-adv-x="645" 
d="M604 -287l-215 -143q-84 109 -153 250q-154 304 -154 641t154 641q69 141 153 250l215 -144q-73 -112 -119 -217q-116 -269 -116 -530q0 -272 116 -533q50 -113 119 -215z" />
    <glyph glyph-name="parenright" unicode=")" horiz-adv-x="645" 
d="M256 -430l-215 143q64 94 117 215q118 266 118 533q0 256 -118 530q-50 114 -117 217l215 144q87 -113 154 -250q153 -318 153 -641t-153 -641q-67 -137 -154 -250z" />
    <glyph glyph-name="asterisk" unicode="*" horiz-adv-x="737" 
d="M113 788l133 164l-195 52l51 163l185 -71l-11 204h185l-10 -204l184 71l51 -163l-194 -52l133 -164l-144 -102l-112 174l-113 -174z" />
    <glyph glyph-name="plus" unicode="+" horiz-adv-x="952" 
d="M348 102v297h-287v246h287v297h256v-297h287v-246h-287v-297h-256z" />
    <glyph glyph-name="comma" unicode="," horiz-adv-x="430" 
d="M164 -225l-51 71q21 15 43 37q47 51 59 107q-62 0 -108 46t-46 107t46.5 107.5t107.5 46.5q62 0 108 -48t46 -116q0 -159 -103 -274q-44 -50 -102 -84z" />
    <glyph glyph-name="hyphen" unicode="-" horiz-adv-x="768" 
d="M72 399v246h624v-246h-624z" />
    <glyph glyph-name="period" unicode="." horiz-adv-x="430" 
d="M61 143q0 61 46.5 107.5t107.5 46.5t107.5 -46.5t46.5 -107.5t-46 -107t-108 -46t-108 46t-46 107z" />
    <glyph glyph-name="slash" unicode="/" horiz-adv-x="798" 
d="M0 -369l532 1659h267l-533 -1659h-266z" />
    <glyph glyph-name="zero" unicode="0" horiz-adv-x="1249" 
d="M881 645q0 174 -74.5 271.5t-181.5 97.5t-181.5 -97.5t-74.5 -271.5q0 -176 74.5 -272.5t181.5 -96.5t181.5 96.5t74.5 272.5zM72 645q0 150 43 274.5t118 207t176 128t216 45.5t216 -45.5t176 -128t118 -207t43 -274.5t-43 -274.5t-118 -207t-176 -128t-216 -45.5
t-216 45.5t-176 128t-118 207t-43 274.5z" />
    <glyph glyph-name="one" unicode="1" horiz-adv-x="706" 
d="M287 0v922l-133 -93l-144 226l338 235h236v-1290h-297z" />
    <glyph glyph-name="two" unicode="2" horiz-adv-x="1044" 
d="M72 0v205l471 491q38 44 55 68q57 72 57 137q0 62 -37.5 97.5t-105.5 35.5q-78 0 -121 -43t-43 -121l-287 21q0 180 123.5 294.5t327.5 114.5q211 0 331 -108t120 -281q0 -121 -103 -258q-51 -64 -102 -110l-246 -256h451v-287h-891z" />
    <glyph glyph-name="three" unicode="3" horiz-adv-x="1054" 
d="M41 369l297 20q8 -57 53.5 -95t120.5 -38q84 0 129 39.5t45 103.5q0 57 -48 95t-136 38h-123v246h123q83 0 123.5 33t40.5 90q0 56 -44.5 94.5t-119.5 38.5q-67 0 -106.5 -33.5t-47.5 -89.5l-297 21q8 153 134.5 260.5t326.5 107.5t325.5 -106.5t125.5 -251.5
q0 -114 -89 -203q-35 -35 -86 -63q56 -26 103 -70q102 -98 102 -248q0 -153 -128 -260.5t-343 -107.5t-344 109t-137 270z" />
    <glyph glyph-name="four" unicode="4" horiz-adv-x="1075" 
d="M41 225v267l508 798h352v-778h133v-287h-133v-225h-297v225h-563zM348 512h256v410z" />
    <glyph glyph-name="five" unicode="5" horiz-adv-x="1085" 
d="M72 358l297 21q8 -31 32 -62q49 -61 142 -61q78 0 131 53t53 131t-53 131.5t-131 53.5q-81 0 -137 -52q-19 -19 -37 -51h-267l82 768h748v-286h-500l-22 -175q23 16 49 25q60 27 125 27q184 0 312 -128t128 -313q0 -193 -134 -321.5t-347 -128.5q-192 0 -318.5 106.5
t-152.5 261.5z" />
    <glyph glyph-name="six" unicode="6" horiz-adv-x="1085" 
d="M184 788l338 502h307l-276 -409q91 8 177 -22.5t151 -89.5t104 -145.5t39 -183.5q0 -193 -134 -321.5t-347 -128.5t-347.5 128.5t-134.5 321.5q0 118 62 244q27 55 61 104zM543 246q79 0 131.5 54.5t52.5 139.5t-52.5 140t-131.5 55t-132 -55t-53 -140t53 -139.5
t132 -54.5z" />
    <glyph glyph-name="seven" unicode="7" horiz-adv-x="983" 
d="M121 0l473 1004h-522v286h860v-235l-492 -1055h-319z" />
    <glyph glyph-name="eight" unicode="8" horiz-adv-x="1085" 
d="M358 399q0 -71 50.5 -117t134.5 -46t134 46t50 117t-50 117.5t-134 46.5t-134.5 -46.5t-50.5 -117.5zM399 932q0 -54 41 -88.5t103 -34.5t102.5 34.5t40.5 88.5t-40.5 88.5t-102.5 34.5q-66 0 -105 -36.5t-39 -86.5zM61 379q0 141 103 244q48 48 102 73q-45 28 -78 64
q-75 83 -75 192q0 144 118 246t312 102t312 -102t118 -246q0 -106 -78 -192q-32 -34 -76 -64q56 -26 103 -73q102 -102 102 -244q0 -160 -133.5 -274.5t-347.5 -114.5t-348 114.5t-134 274.5z" />
    <glyph glyph-name="nine" unicode="9" horiz-adv-x="1085" 
d="M256 0l276 410q-122 -11 -230.5 43.5t-174.5 160.5t-66 236q0 193 134.5 321.5t347.5 128.5t347 -128.5t134 -321.5q0 -120 -61 -244q-24 -50 -62 -104l-338 -502h-307zM543 655q79 0 131.5 55t52.5 140t-52.5 139.5t-131.5 54.5t-132 -54.5t-53 -139.5t53 -140t132 -55z
" />
    <glyph glyph-name="colon" unicode=":" horiz-adv-x="430" 
d="M61 799q0 61 46 107t108 46t108 -46t46 -107t-46.5 -107.5t-107.5 -46.5t-107.5 46.5t-46.5 107.5zM61 143q0 61 46.5 107.5t107.5 46.5t107.5 -46.5t46.5 -107.5t-46 -107t-108 -46t-108 46t-46 107z" />
    <glyph glyph-name="semicolon" unicode=";" horiz-adv-x="430" 
d="M61 799q0 61 46 107t108 46t108 -46t46 -107t-46.5 -107.5t-107.5 -46.5t-107.5 46.5t-46.5 107.5zM164 -225l-51 71q21 15 43 37q47 51 59 107q-62 0 -108 46t-46 107t46.5 107.5t107.5 46.5q62 0 108 -48t46 -116q0 -159 -103 -274q-44 -50 -102 -84z" />
    <glyph glyph-name="less" unicode="&#x3c;" horiz-adv-x="942" 
d="M82 348v225l778 349v-256l-471 -205l471 -205v-256z" />
    <glyph glyph-name="equal" unicode="=" horiz-adv-x="942" 
d="M72 604v256h798v-256h-798zM72 184v256h798v-256h-798z" />
    <glyph glyph-name="greater" unicode="&#x3e;" horiz-adv-x="942" 
d="M82 0v256l471 205l-471 205v256l778 -349v-225z" />
    <glyph glyph-name="question" unicode="?" horiz-adv-x="952" 
d="M604 389h-287q0 96 28.5 171t69.5 119.5t81.5 80.5t69 73t28.5 78q0 55 -36 89t-97 34q-57 0 -95 -45.5t-38 -128.5l-297 21q17 194 131 306.5t299 112.5q201 0 320.5 -103t119.5 -255q0 -56 -16 -102.5t-41.5 -80t-56.5 -63.5t-62.5 -60.5t-58 -64t-43.5 -80t-19 -102.5
zM317 143q0 61 46.5 107.5t107.5 46.5t107.5 -46.5t46.5 -107.5t-46 -107t-108 -46t-108 46t-46 107z" />
    <glyph glyph-name="at" unicode="@" horiz-adv-x="1556" 
d="M901 727l31 72h164v-359q0 -153 92 -153q112 0 112 194q0 134 -68 246.5t-188 179t-266 66.5q-107 0 -202 -40t-163 -108t-107.5 -163t-39.5 -201q0 -142 67.5 -259.5t185 -185t259.5 -67.5q115 0 211 47q45 20 82 47q17 -21 34.5 -45.5t38 -55t32.5 -46.5
q-47 -35 -109 -62q-137 -59 -289 -59q-147 0 -278 53.5t-225 145t-148.5 218.5t-54.5 269q0 141 54.5 268t148.5 219t225 145.5t278 53.5q151 0 284.5 -53t228 -142.5t149.5 -212t55 -258.5q0 -172 -89.5 -275.5t-217.5 -103.5q-92 0 -170 62q-34 27 -55 61q-25 -32 -62 -61
q-82 -62 -174 -62q-132 0 -224.5 100.5t-92.5 258.5t92.5 258t224.5 100q62 0 125 -47q30 -23 49 -45zM911 461q0 76 -45 125t-108 49t-108.5 -49t-45.5 -125t45.5 -125t108.5 -49t108 49t45 125z" />
    <glyph glyph-name="A" unicode="A" horiz-adv-x="1208" 
d="M461 502h287l-144 430zM-10 0l461 1290h307l461 -1290h-308l-82 246h-450l-82 -246h-307z" />
    <glyph glyph-name="B" unicode="B" horiz-adv-x="1187" 
d="M123 0v1290h553q174 0 286.5 -104.5t112.5 -253.5q0 -111 -78 -189q-38 -38 -75 -57q54 -25 102 -70q102 -98 102 -237q0 -157 -119 -268t-300 -111h-584zM420 778h225q61 0 102 39t41 94t-41 94t-102 39h-225v-266zM420 246h256q68 0 116 45.5t48 107.5t-48 108t-116 46
h-256v-307z" />
    <glyph glyph-name="C" unicode="C" horiz-adv-x="1331" 
d="M983 471l307 -20q-22 -93 -73.5 -176t-126 -146.5t-177 -101t-217.5 -37.5q-173 0 -318.5 86t-231 237t-85.5 332t85.5 332t231 237t318.5 86q147 0 272 -64.5t203.5 -167.5t108.5 -228l-307 -21q-27 84 -98 139.5t-179 55.5q-141 0 -239.5 -105.5t-98.5 -263.5
t98.5 -263.5t239.5 -105.5q116 0 189 55t98 140z" />
    <glyph glyph-name="D" unicode="D" horiz-adv-x="1269" 
d="M420 287h143q148 0 248 102.5t100 255.5t-100 256t-248 103h-143v-717zM123 0v1290h440q176 0 324.5 -86t234.5 -234.5t86 -324.5t-86 -324.5t-234.5 -234.5t-324.5 -86h-440z" />
    <glyph glyph-name="E" unicode="E" horiz-adv-x="1146" 
d="M123 0v1290h921v-286h-624v-205h573v-287h-573v-225h645v-287h-942z" />
    <glyph glyph-name="F" unicode="F" horiz-adv-x="1064" 
d="M123 0v1290h891v-286h-594v-267h481v-286h-481v-451h-297z" />
    <glyph glyph-name="G" unicode="G" horiz-adv-x="1423" 
d="M1116 0l-51 123q-50 -44 -100 -68q-124 -65 -269 -65q-173 0 -318.5 86t-231 237t-85.5 332t85.5 332t231 237t318.5 86q112 0 211.5 -36.5t173 -99.5t125 -143.5t74.5 -170.5l-307 -21q-28 78 -99 131.5t-178 53.5q-141 0 -239.5 -105.5t-98.5 -263.5t98.5 -263.5
t239.5 -105.5q114 0 186 51.5t101 123.5h-287v245h625v-696h-205z" />
    <glyph glyph-name="H" unicode="H" horiz-adv-x="1331" 
d="M123 0v1290h297v-491h491v491h297v-1290h-297v512h-491v-512h-297z" />
    <glyph glyph-name="I" unicode="I" horiz-adv-x="542" 
d="M123 0v1290h297v-1290h-297z" />
    <glyph glyph-name="J" unicode="J" horiz-adv-x="993" 
d="M594 430v860h297v-860q0 -200 -120.5 -320t-319.5 -120q-198 0 -319.5 117t-121.5 303q103 4 185 12l112 8q0 -68 41 -111t103 -43t102.5 43t40.5 111z" />
    <glyph glyph-name="K" unicode="K" horiz-adv-x="1157" 
d="M123 0v1290h297v-553l389 553h338l-455 -635l486 -655h-338l-420 573v-573h-297z" />
    <glyph glyph-name="L" unicode="L" horiz-adv-x="1024" 
d="M123 0v1290h297v-1003h584v-287h-881z" />
    <glyph glyph-name="M" unicode="M" horiz-adv-x="1617" 
d="M123 0v1290h266l420 -911l420 911h266v-1290h-297v645l-297 -645h-184l-297 645v-645h-297z" />
    <glyph glyph-name="N" unicode="N" horiz-adv-x="1331" 
d="M123 0v1290h266l522 -758v758h297v-1290h-266l-522 758v-758h-297z" />
    <glyph glyph-name="O" unicode="O" horiz-adv-x="1392" 
d="M696 276q141 0 239.5 105.5t98.5 263.5t-98.5 263.5t-239.5 105.5t-239.5 -105.5t-98.5 -263.5t98.5 -263.5t239.5 -105.5zM696 -10q-173 0 -318.5 86t-231 237t-85.5 332t85.5 332t231 237t318.5 86t318.5 -86t231 -237t85.5 -332t-85.5 -332t-231 -237t-318.5 -86z" />
    <glyph glyph-name="P" unicode="P" horiz-adv-x="1146" 
d="M123 0v1290h502q198 0 329 -127t131 -313t-131 -313t-329 -127h-205v-410h-297zM420 696h205q68 0 115.5 46t47.5 108t-47.5 108t-115.5 46h-205v-308z" />
    <glyph glyph-name="Q" unicode="Q" horiz-adv-x="1392" 
d="M1167 -41l-133 133q-53 -36 -92 -51q-111 -51 -246 -51q-173 0 -318.5 86t-231 237t-85.5 332t85.5 332t231 237t318.5 86t318.5 -86t231 -237t85.5 -332q0 -149 -61 -283q-27 -59 -62 -106l123 -123zM686 430l164 174l143 -143q12 27 21 57q20 70 20 127
q0 158 -98.5 263.5t-239.5 105.5t-239.5 -105.5t-98.5 -263.5t98.5 -263.5t239.5 -105.5q42 0 88 11q16 2 35 10z" />
    <glyph glyph-name="R" unicode="R" horiz-adv-x="1167" 
d="M123 0v1290h522q197 0 324 -119t127 -290q1 -81 -24.5 -151t-60.5 -111.5t-73 -72t-61.5 -42.5t-26.5 -12l287 -492h-328l-236 430h-153v-430h-297zM420 717h225q76 0 120 40t44 103t-44 103.5t-120 40.5h-225v-287z" />
    <glyph glyph-name="S" unicode="S" horiz-adv-x="1075" 
d="M61 410l287 20q0 -174 184 -174q83 0 129 38t46 95q0 39 -35 66.5t-91 46t-123.5 37.5t-135.5 48t-124 69.5t-91 111t-35 164.5q0 73 32 139.5t90 117.5t145.5 81t192.5 30q204 0 327.5 -114.5t123.5 -294.5l-287 -21q0 78 -43 121t-121 43q-67 0 -110 -37t-43 -86
q0 -37 35 -63t91 -43t123.5 -35.5t135.5 -48t124 -71t91 -113.5t35 -168q0 -160 -130 -269.5t-352 -109.5q-219 0 -345 116t-126 304z" />
    <glyph glyph-name="T" unicode="T" horiz-adv-x="1075" 
d="M389 0v1004h-369v286h1035v-286h-369v-1004h-297z" />
    <glyph glyph-name="U" unicode="U" horiz-adv-x="1269" 
d="M102 522v768h297v-768q0 -116 63 -181t173 -65q109 0 172 65t63 181v768h297v-768q0 -238 -147 -385t-385 -147t-385.5 147t-147.5 385z" />
    <glyph glyph-name="V" unicode="V" horiz-adv-x="1208" 
d="M451 0l-441 1290h307l287 -891l287 891h307l-440 -1290h-307z" />
    <glyph glyph-name="W" unicode="W" horiz-adv-x="1761" 
d="M420 0l-410 1290h287l246 -798l245 798h185l246 -798l245 798h287l-410 -1290h-225l-235 758l-236 -758h-225z" />
    <glyph glyph-name="X" unicode="X" horiz-adv-x="1187" 
d="M0 0l410 655l-390 635h328l246 -420l246 420h327l-389 -635l410 -655h-328l-266 440l-266 -440h-328z" />
    <glyph glyph-name="Y" unicode="Y" horiz-adv-x="1157" 
d="M430 0v481l-430 809h317l263 -512l260 512h317l-430 -809v-481h-297z" />
    <glyph glyph-name="Z" unicode="Z" horiz-adv-x="1085" 
d="M61 0v246l553 758h-532v286h911v-246l-553 -757h584v-287h-963z" />
    <glyph glyph-name="bracketleft" unicode="[" horiz-adv-x="665" 
d="M123 -369v1659h491v-286h-204v-1086h204v-287h-491z" />
    <glyph glyph-name="backslash" unicode="\" horiz-adv-x="798" 
d="M532 -369l-532 1659h266l533 -1659h-267z" />
    <glyph glyph-name="bracketright" unicode="]" horiz-adv-x="665" 
d="M51 -369v287h205v1086h-205v286h492v-1659h-492z" />
    <glyph glyph-name="asciicircum" unicode="^" horiz-adv-x="860" 
d="M51 686l297 604h164l297 -604h-236l-143 297l-143 -297h-236z" />
    <glyph glyph-name="underscore" unicode="_" horiz-adv-x="593" 
d="M-41 -399v245h676v-245h-676z" />
    <glyph glyph-name="grave" unicode="`" horiz-adv-x="532" 
d="M256 1034l-195 266h277l133 -266h-215z" />
    <glyph glyph-name="a" unicode="a" horiz-adv-x="993" 
d="M696 0l-41 92q-46 -36 -77 -51q-93 -51 -199 -51q-150 0 -234 73t-84 193q0 58 17 104.5t58 87t104.5 67.5t161 42.5t223.5 15.5q0 68 -34 106t-89 38q-64 0 -101 -47q-17 -23 -22 -45l-277 20q26 147 128.5 232.5t281.5 85.5q169 0 279 -110.5t110 -279.5v-573h-205z
M625 369v41q-114 0 -179.5 -16.5t-86.5 -42t-21 -64.5q0 -40 30.5 -66t82.5 -26q78 0 126 48t48 126z" />
    <glyph glyph-name="b" unicode="b" horiz-adv-x="1116" 
d="M102 0v1290h277v-420q36 28 63 41q73 41 172 41q88 0 168.5 -36.5t140.5 -99t96 -153t36 -192.5t-36 -192.5t-96 -153t-140.5 -99t-168.5 -36.5q-105 0 -194 51q-36 19 -72 51l-41 -92h-205zM573 246q87 0 146 63t59 162t-59 162t-146 63t-145.5 -63t-58.5 -162
t58.5 -162t145.5 -63z" />
    <glyph glyph-name="c" unicode="c" horiz-adv-x="1044" 
d="M717 369l276 -21q-28 -105 -84 -184q-132 -184 -366 -184q-200 0 -341 142.5t-141 348.5t141 349t341 143q233 0 366 -185q56 -79 84 -184l-276 -21q-15 38 -37 66q-56 68 -137 68q-88 0 -146.5 -64.5t-58.5 -171.5q0 -106 58.5 -170.5t146.5 -64.5q84 0 137 65
q23 29 37 68z" />
    <glyph glyph-name="d" unicode="d" horiz-adv-x="1116" 
d="M809 0l-41 92q-52 -40 -72 -51q-89 -51 -194 -51q-88 0 -168.5 36.5t-140.5 99t-96 153t-36 192.5t36 192.5t96 153t140.5 99t168.5 36.5q99 0 172 -41q27 -13 63 -41v420h277v-1290h-205zM543 246q87 0 146 63t59 162t-59 162t-146 63t-146 -63t-59 -162t59 -162
t146 -63z" />
    <glyph glyph-name="e" unicode="e" horiz-adv-x="1054" 
d="M686 297l287 -21q-40 -126 -154.5 -211t-286.5 -85q-126 0 -234 64.5t-172.5 178t-64.5 248.5q0 206 141 349t341 143q128 0 232.5 -60.5t166.5 -173.5t62 -258q0 -10 -1 -21t-3 -22.5t-3 -17.5l-4 -31h-645q19 -59 70.5 -101t124.5 -42q67 0 110 30q20 11 33 31z
M348 553h389q-19 66 -69.5 110t-124.5 44t-125 -44t-70 -110z" />
    <glyph glyph-name="f" unicode="f" horiz-adv-x="686" 
d="M164 0v645h-123v256h123v51q0 169 88 258.5t250 89.5q54 0 96 -10l37 -10v-246l-21 4q-42 6 -51 6q-55 0 -89 -36t-34 -97v-10h195v-256h-195v-645h-276z" />
    <glyph glyph-name="g" unicode="g" horiz-adv-x="1105" 
d="M92 -31l277 21q10 -23 34 -47q49 -45 129 -45q85 0 140 52.5t55 131.5v51q-24 -24 -57 -41q-70 -41 -178 -41q-179 0 -305 130.5t-126 320.5t126 320t305 130q98 0 194 -51q20 -11 72 -51l41 92h205v-860q0 -187 -130.5 -308.5t-341.5 -121.5q-220 0 -350 158
q-61 74 -90 159zM338 502q0 -86 54 -140.5t140 -54.5t140.5 54.5t54.5 140.5t-54.5 140t-140.5 54t-140 -54t-54 -140z" />
    <glyph glyph-name="h" unicode="h" 
d="M102 0v1290h277v-440q36 36 63 51q88 51 203 51q157 0 258 -109t101 -290v-553h-277v502q0 91 -47.5 142.5t-126.5 51.5t-126.5 -51.5t-47.5 -142.5v-502h-277z" />
    <glyph glyph-name="i" unicode="i" horiz-adv-x="481" 
d="M102 0v942h277v-942h-277zM92 1198q0 62 46 108t108 46q61 0 107 -46t46 -108t-46 -108t-107 -46q-62 0 -108 46t-46 108z" />
    <glyph glyph-name="j" unicode="j" horiz-adv-x="481" 
d="M-92 -317v245l20 -6q28 -4 52 -4q55 0 88.5 36t33.5 97v891h277v-932q0 -169 -88 -258.5t-250 -89.5q-49 0 -94 10q-18 3 -39 11zM92 1198q0 62 46 108t108 46q61 0 107 -46t46 -108t-46 -108t-107 -46q-62 0 -108 46t-46 108z" />
    <glyph glyph-name="k" unicode="k" horiz-adv-x="962" 
d="M102 0v1290h277v-727l256 379h317l-317 -450l348 -492h-317l-287 420v-420h-277z" />
    <glyph glyph-name="l" unicode="l" horiz-adv-x="481" 
d="M102 0v1290h277v-1290h-277z" />
    <glyph glyph-name="m" unicode="m" horiz-adv-x="1556" 
d="M102 0v942h205l41 -92q34 34 64 51q84 51 172 51q122 0 207 -61q38 -27 59 -62q39 39 76 62q96 61 200 61q157 0 247.5 -100.5t90.5 -288.5v-563h-276v532q0 75 -38.5 119.5t-94.5 44.5t-94.5 -44.5t-38.5 -119.5v-532h-277v532q0 75 -38.5 119.5t-94.5 44.5t-94.5 -44.5
t-38.5 -119.5v-532h-277z" />
    <glyph glyph-name="n" unicode="n" 
d="M102 0v942h205l41 -92q48 37 76 51q100 51 201 51q169 0 274 -108t105 -291v-553h-277v502q0 91 -47.5 142.5t-126.5 51.5t-126.5 -51.5t-47.5 -142.5v-502h-277z" />
    <glyph glyph-name="o" unicode="o" horiz-adv-x="1085" 
d="M61 471q0 206 141 349t341 143t340.5 -143t140.5 -349t-140.5 -348.5t-340.5 -142.5t-341 142.5t-141 348.5zM748 471q0 107 -58.5 171.5t-146.5 64.5t-146.5 -64.5t-58.5 -171.5q0 -106 58.5 -170.5t146.5 -64.5t146.5 64.5t58.5 170.5z" />
    <glyph glyph-name="p" unicode="p" horiz-adv-x="1116" 
d="M102 -328v1270h205l41 -92q36 32 72 51q96 51 194 51q88 0 168.5 -36.5t140.5 -99t96 -153t36 -192.5t-36 -192.5t-96 -153t-140.5 -99t-168.5 -36.5q-99 0 -172 41q-27 13 -63 41v-400h-277zM573 246q87 0 146 63t59 162t-59 162t-146 63t-145.5 -63t-58.5 -162
t58.5 -162t145.5 -63z" />
    <glyph glyph-name="q" unicode="q" horiz-adv-x="1116" 
d="M737 -328v400q-36 -28 -63 -41q-73 -41 -172 -41q-88 0 -168.5 36.5t-140.5 99t-96 153t-36 192.5t36 192.5t96 153t140.5 99t168.5 36.5q98 0 194 -51q20 -11 72 -51l41 92h205v-1270h-277zM543 246q87 0 146 63t59 162t-59 162t-146 63t-146 -63t-59 -162t59 -162
t146 -63z" />
    <glyph glyph-name="r" unicode="r" horiz-adv-x="696" 
d="M102 0v942h205l41 -102q24 30 60 55q72 57 165 57q18 0 60 -6l22 -4v-287l-28 11q-30 10 -74 10q-79 0 -126.5 -52t-47.5 -143v-481h-277z" />
    <glyph glyph-name="s" unicode="s" horiz-adv-x="911" 
d="M61 287l267 20q8 -48 39 -75t84 -27q51 0 81.5 24.5t30.5 57.5q0 20 -26.5 35t-69 27t-93.5 26t-102.5 37.5t-94 55.5t-69 85.5t-26.5 122.5q0 120 98 203.5t260 83.5q176 0 275.5 -78t124.5 -209l-267 -21q-8 34 -38 58t-74 24q-46 0 -69 -19.5t-23 -51.5
q0 -20 26.5 -35.5t69 -27.5t94 -26.5t102.5 -37.5t93.5 -55t69 -85.5t26.5 -122.5q0 -121 -103.5 -208.5t-275.5 -87.5q-359 0 -410 307z" />
    <glyph glyph-name="t" unicode="t" horiz-adv-x="747" 
d="M184 338v348h-143v236h72q112 0 112 112v133h236v-225h194v-256h-194v-307q0 -61 34 -97t89 -36q23 0 51 4l20 6v-246q-18 -7 -37 -10q-45 -10 -96 -10q-162 0 -250 89.5t-88 258.5z" />
    <glyph glyph-name="u" unicode="u" 
d="M92 389v553h277v-502q0 -91 47.5 -142.5t126.5 -51.5t126.5 51.5t47.5 142.5v502h276v-942h-205l-40 92q-45 -35 -78 -51q-93 -51 -199 -51q-169 0 -274 108t-105 291z" />
    <glyph glyph-name="v" unicode="v" horiz-adv-x="1003" 
d="M358 0l-358 942h297l205 -614l205 614h297l-359 -942h-287z" />
    <glyph glyph-name="w" unicode="w" horiz-adv-x="1433" 
d="M317 0l-317 942h287l164 -553l174 553h184l174 -553l164 553h287l-318 -942h-235l-164 522l-164 -522h-236z" />
    <glyph glyph-name="x" unicode="x" horiz-adv-x="942" 
d="M-10 0l307 481l-287 461h307l154 -266l154 266h307l-287 -461l307 -481h-307l-174 287l-174 -287h-307z" />
    <glyph glyph-name="y" unicode="y" horiz-adv-x="1003" 
d="M164 -328v236q81 0 125 33t69 100l-358 901h297l205 -584l205 584h297l-379 -942q-73 -181 -157 -259.5t-212 -78.5q-25 0 -61 4z" />
    <glyph glyph-name="z" unicode="z" horiz-adv-x="890" 
d="M61 0v225l390 451h-390v266h748v-225l-389 -451h409v-266h-768z" />
    <glyph glyph-name="braceleft" unicode="{" horiz-adv-x="706" 
d="M184 -41v277q0 112 -112 112v225q112 0 112 113v277q0 170 79 248.5t249 78.5h143v-266h-82q-112 0 -112 -113v-256q0 -97 -62 -159q-30 -27 -61 -35q32 -11 61 -37q62 -62 62 -158v-256q0 -112 112 -112h82v-267h-143q-170 0 -249 79t-79 249z" />
    <glyph glyph-name="bar" unicode="|" horiz-adv-x="778" 
d="M246 -328v1618h286v-1618h-286z" />
    <glyph glyph-name="braceright" unicode="}" horiz-adv-x="706" 
d="M51 -369v267h82q113 0 113 112v256q0 97 61 158q29 25 62 37q-32 8 -62 35q-61 61 -61 159v256q0 113 -113 113h-82v266h144q170 0 248.5 -78.5t78.5 -248.5v-277q0 -113 113 -113v-225q-113 0 -113 -112v-277q0 -170 -78.5 -249t-248.5 -79h-144z" />
    <glyph glyph-name="asciitilde" unicode="~" horiz-adv-x="952" 
d="M236 369l-226 20q0 165 72.5 251.5t193.5 86.5q61 0 131 -25.5t128 -51t90 -25.5q39 0 65.5 28t26.5 74l225 -20q0 -165 -72.5 -251.5t-193.5 -86.5q-61 0 -130.5 25.5t-127.5 51t-90 25.5q-39 0 -65.5 -28t-26.5 -74z" />
    <glyph glyph-name="nbspace" unicode="&#xa0;" horiz-adv-x="471" 
 />
    <glyph glyph-name="exclamdown" unicode="&#xa1;" horiz-adv-x="573" 
d="M123 -328l31 881h266l31 -881h-328zM440 799q0 -62 -46 -108t-107 -46t-107.5 46.5t-46.5 107.5t46 107t108 46q61 0 107 -46t46 -107z" />
    <glyph glyph-name="cent" unicode="&#xa2;" horiz-adv-x="1044" 
d="M410 -174v174q-155 46 -252 169.5t-97 301.5q0 182 103.5 309t245.5 162v154h276v-154q160 -48 250 -201q38 -63 57 -147l-276 -21q-15 38 -37 66q-56 68 -137 68q-88 0 -146.5 -64.5t-58.5 -171.5q0 -106 58.5 -170.5t146.5 -64.5q84 0 137 65q23 29 37 68l276 -21
q-19 -79 -57 -143q-91 -154 -250 -205v-174h-276z" />
    <glyph glyph-name="sterling" unicode="&#xa3;" horiz-adv-x="1105" 
d="M61 0v287q54 0 88.5 34.5t34.5 88.5v82h-102v245h102v154q0 186 118 297.5t323 111.5q182 0 300.5 -112.5t118.5 -276.5l-296 -20q0 67 -39 110t-95 43q-55 0 -94 -43t-39 -110v-154h287v-245h-287v-82q0 -44 -30 -93q-13 -16 -31 -30h606v-287h-965z" />
    <glyph glyph-name="currency" unicode="&#xa4;" horiz-adv-x="1187" 
d="M195 0v174h-144v236h144v92h-144v235h144v553h471q210 0 335 -113.5t125 -285.5q0 -166 -125 -277.5t-335 -111.5h-174v-92h348v-236h-348v-174h-297zM492 737h163q76 0 125 45.5t49 108.5t-49 108t-125 45h-163v-307z" />
    <glyph glyph-name="yen" unicode="&#xa5;" horiz-adv-x="1157" 
d="M174 174v215h256v82h-256v215h154l-328 604h317l263 -512l260 512h317l-328 -604h154v-215h-256v-82h256v-215h-256v-174h-297v174h-256z" />
    <glyph glyph-name="brokenbar" unicode="&#xa6;" horiz-adv-x="778" 
d="M246 655v635h286v-635h-286zM246 -328v635h286v-635h-286z" />
    <glyph glyph-name="section" unicode="&#xa7;" horiz-adv-x="1003" 
d="M113 61l245 21q3 -33 19 -62q31 -61 104 -61q52 0 82.5 26t30.5 66q0 32 -28 58.5t-73.5 46.5t-100 41t-109 50t-100 66t-73.5 96t-28 134q0 121 86 207q40 40 88 59q-34 23 -57 57q-56 70 -56 158q0 110 95 193t243 83q169 0 270 -83t119 -213l-245 -21q-6 28 -19 55
q-30 58 -94 58q-46 0 -74 -26.5t-28 -65.5q0 -32 28 -58.5t73.5 -46.5t100 -41t109 -50t100 -66t73.5 -96t28 -134q0 -119 -88 -207q-39 -39 -86 -59q33 -26 55 -58q57 -72 57 -157q0 -112 -97 -194.5t-251 -82.5q-178 0 -276.5 80.5t-122.5 226.5zM451 686q-34 -19 -52 -37
q-51 -43 -51 -96q0 -112 205 -184q38 21 51 34q51 47 51 99q0 112 -204 184z" />
    <glyph glyph-name="dieresis" unicode="&#xa8;" horiz-adv-x="788" 
d="M61 1167q0 61 41.5 102.5t102.5 41.5t102 -41t41 -103q0 -61 -41 -102t-102 -41q-62 0 -103 41t-41 102zM440 1167q0 61 41 102.5t103 41.5q61 0 102 -41t41 -103q0 -61 -40.5 -102t-102.5 -41t-103 41t-41 102z" />
    <glyph glyph-name="copyright" unicode="&#xa9;" horiz-adv-x="1474" 
d="M737 154q200 0 341 142.5t141 348.5t-141 349t-341 143t-340.5 -143t-140.5 -349t140.5 -348.5t340.5 -142.5zM82 645q0 136 51 257.5t138 208.5t208.5 138t257.5 51t257.5 -51t209 -138t138.5 -208.5t51 -257.5t-51 -257.5t-138.5 -208.5t-209 -138t-257.5 -51
t-257.5 51t-208.5 138t-138 208.5t-51 257.5zM881 563l184 -10q-21 -75 -64 -129q-99 -127 -264 -127q-140 0 -239 100.5t-99 247.5t99 247.5t239 100.5q164 0 264 -129q42 -54 64 -127l-184 -10q-9 28 -29 51q-47 51 -104 51q-71 0 -117.5 -50t-46.5 -134t46.5 -134
t117.5 -50q61 0 104 51q20 23 29 51z" />
    <glyph glyph-name="ordfeminine" unicode="&#xaa;" horiz-adv-x="655" 
d="M440 737l-30 62q-24 -24 -45 -37q-60 -35 -129 -35q-83 0 -134 45t-51 109q0 92 80 143t268 51q-4 25 -10 35q-21 37 -72 37q-32 0 -49 -21q-9 -9 -12 -20h-164q0 89 61 141.5t175 52.5q115 0 180 -61.5t65 -163.5v-338h-133zM399 952v31q-90 0 -132 -22t-42 -50
q0 -51 72 -51q46 0 74 26.5t28 65.5z" />
    <glyph glyph-name="guillemotleft" unicode="&#xab;" horiz-adv-x="1044" 
d="M287 133l-226 328l226 327h276l-225 -327l225 -328h-276zM707 133l-226 328l226 327h276l-225 -327l225 -328h-276z" />
    <glyph glyph-name="logicalnot" unicode="&#xac;" horiz-adv-x="1024" 
d="M72 573v246h870v-481h-266v235h-604z" />
    <glyph glyph-name="uni00AD" unicode="&#xad;" horiz-adv-x="768" 
d="M72 399v246h624v-246h-624z" />
    <glyph glyph-name="registered" unicode="&#xae;" horiz-adv-x="1474" 
d="M737 154q200 0 341 142.5t141 348.5t-141 349t-341 143t-340.5 -143t-140.5 -349t140.5 -348.5t340.5 -142.5zM82 645q0 136 51 257.5t138 208.5t208.5 138t257.5 51t257.5 -51t209 -138t138.5 -208.5t51 -257.5t-51 -257.5t-138.5 -208.5t-209 -138t-257.5 -51
t-257.5 51t-208.5 138t-138 208.5t-51 257.5zM492 307v676h276q104 0 175 -66.5t71 -158.5q0 -82 -72 -146q-38 -26 -72 -39l195 -266h-195l-153 225h-51v-225h-174zM666 686h92q45 0 68.5 20t23.5 52t-23 51.5t-69 19.5h-92v-143z" />
    <glyph glyph-name="overscore" unicode="&#xaf;" horiz-adv-x="665" 
d="M61 1055v215h543v-215h-543z" />
    <glyph glyph-name="degree" unicode="&#xb0;" horiz-adv-x="655" 
d="M430 1034q0 47 -27.5 75t-74.5 28t-75 -28t-28 -75t28 -74.5t75 -27.5t74.5 27.5t27.5 74.5zM61 1034q0 117 75 191.5t192 74.5t191.5 -74.5t74.5 -191.5t-74.5 -191.5t-191.5 -74.5t-192 74.5t-75 191.5z" />
    <glyph glyph-name="plusminus" unicode="&#xb1;" horiz-adv-x="952" 
d="M61 10v246h287v236h-287v245h287v297h256v-297h287v-245h-287v-236h287v-246h-830z" />
    <glyph glyph-name="twosuperior" unicode="&#xb2;" horiz-adv-x="573" 
d="M51 860v123l185 164l51 47q51 55 51 86q0 51 -62 51q-31 0 -51 -20t-20 -51l-164 10q18 103 79 159t167 56q120 0 182.5 -55t62.5 -150q0 -49 -30 -98q-10 -14 -31 -35l-154 -133h205v-154h-471z" />
    <glyph glyph-name="threesuperior" unicode="&#xb3;" horiz-adv-x="583" 
d="M215 1106v133h61q24 0 43 12t19 29q0 51 -62 51q-71 0 -71 -51l-164 10q8 90 70.5 142.5t175.5 52.5t174 -51.5t61 -133.5q0 -45 -37 -92q-14 -16 -34 -30q24 -12 45 -33q47 -47 47 -101q0 -81 -71 -137.5t-185 -56.5q-113 0 -180.5 57.5t-75.5 147.5q1 1 87 5t87 5
q0 -24 22 -42.5t52 -18.5q40 0 59.5 15.5t19.5 35.5q0 51 -79 51h-64z" />
    <glyph glyph-name="acute" unicode="&#xb4;" horiz-adv-x="532" 
d="M61 1034l134 266h276l-195 -266h-215z" />
    <glyph glyph-name="mu" unicode="&#xb5;" horiz-adv-x="1105" 
d="M102 -328v1270h277v-502q0 -91 47.5 -142.5t126.5 -51.5t126.5 51.5t47.5 142.5v502h277v-942h-205l-41 92q-24 -31 -53 -51q-74 -51 -162 -51q-64 0 -117 24q-19 7 -47 27v-369h-277z" />
    <glyph glyph-name="paragraph" unicode="&#xb6;" horiz-adv-x="1105" 
d="M389 -184v798q-147 0 -247.5 99t-100.5 239t100.5 239t247.5 99h594v-1474h-225v1228h-144v-1228h-225z" />
    <glyph glyph-name="middot" unicode="&#xb7;" horiz-adv-x="471" 
d="M82 645q0 61 46 107.5t108 46.5q61 0 107 -46t46 -108q0 -61 -45.5 -107t-107.5 -46t-108 46t-46 107z" />
    <glyph glyph-name="cedilla" unicode="&#xb8;" horiz-adv-x="491" 
d="M61 -389v102l25 -6q28 -4 57 -4q52 0 77.5 19.5t25.5 52.5q0 25 -23.5 43t-68.5 18q-10 0 -22.5 -2.5t-21.5 -5.5l-8 -2l72 174h123l-41 -82q51 -9 86 -29q88 -47 88 -135q0 -74 -61 -119t-185 -45q-42 0 -88 11q-16 2 -35 10z" />
    <glyph glyph-name="onesuperior" unicode="&#xb9;" horiz-adv-x="512" 
d="M184 860v389l-71 -41l-82 133l215 134h123v-615h-185z" />
    <glyph glyph-name="ordmasculine" unicode="&#xba;" horiz-adv-x="675" 
d="M338 901q40 0 66 30.5t26 82.5t-26 82t-66 30t-66 -30t-26 -82t26 -82.5t66 -30.5zM51 1014q0 115 85.5 200.5t201.5 85.5t201.5 -85.5t85.5 -200.5q0 -116 -85.5 -201.5t-201.5 -85.5t-201.5 85.5t-85.5 201.5z" />
    <glyph glyph-name="guillemotright" unicode="&#xbb;" horiz-adv-x="1044" 
d="M481 133l226 328l-226 327h277l225 -327l-225 -328h-277zM61 133l226 328l-226 327h277l225 -327l-225 -328h-277z" />
    <glyph glyph-name="onequarter" unicode="&#xbc;" horiz-adv-x="1269" 
d="M123 0l788 1290h236l-789 -1290h-235zM184 676v389l-71 -41l-82 133l215 133h123v-614h-185zM696 113v112l246 389h215v-348h72v-153h-72v-113h-184v113h-277zM881 266h102v164z" />
    <glyph glyph-name="onehalf" unicode="&#xbd;" horiz-adv-x="1310" 
d="M123 0l788 1290h236l-789 -1290h-235zM184 676v389l-71 -41l-82 133l215 133h123v-614h-185zM788 0v123l185 164l51 47q51 55 51 86q0 51 -61 51q-31 0 -51.5 -20.5t-20.5 -51.5l-164 11q18 103 79 159t167 56q120 0 183 -55t63 -150q0 -47 -31 -98q-10 -14 -31 -35
l-153 -133h205v-154h-472z" />
    <glyph glyph-name="threequarters" unicode="&#xbe;" horiz-adv-x="1361" 
d="M195 0l788 1290h236l-789 -1290h-235zM215 922v133h61q24 0 43 12t19 29q0 51 -62 51q-71 0 -71 -51l-164 10q8 89 70.5 141.5t175.5 52.5t174 -51.5t61 -132.5q0 -45 -37 -92q-16 -19 -34 -31q26 -13 45 -32q47 -47 47 -101q0 -81 -71 -137.5t-185 -56.5
q-113 0 -180.5 57t-75.5 147q1 1 87 5.5t87 5.5q0 -24 22 -43t52 -19q40 0 59.5 15.5t19.5 35.5q0 52 -79 52h-64zM788 113v112l246 389h215v-348h72v-153h-72v-113h-184v113h-277zM973 266h102v164z" />
    <glyph glyph-name="questiondown" unicode="&#xbf;" horiz-adv-x="921" 
d="M604 102l297 -20q-17 -194 -131.5 -307t-298.5 -113q-201 0 -320.5 103t-119.5 255q0 56 16 102.5t41.5 79.5t56.5 62.5t62.5 58.5t58 60t43.5 74.5t19 95.5h286q0 -67 -15 -123t-39.5 -94t-54 -70t-59 -57.5t-54 -48.5t-39.5 -51t-15 -58q0 -55 36 -89t97 -34
q57 0 95 45.5t38 128.5zM307 799q0 61 46 107t108 46q61 0 107 -46t46 -107q0 -62 -46 -108t-107 -46t-107.5 46.5t-46.5 107.5z" />
    <glyph glyph-name="Agrave" unicode="&#xc0;" horiz-adv-x="1208" 
d="M461 502h287l-144 430zM-10 0l461 1290h307l461 -1290h-308l-82 246h-450l-82 -246h-307zM492 1423l-195 267h276l134 -267h-215z" />
    <glyph glyph-name="Aacute" unicode="&#xc1;" horiz-adv-x="1208" 
d="M461 502h287l-144 430zM-10 0l461 1290h307l461 -1290h-308l-82 246h-450l-82 -246h-307zM502 1423l133 267h276l-194 -267h-215z" />
    <glyph glyph-name="Acircumflex" unicode="&#xc2;" horiz-adv-x="1208" 
d="M461 502h287l-144 430zM-10 0l461 1290h307l461 -1290h-308l-82 246h-450l-82 -246h-307zM276 1423l205 267h246l205 -267h-236l-92 123l-92 -123h-236z" />
    <glyph glyph-name="Atilde" unicode="&#xc3;" horiz-adv-x="1208" 
d="M461 502h287l-144 430zM-10 0l461 1290h307l461 -1290h-308l-82 246h-450l-82 -246h-307zM451 1403l-154 20q0 125 51 190.5t133 65.5q41 0 77.5 -14.5t58 -31.5t46 -31.5t44.5 -14.5q32 0 51.5 23t19.5 69l154 -20q0 -125 -51 -190.5t-133 -65.5q-42 0 -78.5 14.5
t-57.5 31.5t-45.5 31.5t-44.5 14.5q-31 0 -51 -23.5t-20 -68.5z" />
    <glyph glyph-name="Adieresis" unicode="&#xc4;" horiz-adv-x="1208" 
d="M461 502h287l-144 430zM-10 0l461 1290h307l461 -1290h-308l-82 246h-450l-82 -246h-307zM272 1556q0 62 41 103t103 41q61 0 102 -41t41 -103t-40.5 -102.5t-102.5 -40.5t-103 41t-41 102zM651 1556q0 62 41.5 103t102.5 41t102 -41t41 -103t-41 -102.5t-102 -40.5
q-62 0 -103 41t-41 102z" />
    <glyph glyph-name="Aring" unicode="&#xc5;" horiz-adv-x="1208" 
d="M461 502h287l-144 430zM-10 0l461 1290h307l461 -1290h-308l-82 246h-450l-82 -246h-307zM676 1577q0 31 -20.5 51.5t-51.5 20.5t-51.5 -20.5t-20.5 -51.5t20.5 -51.5t51.5 -20.5t51.5 20.5t20.5 51.5zM399 1577q0 87 56.5 141t148.5 54t148.5 -54t56.5 -141t-56.5 -141
t-148.5 -54t-148.5 54t-56.5 141z" />
    <glyph glyph-name="AE" unicode="&#xc6;" horiz-adv-x="1751" 
d="M-51 0l665 1290h1035v-286h-564v-205h512v-287h-512v-225h584v-287h-881v246h-378l-123 -246h-338zM553 532h235v472z" />
    <glyph glyph-name="Ccedilla" unicode="&#xc7;" horiz-adv-x="1331" 
d="M512 -389v102l25 -6q28 -4 57 -4q52 0 77 19.5t25 52.5q0 25 -23.5 43t-68.5 18q-10 0 -22.5 -2.5t-20.5 -5.5l-8 -2l70 170q-117 12 -221 67.5t-179 141t-118.5 200t-43.5 240.5q0 181 85.5 332t231 237t318.5 86q147 0 272 -64.5t203.5 -167.5t108.5 -228l-307 -21
q-27 84 -98 139.5t-179 55.5q-141 0 -239.5 -105.5t-98.5 -263.5t98.5 -263.5t239.5 -105.5q116 0 189 55t98 140l307 -20q-46 -185 -191.5 -313.5t-355.5 -145.5l-36 -74q51 -9 86 -29q88 -47 88 -135q0 -74 -61 -119t-185 -45q-42 0 -88 11q-16 2 -35 10z" />
    <glyph glyph-name="Egrave" unicode="&#xc8;" horiz-adv-x="1146" 
d="M123 0v1290h921v-286h-624v-205h573v-287h-573v-225h645v-287h-942zM512 1423l-195 267h277l133 -267h-215z" />
    <glyph glyph-name="Eacute" unicode="&#xc9;" horiz-adv-x="1146" 
d="M123 0v1290h921v-286h-624v-205h573v-287h-573v-225h645v-287h-942zM471 1423l133 267h277l-195 -267h-215z" />
    <glyph glyph-name="Ecircumflex" unicode="&#xca;" horiz-adv-x="1146" 
d="M123 0v1290h921v-286h-624v-205h573v-287h-573v-225h645v-287h-942zM266 1423l205 267h246l205 -267h-236l-92 123l-92 -123h-236z" />
    <glyph glyph-name="Edieresis" unicode="&#xcb;" horiz-adv-x="1146" 
d="M123 0v1290h921v-286h-624v-205h573v-287h-573v-225h645v-287h-942zM266 1556q0 62 41 103t103 41q61 0 102 -41t41 -103t-40.5 -102.5t-102.5 -40.5t-103 41t-41 102zM645 1556q0 62 41 103t102 41q62 0 103 -41t41 -103q0 -61 -41 -102t-103 -41t-102.5 40.5
t-40.5 102.5z" />
    <glyph glyph-name="Igrave" unicode="&#xcc;" horiz-adv-x="542" 
d="M123 0v1290h297v-1290h-297zM164 1423l-195 267h277l133 -267h-215z" />
    <glyph glyph-name="Iacute" unicode="&#xcd;" horiz-adv-x="542" 
d="M123 0v1290h297v-1290h-297zM164 1423l133 267h276l-194 -267h-215z" />
    <glyph glyph-name="Icircumflex" unicode="&#xce;" horiz-adv-x="542" 
d="M123 0v1290h297v-1290h-297zM-61 1423l204 267h246l205 -267h-236l-92 123l-92 -123h-235z" />
    <glyph glyph-name="Idieresis" unicode="&#xcf;" horiz-adv-x="542" 
d="M123 0v1290h297v-1290h-297zM-61 1556q0 62 41 103t102 41t102 -41t41 -103t-40.5 -102.5t-102.5 -40.5t-102.5 40.5t-40.5 102.5zM317 1556q0 62 41.5 103t102.5 41t102 -41t41 -103t-41 -102.5t-102 -40.5q-62 0 -103 41t-41 102z" />
    <glyph glyph-name="Eth" unicode="&#xd0;" horiz-adv-x="1331" 
d="M184 0v512h-143v246h143v532h441q176 0 324.5 -86t234.5 -234.5t86 -324.5t-86 -324.5t-234.5 -234.5t-324.5 -86h-441zM481 287h144q148 0 248 102.5t100 255.5t-100 256t-248 103h-144v-246h205v-246h-205v-225z" />
    <glyph glyph-name="Ntilde" unicode="&#xd1;" horiz-adv-x="1331" 
d="M123 0v1290h266l522 -758v758h297v-1290h-266l-522 758v-758h-297zM502 1403l-154 20q0 125 51 190.5t133 65.5q41 0 77.5 -14.5t58 -31.5t46 -31.5t44.5 -14.5q32 0 51.5 23t19.5 69l154 -20q0 -125 -51 -190.5t-133 -65.5q-42 0 -78.5 14.5t-57.5 31.5t-45.5 31.5
t-44.5 14.5q-31 0 -51 -23.5t-20 -68.5z" />
    <glyph glyph-name="Ograve" unicode="&#xd2;" horiz-adv-x="1392" 
d="M696 276q141 0 239.5 105.5t98.5 263.5t-98.5 263.5t-239.5 105.5t-239.5 -105.5t-98.5 -263.5t98.5 -263.5t239.5 -105.5zM696 -10q-173 0 -318.5 86t-231 237t-85.5 332t85.5 332t231 237t318.5 86t318.5 -86t231 -237t85.5 -332t-85.5 -332t-231 -237t-318.5 -86z
M594 1423l-195 267h277l133 -267h-215z" />
    <glyph glyph-name="Oacute" unicode="&#xd3;" horiz-adv-x="1392" 
d="M696 276q141 0 239.5 105.5t98.5 263.5t-98.5 263.5t-239.5 105.5t-239.5 -105.5t-98.5 -263.5t98.5 -263.5t239.5 -105.5zM696 -10q-173 0 -318.5 86t-231 237t-85.5 332t85.5 332t231 237t318.5 86t318.5 -86t231 -237t85.5 -332t-85.5 -332t-231 -237t-318.5 -86z
M594 1423l133 267h277l-195 -267h-215z" />
    <glyph glyph-name="Ocircumflex" unicode="&#xd4;" horiz-adv-x="1392" 
d="M696 276q141 0 239.5 105.5t98.5 263.5t-98.5 263.5t-239.5 105.5t-239.5 -105.5t-98.5 -263.5t98.5 -263.5t239.5 -105.5zM696 -10q-173 0 -318.5 86t-231 237t-85.5 332t85.5 332t231 237t318.5 86t318.5 -86t231 -237t85.5 -332t-85.5 -332t-231 -237t-318.5 -86z
M369 1423l204 267h246l205 -267h-236l-92 123l-92 -123h-235z" />
    <glyph glyph-name="Otilde" unicode="&#xd5;" horiz-adv-x="1392" 
d="M696 276q141 0 239.5 105.5t98.5 263.5t-98.5 263.5t-239.5 105.5t-239.5 -105.5t-98.5 -263.5t98.5 -263.5t239.5 -105.5zM696 -10q-173 0 -318.5 86t-231 237t-85.5 332t85.5 332t231 237t318.5 86t318.5 -86t231 -237t85.5 -332t-85.5 -332t-231 -237t-318.5 -86z
M532 1403l-153 20q0 125 51 190.5t133 65.5q52 0 95 -23t74.5 -46t55.5 -23q32 0 52 23.5t20 68.5l154 -20q0 -125 -51.5 -190.5t-133.5 -65.5q-53 0 -95.5 23t-73.5 46t-56 23q-31 0 -51.5 -23.5t-20.5 -68.5z" />
    <glyph glyph-name="Odieresis" unicode="&#xd6;" horiz-adv-x="1392" 
d="M696 276q141 0 239.5 105.5t98.5 263.5t-98.5 263.5t-239.5 105.5t-239.5 -105.5t-98.5 -263.5t98.5 -263.5t239.5 -105.5zM696 -10q-173 0 -318.5 86t-231 237t-85.5 332t85.5 332t231 237t318.5 86t318.5 -86t231 -237t85.5 -332t-85.5 -332t-231 -237t-318.5 -86z
M369 1556q0 62 41 103t102 41t102 -41t41 -103t-40.5 -102.5t-102.5 -40.5t-102.5 40.5t-40.5 102.5zM748 1556q0 62 41 103t102 41t102 -41t41 -103t-41 -102.5t-102 -40.5t-102 40.5t-41 102.5z" />
    <glyph glyph-name="multiply" unicode="&#xd7;" horiz-adv-x="962" 
d="M102 297l215 225l-215 226l174 163l205 -215l205 215l174 -163l-215 -226l215 -225l-174 -164l-205 215l-205 -215z" />
    <glyph glyph-name="Oslash" unicode="&#xd8;" horiz-adv-x="1433" 
d="M246 0l-195 205l113 112q-25 48 -41 95q-41 105 -41 233q0 181 85.5 332t231 237t318.5 86q140 0 256 -57q51 -22 102 -55l113 102l194 -205l-112 -112q30 -58 41 -90q41 -102 41 -238q0 -181 -85.5 -332t-231 -237t-318.5 -86q-144 0 -256 55q-63 27 -103 57zM389 532
l471 451l-37 14q-53 17 -106 17q-141 0 -239.5 -105.5t-98.5 -263.5q0 -52 4 -88zM1044 758l-471 -451q1 -1 37 -16q47 -15 107 -15q141 0 239.5 105.5t98.5 263.5q0 32 -6 86q-1 3 -2.5 13.5t-2.5 13.5z" />
    <glyph glyph-name="Ugrave" unicode="&#xd9;" horiz-adv-x="1269" 
d="M102 522v768h297v-768q0 -116 63 -181t173 -65q109 0 172 65t63 181v768h297v-768q0 -238 -147 -385t-385 -147t-385.5 147t-147.5 385zM543 1423l-195 267h277l133 -267h-215z" />
    <glyph glyph-name="Uacute" unicode="&#xda;" horiz-adv-x="1269" 
d="M102 522v768h297v-768q0 -116 63 -181t173 -65q109 0 172 65t63 181v768h297v-768q0 -238 -147 -385t-385 -147t-385.5 147t-147.5 385zM522 1423l133 267h277l-195 -267h-215z" />
    <glyph glyph-name="Ucircumflex" unicode="&#xdb;" horiz-adv-x="1269" 
d="M102 522v768h297v-768q0 -116 63 -181t173 -65q109 0 172 65t63 181v768h297v-768q0 -238 -147 -385t-385 -147t-385.5 147t-147.5 385zM307 1423l205 267h246l205 -267h-236l-92 123l-92 -123h-236z" />
    <glyph glyph-name="Udieresis" unicode="&#xdc;" horiz-adv-x="1269" 
d="M102 522v768h297v-768q0 -116 63 -181t173 -65q109 0 172 65t63 181v768h297v-768q0 -238 -147 -385t-385 -147t-385.5 147t-147.5 385zM307 1556q0 62 41.5 103t102.5 41t102 -41t41 -103t-41 -102.5t-102 -40.5q-62 0 -103 41t-41 102zM686 1556q0 62 41 103t102 41
t102.5 -41t41.5 -103q0 -61 -41 -102t-103 -41q-61 0 -102 40.5t-41 102.5z" />
    <glyph glyph-name="Yacute" unicode="&#xdd;" horiz-adv-x="1157" 
d="M430 0v481l-430 809h317l263 -512l260 512h317l-430 -809v-481h-297zM471 1423l133 267h277l-195 -267h-215z" />
    <glyph glyph-name="Thorn" unicode="&#xde;" horiz-adv-x="1228" 
d="M102 0v1290h297v-194h308q198 0 329 -125t131 -305t-131 -305t-329 -125h-308v-236h-297zM399 522h308q67 0 115 44t48 100t-48 99.5t-115 43.5h-308v-287z" />
    <glyph glyph-name="germandbls" unicode="&#xdf;" horiz-adv-x="1116" 
d="M123 0v901q0 169 118.5 284t301.5 115q187 0 303.5 -104t116.5 -254q0 -107 -58 -184q-24 -37 -55 -62q50 -23 102 -75q103 -111 103 -252q0 -155 -111 -262t-278 -107h-123v246h102q55 0 94 41t39 102t-39 102t-94 41h-102v246q68 0 105.5 35.5t37.5 97.5
q0 144 -143 144q-62 0 -103 -43t-41 -111v-901h-276z" />
    <glyph glyph-name="agrave" unicode="&#xe0;" horiz-adv-x="993" 
d="M696 0l-41 92q-46 -36 -77 -51q-93 -51 -199 -51q-150 0 -234 73t-84 193q0 58 17 104.5t58 87t104.5 67.5t161 42.5t223.5 15.5q0 68 -34 106t-89 38q-64 0 -101 -47q-17 -23 -22 -45l-277 20q26 147 128.5 232.5t281.5 85.5q169 0 279 -110.5t110 -279.5v-573h-205z
M625 369v41q-114 0 -179.5 -16.5t-86.5 -42t-21 -64.5q0 -40 30.5 -66t82.5 -26q78 0 126 48t48 126zM410 1055l-195 266h277l133 -266h-215z" />
    <glyph glyph-name="aacute" unicode="&#xe1;" horiz-adv-x="993" 
d="M696 0l-41 92q-46 -36 -77 -51q-93 -51 -199 -51q-150 0 -234 73t-84 193q0 58 17 104.5t58 87t104.5 67.5t161 42.5t223.5 15.5q0 68 -34 106t-89 38q-64 0 -101 -47q-17 -23 -22 -45l-277 20q26 147 128.5 232.5t281.5 85.5q169 0 279 -110.5t110 -279.5v-573h-205z
M625 369v41q-114 0 -179.5 -16.5t-86.5 -42t-21 -64.5q0 -40 30.5 -66t82.5 -26q78 0 126 48t48 126zM399 1065l133 266h277l-195 -266h-215z" />
    <glyph glyph-name="acircumflex" unicode="&#xe2;" horiz-adv-x="993" 
d="M696 0l-41 92q-46 -36 -77 -51q-93 -51 -199 -51q-150 0 -234 73t-84 193q0 58 17 104.5t58 87t104.5 67.5t161 42.5t223.5 15.5q0 68 -34 106t-89 38q-64 0 -101 -47q-17 -23 -22 -45l-277 20q26 147 128.5 232.5t281.5 85.5q169 0 279 -110.5t110 -279.5v-573h-205z
M625 369v41q-114 0 -179.5 -16.5t-86.5 -42t-21 -64.5q0 -40 30.5 -66t82.5 -26q78 0 126 48t48 126zM195 1055l204 266h246l205 -266h-236l-92 123l-92 -123h-235z" />
    <glyph glyph-name="atilde" unicode="&#xe3;" horiz-adv-x="993" 
d="M696 0l-41 92q-46 -36 -77 -51q-93 -51 -199 -51q-150 0 -234 73t-84 193q0 58 17 104.5t58 87t104.5 67.5t161 42.5t223.5 15.5q0 68 -34 106t-89 38q-64 0 -101 -47q-17 -23 -22 -45l-277 20q26 147 128.5 232.5t281.5 85.5q169 0 279 -110.5t110 -279.5v-573h-205z
M625 369v41q-114 0 -179.5 -16.5t-86.5 -42t-21 -64.5q0 -40 30.5 -66t82.5 -26q78 0 126 48t48 126zM358 1034l-153 21q0 125 51 190.5t133 65.5q52 0 95 -23t74.5 -46t55.5 -23q32 0 52 23.5t20 68.5l154 -21q0 -125 -51.5 -190.5t-133.5 -65.5q-53 0 -95.5 23t-73.5 46
t-56 23q-31 0 -51.5 -23.5t-20.5 -68.5z" />
    <glyph glyph-name="adieresis" unicode="&#xe4;" horiz-adv-x="993" 
d="M696 0l-41 92q-46 -36 -77 -51q-93 -51 -199 -51q-150 0 -234 73t-84 193q0 58 17 104.5t58 87t104.5 67.5t161 42.5t223.5 15.5q0 68 -34 106t-89 38q-64 0 -101 -47q-17 -23 -22 -45l-277 20q26 147 128.5 232.5t281.5 85.5q169 0 279 -110.5t110 -279.5v-573h-205z
M625 369v41q-114 0 -179.5 -16.5t-86.5 -42t-21 -64.5q0 -40 30.5 -66t82.5 -26q78 0 126 48t48 126zM190 1188q0 61 41 102t103 41t102.5 -40.5t40.5 -102.5t-41 -103t-102 -41q-62 0 -103 41t-41 103zM569 1188q0 61 41 102t103 41q61 0 102 -40.5t41 -102.5t-41 -103
t-102 -41t-102.5 41t-41.5 103z" />
    <glyph glyph-name="aring" unicode="&#xe5;" horiz-adv-x="993" 
d="M696 0l-41 92q-46 -36 -77 -51q-93 -51 -199 -51q-150 0 -234 73t-84 193q0 58 17 104.5t58 87t104.5 67.5t161 42.5t223.5 15.5q0 68 -34 106t-89 38q-64 0 -101 -47q-17 -23 -22 -45l-277 20q26 147 128.5 232.5t281.5 85.5q169 0 279 -110.5t110 -279.5v-573h-205z
M625 369v41q-114 0 -179.5 -16.5t-86.5 -42t-21 -64.5q0 -40 30.5 -66t82.5 -26q78 0 126 48t48 126zM584 1219q0 31 -20.5 51t-51.5 20t-51.5 -20t-20.5 -51t20.5 -51.5t51.5 -20.5t51.5 20.5t20.5 51.5zM307 1219q0 87 56.5 140.5t148.5 53.5t148.5 -53.5t56.5 -140.5
t-56.5 -141t-148.5 -54t-148.5 54t-56.5 141z" />
    <glyph glyph-name="ae" unicode="&#xe6;" horiz-adv-x="1607" 
d="M379 625l-277 20q26 147 128.5 232.5t281.5 85.5q131 0 229 -52q35 -18 68 -51q31 31 70 51q98 52 217 52q194 0 327 -139.5t133 -352.5q0 -17 -6 -65l-4 -27h-645q16 -43 39 -72q56 -71 156 -71q67 0 110 30q20 11 33 31l287 -21q-39 -124 -157 -210t-284 -86
q-129 0 -225 61q-47 29 -72 61q-36 -33 -90 -61q-116 -61 -258 -61q-176 0 -277.5 81t-101.5 195q0 58 17 104.5t58 87t104.5 67.5t161 42.5t223.5 15.5q0 68 -34 106t-89 38q-64 0 -101 -47q-17 -23 -22 -45zM901 563h369q-8 64 -59 109t-126 45t-125.5 -45t-58.5 -109z
M625 369v41q-114 0 -179.5 -16.5t-86.5 -42t-21 -64.5q0 -40 30.5 -66t82.5 -26q78 0 126 48t48 126z" />
    <glyph glyph-name="ccedilla" unicode="&#xe7;" horiz-adv-x="1044" 
d="M379 -389v102l24 -6q28 -4 58 -4q52 0 77 19.5t25 52.5q0 25 -23.5 43t-68.5 18q-10 0 -22.5 -2.5t-20.5 -5.5l-8 -2l63 158q-180 20 -301 158t-121 329q0 206 141 349t341 143q233 0 366 -185q56 -79 84 -184l-276 -21q-15 38 -37 66q-56 68 -137 68q-88 0 -146.5 -64.5
t-58.5 -171.5q0 -106 58.5 -170.5t146.5 -64.5q84 0 137 65q23 29 37 68l276 -21q-21 -90 -71 -168q-112 -173 -316 -196l-33 -66q51 -9 86 -29q89 -48 89 -135q0 -74 -61 -119t-185 -45q-42 0 -88 11q-16 2 -35 10z" />
    <glyph glyph-name="egrave" unicode="&#xe8;" horiz-adv-x="1054" 
d="M686 297l287 -21q-40 -126 -154.5 -211t-286.5 -85q-126 0 -234 64.5t-172.5 178t-64.5 248.5q0 206 141 349t341 143q128 0 232.5 -60.5t166.5 -173.5t62 -258q0 -10 -1 -21t-3 -22.5t-3 -17.5l-4 -31h-645q19 -59 70.5 -101t124.5 -42q67 0 110 30q20 11 33 31z
M348 553h389q-19 66 -69.5 110t-124.5 44t-125 -44t-70 -110zM440 1055l-194 266h276l133 -266h-215z" />
    <glyph glyph-name="eacute" unicode="&#xe9;" horiz-adv-x="1054" 
d="M686 297l287 -21q-40 -126 -154.5 -211t-286.5 -85q-126 0 -234 64.5t-172.5 178t-64.5 248.5q0 206 141 349t341 143q128 0 232.5 -60.5t166.5 -173.5t62 -258q0 -10 -1 -21t-3 -22.5t-3 -17.5l-4 -31h-645q19 -59 70.5 -101t124.5 -42q67 0 110 30q20 11 33 31z
M348 553h389q-19 66 -69.5 110t-124.5 44t-125 -44t-70 -110zM430 1055l133 266h277l-195 -266h-215z" />
    <glyph glyph-name="ecircumflex" unicode="&#xea;" horiz-adv-x="1054" 
d="M686 297l287 -21q-40 -126 -154.5 -211t-286.5 -85q-126 0 -234 64.5t-172.5 178t-64.5 248.5q0 206 141 349t341 143q128 0 232.5 -60.5t166.5 -173.5t62 -258q0 -10 -1 -21t-3 -22.5t-3 -17.5l-4 -31h-645q19 -59 70.5 -101t124.5 -42q67 0 110 30q20 11 33 31z
M348 553h389q-19 66 -69.5 110t-124.5 44t-125 -44t-70 -110zM215 1055l205 266h246l204 -266h-235l-92 123l-92 -123h-236z" />
    <glyph glyph-name="edieresis" unicode="&#xeb;" horiz-adv-x="1054" 
d="M686 297l287 -21q-40 -126 -154.5 -211t-286.5 -85q-126 0 -234 64.5t-172.5 178t-64.5 248.5q0 206 141 349t341 143q128 0 232.5 -60.5t166.5 -173.5t62 -258q0 -10 -1 -21t-3 -22.5t-3 -17.5l-4 -31h-645q19 -59 70.5 -101t124.5 -42q67 0 110 30q20 11 33 31z
M348 553h389q-19 66 -69.5 110t-124.5 44t-125 -44t-70 -110zM215 1188q0 62 40.5 102.5t102.5 40.5t103 -41t41 -102q0 -62 -41 -103t-103 -41q-61 0 -102 41t-41 103zM594 1188q0 62 41 102.5t102 40.5q62 0 103 -41t41 -102q0 -62 -41.5 -103t-102.5 -41t-102 41t-41 103
z" />
    <glyph glyph-name="igrave" unicode="&#xec;" horiz-adv-x="481" 
d="M102 0v942h277v-942h-277zM133 1055l-194 266h276l133 -266h-215z" />
    <glyph glyph-name="iacute" unicode="&#xed;" horiz-adv-x="481" 
d="M102 0v942h277v-942h-277zM133 1055l133 266h277l-195 -266h-215z" />
    <glyph glyph-name="icircumflex" unicode="&#xee;" horiz-adv-x="481" 
d="M102 0v942h277v-942h-277zM-92 1055l205 266h245l205 -266h-235l-92 123l-93 -123h-235z" />
    <glyph glyph-name="idieresis" unicode="&#xef;" horiz-adv-x="481" 
d="M102 0v942h277v-942h-277zM-92 1188q0 62 41 102.5t102 40.5q62 0 103 -41t41 -102q0 -62 -41.5 -103t-102.5 -41t-102 41t-41 103zM287 1188q0 62 40.5 102.5t102.5 40.5t102.5 -40.5t40.5 -102.5t-41 -103t-102 -41t-102 41t-41 103z" />
    <glyph glyph-name="eth" unicode="&#xf0;" horiz-adv-x="1136" 
d="M461 963l-103 143l82 51q-27 16 -47 23q-63 29 -106 39l71 204q130 -34 209 -71q51 -25 78 -41l164 112l102 -143l-112 -82q72 -71 127 -166q129 -223 129 -479q0 -171 -66 -300t-179 -196t-257 -67q-213 0 -352.5 133.5t-139.5 327.5q0 191 133 325.5t318 134.5
q108 0 188 -47q40 -24 58 -45q-37 105 -101 176q-36 41 -63 60zM338 451q0 -85 62 -145t153 -60t153 60t62 145t-61.5 144.5t-153.5 59.5t-153.5 -59.5t-61.5 -144.5z" />
    <glyph glyph-name="ntilde" unicode="&#xf1;" 
d="M102 0v942h205l41 -92q48 37 76 51q100 51 201 51q169 0 274 -108t105 -291v-553h-277v502q0 91 -47.5 142.5t-126.5 51.5t-126.5 -51.5t-47.5 -142.5v-502h-277zM399 1034l-153 21q0 125 51 190.5t133 65.5q52 0 95 -23t74.5 -46t55.5 -23q32 0 52 23.5t20 68.5l154 -21
q0 -125 -51.5 -190.5t-133.5 -65.5q-53 0 -95.5 23t-73.5 46t-56 23q-31 0 -51.5 -23.5t-20.5 -68.5z" />
    <glyph glyph-name="ograve" unicode="&#xf2;" horiz-adv-x="1085" 
d="M61 471q0 206 141 349t341 143t340.5 -143t140.5 -349t-140.5 -348.5t-340.5 -142.5t-341 142.5t-141 348.5zM748 471q0 107 -58.5 171.5t-146.5 64.5t-146.5 -64.5t-58.5 -171.5q0 -106 58.5 -170.5t146.5 -64.5t146.5 64.5t58.5 170.5zM440 1055l-194 266h276l133 -266
h-215z" />
    <glyph glyph-name="oacute" unicode="&#xf3;" horiz-adv-x="1085" 
d="M61 471q0 206 141 349t341 143t340.5 -143t140.5 -349t-140.5 -348.5t-340.5 -142.5t-341 142.5t-141 348.5zM748 471q0 107 -58.5 171.5t-146.5 64.5t-146.5 -64.5t-58.5 -171.5q0 -106 58.5 -170.5t146.5 -64.5t146.5 64.5t58.5 170.5zM440 1055l133 266h277l-195 -266
h-215z" />
    <glyph glyph-name="ocircumflex" unicode="&#xf4;" horiz-adv-x="1085" 
d="M61 471q0 206 141 349t341 143t340.5 -143t140.5 -349t-140.5 -348.5t-340.5 -142.5t-341 142.5t-141 348.5zM748 471q0 107 -58.5 171.5t-146.5 64.5t-146.5 -64.5t-58.5 -171.5q0 -106 58.5 -170.5t146.5 -64.5t146.5 64.5t58.5 170.5zM215 1055l205 266h246l204 -266
h-235l-92 123l-92 -123h-236z" />
    <glyph glyph-name="otilde" unicode="&#xf5;" horiz-adv-x="1085" 
d="M61 471q0 206 141 349t341 143t340.5 -143t140.5 -349t-140.5 -348.5t-340.5 -142.5t-341 142.5t-141 348.5zM748 471q0 107 -58.5 171.5t-146.5 64.5t-146.5 -64.5t-58.5 -171.5q0 -106 58.5 -170.5t146.5 -64.5t146.5 64.5t58.5 170.5zM379 1034l-154 21
q0 125 51.5 190.5t133.5 65.5q52 0 95 -23t74.5 -46t55.5 -23q32 0 52 23.5t20 68.5l153 -21q0 -125 -51 -190.5t-133 -65.5q-53 0 -95.5 23t-73.5 46t-56 23q-31 0 -51.5 -23.5t-20.5 -68.5z" />
    <glyph glyph-name="odieresis" unicode="&#xf6;" horiz-adv-x="1085" 
d="M61 471q0 206 141 349t341 143t340.5 -143t140.5 -349t-140.5 -348.5t-340.5 -142.5t-341 142.5t-141 348.5zM748 471q0 107 -58.5 171.5t-146.5 64.5t-146.5 -64.5t-58.5 -171.5q0 -106 58.5 -170.5t146.5 -64.5t146.5 64.5t58.5 170.5zM215 1188q0 62 40.5 102.5
t102.5 40.5t103 -41t41 -102q0 -62 -41 -103t-103 -41q-61 0 -102 41t-41 103zM594 1188q0 62 41 102.5t102 40.5q62 0 103 -41t41 -102q0 -62 -41.5 -103t-102.5 -41t-102 41t-41 103z" />
    <glyph glyph-name="divide" unicode="&#xf7;" horiz-adv-x="962" 
d="M72 399v246h819v-246h-819zM338 870q0 62 41 103t102 41t102.5 -41t41.5 -103q0 -61 -41 -102t-103 -41q-61 0 -102 40.5t-41 102.5zM338 174q0 62 41 102.5t102 40.5q62 0 103 -41t41 -102t-41 -102t-103 -41q-61 0 -102 40.5t-41 102.5z" />
    <glyph glyph-name="oslash" unicode="&#xf8;" horiz-adv-x="1105" 
d="M195 0l-144 154l82 71q-22 43 -31 70q-30 81 -30 176q0 206 140.5 349t340.5 143q105 0 203 -48q33 -17 73 -45l82 72l144 -154l-82 -71l31 -74q30 -101 30 -172q0 -206 -140.5 -348.5t-340.5 -142.5q-111 0 -203 45q-41 21 -74 47zM358 410l287 276l-22 10
q-29 11 -70 11q-88 0 -146.5 -64.5t-58.5 -171.5q0 -15 4 -43zM748 532l-287 -276q12 -8 22 -10q27 -10 70 -10q88 0 146.5 64.5t58.5 170.5q0 1 -6 43z" />
    <glyph glyph-name="ugrave" unicode="&#xf9;" 
d="M92 389v553h277v-502q0 -91 47.5 -142.5t126.5 -51.5t126.5 51.5t47.5 142.5v502h276v-942h-205l-40 92q-45 -35 -78 -51q-93 -51 -199 -51q-169 0 -274 108t-105 291zM451 1055l-195 266h276l134 -266h-215z" />
    <glyph glyph-name="uacute" unicode="&#xfa;" 
d="M92 389v553h277v-502q0 -91 47.5 -142.5t126.5 -51.5t126.5 51.5t47.5 142.5v502h276v-942h-205l-40 92q-45 -35 -78 -51q-93 -51 -199 -51q-169 0 -274 108t-105 291zM430 1055l133 266h277l-195 -266h-215z" />
    <glyph glyph-name="ucircumflex" unicode="&#xfb;" 
d="M92 389v553h277v-502q0 -91 47.5 -142.5t126.5 -51.5t126.5 51.5t47.5 142.5v502h276v-942h-205l-40 92q-45 -35 -78 -51q-93 -51 -199 -51q-169 0 -274 108t-105 291zM215 1055l205 266h246l204 -266h-235l-92 123l-92 -123h-236z" />
    <glyph glyph-name="udieresis" unicode="&#xfc;" 
d="M92 389v553h277v-502q0 -91 47.5 -142.5t126.5 -51.5t126.5 51.5t47.5 142.5v502h276v-942h-205l-40 92q-45 -35 -78 -51q-93 -51 -199 -51q-169 0 -274 108t-105 291zM215 1188q0 62 40.5 102.5t102.5 40.5t103 -41t41 -102q0 -62 -41 -103t-103 -41q-61 0 -102 41
t-41 103zM594 1188q0 62 41 102.5t102 40.5q62 0 103 -41t41 -102q0 -62 -41.5 -103t-102.5 -41t-102 41t-41 103z" />
    <glyph glyph-name="yacute" unicode="&#xfd;" horiz-adv-x="1003" 
d="M164 -328v236q81 0 125 33t69 100l-358 901h297l205 -584l205 584h297l-379 -942q-73 -181 -157 -259.5t-212 -78.5q-25 0 -61 4zM399 1055l133 266h277l-195 -266h-215z" />
    <glyph glyph-name="thorn" unicode="&#xfe;" horiz-adv-x="1116" 
d="M102 -328v1618h277v-420q36 28 63 41q73 41 172 41q88 0 168.5 -36.5t140.5 -99t96 -153t36 -192.5t-36 -192.5t-96 -153t-140.5 -99t-168.5 -36.5q-99 0 -172 41q-27 13 -63 41v-400h-277zM573 246q87 0 146 63t59 162t-59 162t-146 63t-145.5 -63t-58.5 -162t58.5 -162
t145.5 -63z" />
    <glyph glyph-name="ydieresis" unicode="&#xff;" horiz-adv-x="1003" 
d="M164 -328v236q81 0 125 33t69 100l-358 901h297l205 -584l205 584h297l-379 -942q-73 -181 -157 -259.5t-212 -78.5q-25 0 -61 4zM184 1188q0 61 41 102t103 41t102.5 -40.5t40.5 -102.5t-41 -103t-102 -41q-62 0 -103 41t-41 103zM563 1188q0 61 41 102t103 41
q61 0 102 -40.5t41 -102.5t-41 -103t-102 -41t-102.5 41t-41.5 103z" />
    <glyph glyph-name="Amacron" unicode="&#x100;" horiz-adv-x="1208" 
d="M461 502h287l-144 430zM-10 0l461 1290h307l461 -1290h-308l-82 246h-450l-82 -246h-307zM338 1434v215h543v-215h-543z" />
    <glyph glyph-name="amacron" unicode="&#x101;" horiz-adv-x="993" 
d="M696 0l-41 92q-46 -36 -77 -51q-93 -51 -199 -51q-150 0 -234 73t-84 193q0 58 17 104.5t58 87t104.5 67.5t161 42.5t223.5 15.5q0 68 -34 106t-89 38q-64 0 -101 -47q-17 -23 -22 -45l-277 20q26 147 128.5 232.5t281.5 85.5q169 0 279 -110.5t110 -279.5v-573h-205z
M625 369v41q-114 0 -179.5 -16.5t-86.5 -42t-21 -64.5q0 -40 30.5 -66t82.5 -26q78 0 126 48t48 126zM246 1065v215h542v-215h-542z" />
    <glyph glyph-name="Abreve" unicode="&#x102;" horiz-adv-x="1208" 
d="M461 502h287l-144 430zM-10 0l461 1290h307l461 -1290h-308l-82 246h-450l-82 -246h-307zM307 1679h195q7 -47 35 -74.5t67 -27.5t67.5 27.5t35.5 74.5h194q-18 -118 -97.5 -192t-199.5 -74q-122 0 -200.5 73.5t-96.5 192.5z" />
    <glyph glyph-name="abreve" unicode="&#x103;" horiz-adv-x="993" 
d="M696 0l-41 92q-46 -36 -77 -51q-93 -51 -199 -51q-150 0 -234 73t-84 193q0 58 17 104.5t58 87t104.5 67.5t161 42.5t223.5 15.5q0 68 -34 106t-89 38q-64 0 -101 -47q-17 -23 -22 -45l-277 20q26 147 128.5 232.5t281.5 85.5q169 0 279 -110.5t110 -279.5v-573h-205z
M625 369v41q-114 0 -179.5 -16.5t-86.5 -42t-21 -64.5q0 -40 30.5 -66t82.5 -26q78 0 126 48t48 126zM225 1311h195q7 -47 35.5 -75t66.5 -28q39 0 67.5 28t35.5 75h194q-18 -118 -97.5 -192.5t-199.5 -74.5q-121 0 -200 74t-97 193z" />
    <glyph glyph-name="Aogonek" unicode="&#x104;" horiz-adv-x="1208" 
d="M-10 0l461 1290h307l461 -1290h-154q-22 -33 -31 -51q-30 -58 -30 -103q0 -38 27 -65t65 -27q31 0 59 4l23 6v-133q-18 -7 -37 -10q-42 -10 -97 -10q-106 0 -165.5 51.5t-59.5 132.5q0 70 45 146q19 31 47 59l-82 246h-450l-82 -246h-307zM461 502h287l-144 430z" />
    <glyph glyph-name="aogonek" unicode="&#x105;" horiz-adv-x="993" 
d="M696 0l-41 92q-46 -36 -77 -51q-93 -51 -199 -51q-150 0 -234 73t-84 193q0 58 17 104.5t58 87t104.5 67.5t161 42.5t223.5 15.5q0 68 -34 106t-89 38q-64 0 -101 -47q-17 -23 -22 -45l-277 20q26 147 128.5 232.5t281.5 85.5q169 0 279 -110.5t110 -279.5v-573h-51
q-22 -33 -31 -51q-31 -60 -31 -103q0 -38 27.5 -65t65.5 -27q31 0 59 4l23 6v-133q-18 -7 -37 -10q-42 -10 -97 -10q-106 0 -165.5 51.5t-59.5 132.5q0 70 45 146q19 31 47 59zM625 369v41q-114 0 -179.5 -16.5t-86.5 -42t-21 -64.5q0 -40 30.5 -66t82.5 -26q78 0 126 48
t48 126z" />
    <glyph glyph-name="Cacute" unicode="&#x106;" horiz-adv-x="1331" 
d="M983 471l307 -20q-22 -93 -73.5 -176t-126 -146.5t-177 -101t-217.5 -37.5q-173 0 -318.5 86t-231 237t-85.5 332t85.5 332t231 237t318.5 86q147 0 272 -64.5t203.5 -167.5t108.5 -228l-307 -21q-27 84 -98 139.5t-179 55.5q-141 0 -239.5 -105.5t-98.5 -263.5
t98.5 -263.5t239.5 -105.5q116 0 189 55t98 140zM594 1423l133 267h277l-195 -267h-215z" />
    <glyph glyph-name="cacute" unicode="&#x107;" horiz-adv-x="1044" 
d="M717 369l276 -21q-28 -105 -84 -184q-132 -184 -366 -184q-200 0 -341 142.5t-141 348.5t141 349t341 143q233 0 366 -185q56 -79 84 -184l-276 -21q-15 38 -37 66q-56 68 -137 68q-88 0 -146.5 -64.5t-58.5 -171.5q0 -106 58.5 -170.5t146.5 -64.5q84 0 137 65
q23 29 37 68zM430 1055l133 266h277l-195 -266h-215z" />
    <glyph glyph-name="Ccircumflex" unicode="&#x108;" horiz-adv-x="1331" 
d="M983 471l307 -20q-22 -93 -73.5 -176t-126 -146.5t-177 -101t-217.5 -37.5q-173 0 -318.5 86t-231 237t-85.5 332t85.5 332t231 237t318.5 86q147 0 272 -64.5t203.5 -167.5t108.5 -228l-307 -21q-27 84 -98 139.5t-179 55.5q-141 0 -239.5 -105.5t-98.5 -263.5
t98.5 -263.5t239.5 -105.5q116 0 189 55t98 140zM379 1423l205 267h245l205 -267h-235l-92 123l-93 -123h-235z" />
    <glyph glyph-name="ccircumflex" unicode="&#x109;" horiz-adv-x="1044" 
d="M717 369l276 -21q-28 -105 -84 -184q-132 -184 -366 -184q-200 0 -341 142.5t-141 348.5t141 349t341 143q233 0 366 -185q56 -79 84 -184l-276 -21q-15 38 -37 66q-56 68 -137 68q-88 0 -146.5 -64.5t-58.5 -171.5q0 -106 58.5 -170.5t146.5 -64.5q84 0 137 65
q23 29 37 68zM215 1055l205 266h246l204 -266h-235l-92 123l-92 -123h-236z" />
    <glyph glyph-name="Cdotaccent" unicode="&#x10a;" horiz-adv-x="1331" 
d="M983 471l307 -20q-22 -93 -73.5 -176t-126 -146.5t-177 -101t-217.5 -37.5q-173 0 -318.5 86t-231 237t-85.5 332t85.5 332t231 237t318.5 86q147 0 272 -64.5t203.5 -167.5t108.5 -228l-307 -21q-27 84 -98 139.5t-179 55.5q-141 0 -239.5 -105.5t-98.5 -263.5
t98.5 -263.5t239.5 -105.5q116 0 189 55t98 140zM543 1567q0 61 45.5 107t107.5 46t108 -46t46 -107t-46 -107.5t-108 -46.5q-61 0 -107 46t-46 108z" />
    <glyph glyph-name="cdotaccent" unicode="&#x10b;" horiz-adv-x="1044" 
d="M717 369l276 -21q-28 -105 -84 -184q-132 -184 -366 -184q-200 0 -341 142.5t-141 348.5t141 349t341 143q233 0 366 -185q56 -79 84 -184l-276 -21q-15 38 -37 66q-56 68 -137 68q-88 0 -146.5 -64.5t-58.5 -171.5q0 -106 58.5 -170.5t146.5 -64.5q84 0 137 65
q23 29 37 68zM389 1198q0 62 46.5 108t107.5 46t107 -46t46 -108t-46 -108t-107 -46t-107.5 46t-46.5 108z" />
    <glyph glyph-name="Ccaron" unicode="&#x10c;" horiz-adv-x="1331" 
d="M983 471l307 -20q-22 -93 -73.5 -176t-126 -146.5t-177 -101t-217.5 -37.5q-173 0 -318.5 86t-231 237t-85.5 332t85.5 332t231 237t318.5 86q147 0 272 -64.5t203.5 -167.5t108.5 -228l-307 -21q-27 84 -98 139.5t-179 55.5q-141 0 -239.5 -105.5t-98.5 -263.5
t98.5 -263.5t239.5 -105.5q116 0 189 55t98 140zM584 1423l-205 267h235l93 -123l92 123h235l-205 -267h-245z" />
    <glyph glyph-name="ccaron" unicode="&#x10d;" horiz-adv-x="1044" 
d="M717 369l276 -21q-28 -105 -84 -184q-132 -184 -366 -184q-200 0 -341 142.5t-141 348.5t141 349t341 143q233 0 366 -185q56 -79 84 -184l-276 -21q-15 38 -37 66q-56 68 -137 68q-88 0 -146.5 -64.5t-58.5 -171.5q0 -106 58.5 -170.5t146.5 -64.5q84 0 137 65
q23 29 37 68zM420 1055l-205 266h236l92 -123l92 123h235l-204 -266h-246z" />
    <glyph glyph-name="Dcaron" unicode="&#x10e;" horiz-adv-x="1269" 
d="M420 287h143q148 0 248 102.5t100 255.5t-100 256t-248 103h-143v-717zM123 0v1290h440q176 0 324.5 -86t234.5 -234.5t86 -324.5t-86 -324.5t-234.5 -234.5t-324.5 -86h-440zM500 1423l-205 267h235l93 -123l92 123h235l-205 -267h-245z" />
    <glyph glyph-name="dcaron" unicode="&#x10f;" horiz-adv-x="1351" 
d="M1116 1024l72 266h256l-133 -266h-195zM809 0l-41 92q-52 -40 -72 -51q-89 -51 -194 -51q-88 0 -168.5 36.5t-140.5 99t-96 153t-36 192.5t36 192.5t96 153t140.5 99t168.5 36.5q99 0 172 -41q27 -13 63 -41v420h277v-1290h-205zM543 246q87 0 146 63t59 162t-59 162
t-146 63t-146 -63t-59 -162t59 -162t146 -63z" />
    <glyph glyph-name="Dcroat" unicode="&#x110;" horiz-adv-x="1331" 
d="M184 0v512h-143v246h143v532h441q176 0 324.5 -86t234.5 -234.5t86 -324.5t-86 -324.5t-234.5 -234.5t-324.5 -86h-441zM481 287h144q148 0 248 102.5t100 255.5t-100 256t-248 103h-144v-246h205v-246h-205v-225z" />
    <glyph glyph-name="dslash" unicode="&#x111;" horiz-adv-x="1146" 
d="M788 0l-40 92q-52 -40 -72 -51q-89 -51 -195 -51q-170 0 -295 128.5t-125 311.5t125 311.5t295 128.5q106 0 176 -41q33 -17 60 -41v154h-236v225h236v123h276v-123h133v-225h-133v-942h-205zM727 430q0 79 -55 131.5t-140 52.5t-139.5 -52.5t-54.5 -131.5t54.5 -131.5
t139.5 -52.5t140 52.5t55 131.5z" />
    <glyph glyph-name="Emacron" unicode="&#x112;" horiz-adv-x="1146" 
d="M123 0v1290h921v-286h-624v-205h573v-287h-573v-225h645v-287h-942zM328 1434v215h542v-215h-542z" />
    <glyph glyph-name="emacron" unicode="&#x113;" horiz-adv-x="1054" 
d="M686 297l287 -21q-40 -126 -154.5 -211t-286.5 -85q-126 0 -234 64.5t-172.5 178t-64.5 248.5q0 206 141 349t341 143q128 0 232.5 -60.5t166.5 -173.5t62 -258q0 -10 -1 -21t-3 -22.5t-3 -17.5l-4 -31h-645q19 -59 70.5 -101t124.5 -42q67 0 110 30q20 11 33 31z
M348 553h389q-19 66 -69.5 110t-124.5 44t-125 -44t-70 -110zM276 1065v215h543v-215h-543z" />
    <glyph glyph-name="Ebreve" unicode="&#x114;" horiz-adv-x="1146" 
d="M123 0v1290h921v-286h-624v-205h573v-287h-573v-225h645v-287h-942zM297 1679h195q7 -47 35 -74.5t67 -27.5t67 27.5t35 74.5h195q-18 -118 -97.5 -192t-199.5 -74q-122 0 -200.5 73.5t-96.5 192.5z" />
    <glyph glyph-name="ebreve" unicode="&#x115;" horiz-adv-x="1054" 
d="M686 297l287 -21q-40 -126 -154.5 -211t-286.5 -85q-126 0 -234 64.5t-172.5 178t-64.5 248.5q0 206 141 349t341 143q128 0 232.5 -60.5t166.5 -173.5t62 -258q0 -10 -1 -21t-3 -22.5t-3 -17.5l-4 -31h-645q19 -59 70.5 -101t124.5 -42q67 0 110 30q20 11 33 31z
M348 553h389q-19 66 -69.5 110t-124.5 44t-125 -44t-70 -110zM246 1311h194q7 -47 35.5 -75t67.5 -28t67 28t35 75h195q-18 -118 -97.5 -192.5t-199.5 -74.5q-121 0 -200 74t-97 193z" />
    <glyph glyph-name="Edotaccent" unicode="&#x116;" horiz-adv-x="1146" 
d="M123 0v1290h921v-286h-624v-205h573v-287h-573v-225h645v-287h-942zM440 1567q0 61 46 107t108 46t108 -46t46 -107t-46 -107.5t-108 -46.5t-108 46.5t-46 107.5z" />
    <glyph glyph-name="edotaccent" unicode="&#x117;" horiz-adv-x="1054" 
d="M686 297l287 -21q-40 -126 -154.5 -211t-286.5 -85q-126 0 -234 64.5t-172.5 178t-64.5 248.5q0 206 141 349t341 143q128 0 232.5 -60.5t166.5 -173.5t62 -258q0 -10 -1 -21t-3 -22.5t-3 -17.5l-4 -31h-645q19 -59 70.5 -101t124.5 -42q67 0 110 30q20 11 33 31z
M348 553h389q-19 66 -69.5 110t-124.5 44t-125 -44t-70 -110zM389 1198q0 62 46.5 108t107.5 46t107 -46t46 -108t-46 -108t-107 -46t-107.5 46t-46.5 108z" />
    <glyph glyph-name="Eogonek" unicode="&#x118;" horiz-adv-x="1146" 
d="M123 0v1290h921v-286h-624v-205h573v-287h-573v-225h645v-287q-22 -33 -31 -51q-30 -58 -30 -103q0 -38 27 -65t65 -27q31 0 59 4l23 6v-133q-18 -7 -37 -10q-42 -10 -97 -10q-106 0 -165.5 51.5t-59.5 132.5q0 70 45 146q19 31 47 59h-788z" />
    <glyph glyph-name="eogonek" unicode="&#x119;" horiz-adv-x="1054" 
d="M748 -236v-133q-18 -7 -37 -10q-42 -10 -97 -10q-106 0 -165.5 51.5t-59.5 132.5q0 99 78 189q-173 25 -289.5 162t-116.5 325q0 206 141 349t341 143q128 0 232.5 -60.5t166.5 -173.5t62 -258q0 -10 -1 -21t-3 -22.5t-3 -17.5l-4 -31h-645q19 -59 70.5 -101t124.5 -42
q67 0 110 30q20 11 33 31l287 -21q-37 -108 -124 -186.5t-224 -101.5q-52 -88 -52 -142q0 -38 27.5 -65t65.5 -27q31 0 59 4zM348 553h389q-19 66 -69.5 110t-124.5 44t-125 -44t-70 -110z" />
    <glyph glyph-name="Ecaron" unicode="&#x11a;" horiz-adv-x="1146" 
d="M123 0v1290h921v-286h-624v-205h573v-287h-573v-225h645v-287h-942zM471 1423l-205 267h236l92 -123l92 123h236l-205 -267h-246z" />
    <glyph glyph-name="ecaron" unicode="&#x11b;" horiz-adv-x="1054" 
d="M686 297l287 -21q-40 -126 -154.5 -211t-286.5 -85q-126 0 -234 64.5t-172.5 178t-64.5 248.5q0 206 141 349t341 143q128 0 232.5 -60.5t166.5 -173.5t62 -258q0 -10 -1 -21t-3 -22.5t-3 -17.5l-4 -31h-645q19 -59 70.5 -101t124.5 -42q67 0 110 30q20 11 33 31z
M348 553h389q-19 66 -69.5 110t-124.5 44t-125 -44t-70 -110zM420 1055l-205 266h236l92 -123l92 123h235l-204 -266h-246z" />
    <glyph glyph-name="Gcircumflex" unicode="&#x11c;" horiz-adv-x="1423" 
d="M1116 0l-51 123q-50 -44 -100 -68q-124 -65 -269 -65q-173 0 -318.5 86t-231 237t-85.5 332t85.5 332t231 237t318.5 86q112 0 211.5 -36.5t173 -99.5t125 -143.5t74.5 -170.5l-307 -21q-28 78 -99 131.5t-178 53.5q-141 0 -239.5 -105.5t-98.5 -263.5t98.5 -263.5
t239.5 -105.5q114 0 186 51.5t101 123.5h-287v245h625v-696h-205zM389 1423l205 267h246l204 -267h-235l-92 123l-92 -123h-236z" />
    <glyph glyph-name="gcircumflex" unicode="&#x11d;" horiz-adv-x="1105" 
d="M92 -31l277 21q10 -23 34 -47q49 -45 129 -45q85 0 140 52.5t55 131.5v51q-24 -24 -57 -41q-70 -41 -178 -41q-179 0 -305 130.5t-126 320.5t126 320t305 130q98 0 194 -51q20 -11 72 -51l41 92h205v-860q0 -187 -130.5 -308.5t-341.5 -121.5q-220 0 -350 158
q-61 74 -90 159zM338 502q0 -86 54 -140.5t140 -54.5t140.5 54.5t54.5 140.5t-54.5 140t-140.5 54t-140 -54t-54 -140zM225 1055l205 266h246l205 -266h-236l-92 123l-92 -123h-236z" />
    <glyph glyph-name="Gbreve" unicode="&#x11e;" horiz-adv-x="1423" 
d="M1116 0l-51 123q-50 -44 -100 -68q-124 -65 -269 -65q-173 0 -318.5 86t-231 237t-85.5 332t85.5 332t231 237t318.5 86q112 0 211.5 -36.5t173 -99.5t125 -143.5t74.5 -170.5l-307 -21q-28 78 -99 131.5t-178 53.5q-141 0 -239.5 -105.5t-98.5 -263.5t98.5 -263.5
t239.5 -105.5q114 0 186 51.5t101 123.5h-287v245h625v-696h-205zM420 1679h194q7 -47 35.5 -74.5t67.5 -27.5t67 27.5t35 74.5h195q-18 -118 -97.5 -192t-199.5 -74q-122 0 -200.5 73.5t-96.5 192.5z" />
    <glyph glyph-name="gbreve" unicode="&#x11f;" horiz-adv-x="1105" 
d="M92 -31l277 21q10 -23 34 -47q49 -45 129 -45q85 0 140 52.5t55 131.5v51q-24 -24 -57 -41q-70 -41 -178 -41q-179 0 -305 130.5t-126 320.5t126 320t305 130q98 0 194 -51q20 -11 72 -51l41 92h205v-860q0 -187 -130.5 -308.5t-341.5 -121.5q-220 0 -350 158
q-61 74 -90 159zM338 502q0 -86 54 -140.5t140 -54.5t140.5 54.5t54.5 140.5t-54.5 140t-140.5 54t-140 -54t-54 -140zM256 1311h195q7 -47 35 -75t67 -28t67 28t35 75h195q-18 -118 -97.5 -192.5t-199.5 -74.5q-121 0 -200 74t-97 193z" />
    <glyph glyph-name="Gdotaccent" unicode="&#x120;" horiz-adv-x="1423" 
d="M1116 0l-51 123q-50 -44 -100 -68q-124 -65 -269 -65q-173 0 -318.5 86t-231 237t-85.5 332t85.5 332t231 237t318.5 86q112 0 211.5 -36.5t173 -99.5t125 -143.5t74.5 -170.5l-307 -21q-28 78 -99 131.5t-178 53.5q-141 0 -239.5 -105.5t-98.5 -263.5t98.5 -263.5
t239.5 -105.5q114 0 186 51.5t101 123.5h-287v245h625v-696h-205zM553 1567q0 61 46 107t108 46q61 0 107 -46t46 -107q0 -62 -46 -108t-107 -46t-107.5 46.5t-46.5 107.5z" />
    <glyph glyph-name="gdotaccent" unicode="&#x121;" horiz-adv-x="1105" 
d="M92 -31l277 21q10 -23 34 -47q49 -45 129 -45q85 0 140 52.5t55 131.5v51q-24 -24 -57 -41q-70 -41 -178 -41q-179 0 -305 130.5t-126 320.5t126 320t305 130q98 0 194 -51q20 -11 72 -51l41 92h205v-860q0 -187 -130.5 -308.5t-341.5 -121.5q-220 0 -350 158
q-61 74 -90 159zM338 502q0 -86 54 -140.5t140 -54.5t140.5 54.5t54.5 140.5t-54.5 140t-140.5 54t-140 -54t-54 -140zM399 1198q0 62 46.5 108t107.5 46t107.5 -46t46.5 -108t-46.5 -108t-107.5 -46t-107.5 46t-46.5 108z" />
    <glyph glyph-name="Gcommaaccent" unicode="&#x122;" horiz-adv-x="1423" 
d="M1116 0l-51 123q-50 -44 -100 -68q-124 -65 -269 -65q-173 0 -318.5 86t-231 237t-85.5 332t85.5 332t231 237t318.5 86q112 0 211.5 -36.5t173 -99.5t125 -143.5t74.5 -170.5l-307 -21q-28 78 -99 131.5t-178 53.5q-141 0 -239.5 -105.5t-98.5 -263.5t98.5 -263.5
t239.5 -105.5q114 0 186 51.5t101 123.5h-287v245h625v-696h-205zM655 -594l-41 62q32 22 43 34q47 47 60 99q-62 0 -103 41t-41 102t41 102t103 41t102.5 -42.5t40.5 -110.5q0 -134 -102 -244q-49 -52 -103 -84z" />
    <glyph glyph-name="gcommaaccent" unicode="&#x123;" horiz-adv-x="1105" 
d="M616 1526l41 -62q-21 -15 -43 -37q-47 -47 -59 -96q61 0 102 -40.5t41 -102.5t-41 -103t-102 -41q-62 0 -102.5 43t-40.5 111q0 134 102 244q50 53 102 84zM92 -31l277 21q10 -23 34 -47q49 -45 129 -45q85 0 140 52.5t55 131.5v51q-24 -24 -57 -41q-70 -41 -178 -41
q-179 0 -305 130.5t-126 320.5t126 320t305 130q98 0 194 -51q20 -11 72 -51l41 92h205v-860q0 -187 -130.5 -308.5t-341.5 -121.5q-220 0 -350 158q-61 74 -90 159zM338 502q0 -86 54 -140.5t140 -54.5t140.5 54.5t54.5 140.5t-54.5 140t-140.5 54t-140 -54t-54 -140z" />
    <glyph glyph-name="Hcircumflex" unicode="&#x124;" horiz-adv-x="1331" 
d="M123 0v1290h297v-491h491v491h297v-1290h-297v512h-491v-512h-297zM338 1423l205 267h245l205 -267h-235l-92 123l-93 -123h-235z" />
    <glyph glyph-name="hcircumflex" unicode="&#x125;" 
d="M102 0v1290h277v-440q36 36 63 51q88 51 203 51q157 0 258 -109t101 -290v-553h-277v502q0 91 -47.5 142.5t-126.5 51.5t-126.5 -51.5t-47.5 -142.5v-502h-277zM225 1423l205 267h246l205 -267h-236l-92 123l-92 -123h-236z" />
    <glyph glyph-name="Hbar" unicode="&#x126;" horiz-adv-x="1433" 
d="M174 0v901h-143v246h143v143h297v-143h492v143h297v-143h143v-246h-143v-901h-297v512h-492v-512h-297zM471 799h492v102h-492v-102z" />
    <glyph glyph-name="hbar" unicode="&#x127;" horiz-adv-x="1146" 
d="M154 0v942h-144v225h144v123h276v-123h225v-225h-225v-184q34 34 64 51q88 51 202 51q157 0 258 -109t101 -290v-461h-277v410q0 91 -47.5 142.5t-126.5 51.5t-126.5 -51.5t-47.5 -142.5v-410h-276z" />
    <glyph glyph-name="uni0128" unicode="&#x128;" horiz-adv-x="542" 
d="M123 0v1290h297v-1290h-297zM102 1403l-153 20q0 125 51 190.5t133 65.5q52 0 95 -23t74.5 -46t55.5 -23q32 0 52 23.5t20 68.5l154 -20q0 -125 -51.5 -190.5t-133.5 -65.5q-53 0 -95.5 23t-73.5 46t-56 23q-31 0 -51.5 -23.5t-20.5 -68.5z" />
    <glyph glyph-name="uni0129" unicode="&#x129;" horiz-adv-x="481" 
d="M102 0v942h277v-942h-277zM72 1044l-154 21q0 125 51 190.5t133 65.5q41 0 77.5 -14.5t58 -31.5t46 -31.5t44.5 -14.5q32 0 51.5 23t19.5 69l154 -21q0 -125 -51 -190.5t-133 -65.5q-42 0 -78.5 14.5t-57.5 32t-45.5 32t-44.5 14.5q-31 0 -51 -24t-20 -69z" />
    <glyph glyph-name="Imacron" unicode="&#x12a;" horiz-adv-x="542" 
d="M123 0v1290h297v-1290h-297zM0 1434v215h543v-215h-543z" />
    <glyph glyph-name="imacron" unicode="&#x12b;" horiz-adv-x="481" 
d="M102 0v942h277v-942h-277zM-31 1065v215h543v-215h-543z" />
    <glyph glyph-name="Ibreve" unicode="&#x12c;" horiz-adv-x="542" 
d="M123 0v1290h297v-1290h-297zM-20 1679h194q7 -47 35 -74.5t67 -27.5t67.5 27.5t35.5 74.5h194q-18 -118 -97.5 -192t-199.5 -74q-121 0 -199.5 73.5t-96.5 192.5z" />
    <glyph glyph-name="ibreve" unicode="&#x12d;" horiz-adv-x="481" 
d="M102 0v942h277v-942h-277zM-61 1311h194q7 -47 35.5 -75t67.5 -28q38 0 66.5 28t35.5 75h194q-18 -119 -97 -193t-199 -74q-121 0 -200 74t-97 193z" />
    <glyph glyph-name="Iogonek" unicode="&#x12e;" horiz-adv-x="542" 
d="M123 0v1290h297v-1290h-144q-18 -27 -30 -51q-31 -60 -31 -103q0 -38 27 -65t65 -27q32 0 60 4l22 6v-133q-18 -7 -37 -10q-42 -10 -96 -10q-106 0 -165.5 51.5t-59.5 132.5q0 70 45 146q19 31 47 59z" />
    <glyph glyph-name="iogonek" unicode="&#x12f;" horiz-adv-x="481" 
d="M102 0v942h277v-942h-123q-22 -33 -31 -51q-30 -58 -30 -103q0 -38 27 -65t65 -27q31 0 59 4l23 6v-133q-18 -7 -37 -10q-42 -10 -96 -10q-106 0 -166 51.5t-60 132.5q0 70 45 146q19 31 47 59zM92 1198q0 62 46 108t108 46q61 0 107 -46t46 -108t-46 -108t-107 -46
q-62 0 -108 46t-46 108z" />
    <glyph glyph-name="Idot" unicode="&#x130;" horiz-adv-x="542" 
d="M123 0v1290h297v-1290h-297zM123 1567q0 61 45.5 107t107.5 46t108 -46t46 -107t-46 -107.5t-108 -46.5q-61 0 -107 46t-46 108z" />
    <glyph glyph-name="dotlessi" unicode="&#x131;" horiz-adv-x="481" 
d="M102 0v942h277v-942h-277z" />
    <glyph glyph-name="uni0132" unicode="&#x132;" horiz-adv-x="1495" 
d="M123 0v1290h297v-1290h-297zM1096 430v860h297v-860q0 -199 -120.5 -319.5t-320.5 -120.5q-198 0 -319 117t-121 303q101 4 184 12l113 8q0 -68 40.5 -111t102.5 -43t103 43t41 111z" />
    <glyph glyph-name="uni0133" unicode="&#x133;" horiz-adv-x="983" 
d="M102 0v942h277v-942h-277zM92 1198q0 62 46 108t108 46q61 0 107 -46t46 -108t-46 -108t-107 -46q-62 0 -108 46t-46 108zM410 -317v245l20 -6q28 -4 51 -4q55 0 89 36t34 97v891h277v-932q0 -169 -88 -258.5t-250 -89.5q-49 0 -94 10q-18 3 -39 11zM594 1198
q0 62 46 108t108 46q61 0 107 -46t46 -108t-46 -108t-107 -46q-62 0 -108 46t-46 108z" />
    <glyph glyph-name="Jcircumflex" unicode="&#x134;" horiz-adv-x="993" 
d="M594 430v860h297v-860q0 -200 -120.5 -320t-319.5 -120q-198 0 -319.5 117t-121.5 303q103 4 185 12l112 8q0 -68 41 -111t103 -43t102.5 43t40.5 111zM410 1423l204 267h246l205 -267h-236l-92 123l-92 -123h-235z" />
    <glyph glyph-name="jcircumflex" unicode="&#x135;" horiz-adv-x="481" 
d="M-92 -317v245l20 -6q28 -4 52 -4q55 0 88.5 36t33.5 97v891h277v-932q0 -169 -88 -258.5t-250 -89.5q-49 0 -94 10q-18 3 -39 11zM-92 1055l205 266h245l205 -266h-235l-92 123l-93 -123h-235z" />
    <glyph glyph-name="Kcommaaccent" unicode="&#x136;" horiz-adv-x="1157" 
d="M123 0v1290h297v-553l389 553h338l-455 -635l486 -655h-338l-420 573v-573h-297zM553 -594l-41 62q31 22 43 34q46 46 59 99q-62 0 -102.5 40.5t-40.5 102.5t40.5 102.5t102.5 40.5t103 -42.5t41 -110.5q0 -133 -103 -244q-50 -53 -102 -84z" />
    <glyph glyph-name="kcommaaccent" unicode="&#x137;" horiz-adv-x="962" 
d="M102 0v1290h277v-727l256 379h317l-317 -450l348 -492h-317l-287 420v-420h-277zM461 -594l-41 62q32 22 43 34q46 46 59 99q-62 0 -102.5 40.5t-40.5 102.5t40.5 102.5t102.5 40.5t103 -42.5t41 -110.5q0 -133 -103 -244q-50 -53 -102 -84z" />
    <glyph glyph-name="Lacute" unicode="&#x139;" horiz-adv-x="1024" 
d="M123 0v1290h297v-1003h584v-287h-881zM164 1423l133 267h276l-194 -267h-215z" />
    <glyph glyph-name="lacute" unicode="&#x13a;" horiz-adv-x="491" 
d="M102 0v1290h277v-1290h-277zM133 1423l133 267h277l-195 -267h-215z" />
    <glyph glyph-name="Lcommaaccent" unicode="&#x13b;" horiz-adv-x="1024" 
d="M123 0v1290h297v-1003h584v-287h-881zM522 -594l-41 62q32 22 43 34q47 47 60 99q-62 0 -103 41t-41 102t41 102t103 41t102.5 -42.5t40.5 -110.5q0 -134 -102 -244q-49 -52 -103 -84z" />
    <glyph glyph-name="lcommaaccent" unicode="&#x13c;" horiz-adv-x="491" 
d="M102 0v1290h277v-1290h-277zM184 -594l-41 62q32 22 43 34q47 47 60 99q-62 0 -103 41t-41 102t41 102t103 41t102.5 -42.5t40.5 -110.5q0 -134 -102 -244q-49 -52 -103 -84z" />
    <glyph glyph-name="Lcaron" unicode="&#x13d;" horiz-adv-x="1024" 
d="M522 1024l72 266h256l-133 -266h-195zM123 0v1290h297v-1003h584v-287h-881z" />
    <glyph glyph-name="lcaron" unicode="&#x13e;" horiz-adv-x="716" 
d="M481 1024l72 266h256l-133 -266h-195zM102 0v1290h277v-1290h-277z" />
    <glyph glyph-name="Ldot" unicode="&#x13f;" horiz-adv-x="1024" 
d="M123 0v1290h297v-1003h584v-287h-881zM635 727q0 62 46 108t107 46q62 0 108 -46.5t46 -107.5t-46 -107.5t-108 -46.5q-61 0 -107 46t-46 108z" />
    <glyph glyph-name="ldot" unicode="&#x140;" horiz-adv-x="819" 
d="M102 0v1290h277v-1290h-277zM502 635q0 61 46 107t107 46q62 0 108 -46t46 -107t-46.5 -107.5t-107.5 -46.5t-107 46t-46 108z" />
    <glyph glyph-name="Lslash" unicode="&#x141;" horiz-adv-x="1064" 
d="M164 0v338l-144 -92v266l144 92v686h297v-491l256 164v-267l-256 -164v-245h583v-287h-880z" />
    <glyph glyph-name="lslash" unicode="&#x142;" horiz-adv-x="645" 
d="M184 0v430l-153 -102v266l153 102v594h277v-399l153 102v-266l-153 -102v-625h-277z" />
    <glyph glyph-name="Nacute" unicode="&#x143;" horiz-adv-x="1331" 
d="M123 0v1290h266l522 -758v758h297v-1290h-266l-522 758v-758h-297zM553 1423l133 267h277l-195 -267h-215z" />
    <glyph glyph-name="nacute" unicode="&#x144;" 
d="M102 0v942h205l41 -92q48 37 76 51q100 51 201 51q169 0 274 -108t105 -291v-553h-277v502q0 91 -47.5 142.5t-126.5 51.5t-126.5 -51.5t-47.5 -142.5v-502h-277zM451 1055l133 266h276l-194 -266h-215z" />
    <glyph glyph-name="Ncommaaccent" unicode="&#x145;" horiz-adv-x="1331" 
d="M123 0v1290h266l522 -758v758h297v-1290h-266l-522 758v-758h-297zM614 -594l-41 62q32 22 43 34q47 47 60 99q-62 0 -103 41t-41 102t41 102t103 41t102.5 -42.5t40.5 -110.5q0 -134 -102 -244q-49 -52 -103 -84z" />
    <glyph glyph-name="ncommaaccent" unicode="&#x146;" 
d="M102 0v942h205l41 -92q48 37 76 51q100 51 201 51q169 0 274 -108t105 -291v-553h-277v502q0 91 -47.5 142.5t-126.5 51.5t-126.5 -51.5t-47.5 -142.5v-502h-277zM492 -594l-41 62q32 22 43 34q46 46 59 99q-61 0 -102 40.5t-41 102.5t41 102.5t102 40.5
q62 0 102.5 -42.5t40.5 -110.5q0 -134 -102 -244q-50 -53 -102 -84z" />
    <glyph glyph-name="Ncaron" unicode="&#x147;" horiz-adv-x="1331" 
d="M123 0v1290h266l522 -758v758h297v-1290h-266l-522 758v-758h-297zM543 1423l-205 267h235l93 -123l92 123h235l-205 -267h-245z" />
    <glyph glyph-name="ncaron" unicode="&#x148;" 
d="M102 0v942h205l41 -92q48 37 76 51q100 51 201 51q169 0 274 -108t105 -291v-553h-277v502q0 91 -47.5 142.5t-126.5 51.5t-126.5 -51.5t-47.5 -142.5v-502h-277zM451 1055l-205 266h235l92 -123l93 123h235l-205 -266h-245z" />
    <glyph glyph-name="napostrophe" unicode="&#x149;" horiz-adv-x="1239" 
d="M246 0v942h205l41 -92q49 39 75 51q100 51 201 51q169 0 274 -108t105 -291v-553h-277v502q0 91 -47.5 142.5t-126.5 51.5t-126.5 -51.5t-47.5 -142.5v-502h-276zM61 809l-41 61q28 20 43 35q47 47 60 99q-61 0 -102 41t-41 102t41 102t102 41q62 0 102.5 -42.5
t40.5 -110.5q0 -134 -102 -244q-49 -52 -103 -84z" />
    <glyph glyph-name="Eng" unicode="&#x14a;" horiz-adv-x="1331" 
d="M123 0v1290h266l522 -758v758h297v-1372q0 -178 -119.5 -294t-310.5 -116q-176 0 -294 113t-126 277l297 20q0 -61 34 -97t89 -36q62 0 97.5 35.5t35.5 97.5v127l-491 713v-758h-297z" />
    <glyph glyph-name="eng" unicode="&#x14b;" 
d="M102 0v942h205l41 -92q48 37 76 51q100 51 201 51q169 0 274 -108t105 -291v-543q0 -168 -91.5 -263t-246.5 -95q-61 0 -99 14q-23 10 -35 17v225l19 -6q28 -4 43 -4q62 0 97.5 36t35.5 97v471q0 91 -47.5 142.5t-126.5 51.5t-126.5 -51.5t-47.5 -142.5v-502h-277z" />
    <glyph glyph-name="Omacron" unicode="&#x14c;" horiz-adv-x="1392" 
d="M696 276q141 0 239.5 105.5t98.5 263.5t-98.5 263.5t-239.5 105.5t-239.5 -105.5t-98.5 -263.5t98.5 -263.5t239.5 -105.5zM696 -10q-173 0 -318.5 86t-231 237t-85.5 332t85.5 332t231 237t318.5 86t318.5 -86t231 -237t85.5 -332t-85.5 -332t-231 -237t-318.5 -86z
M430 1434v215h543v-215h-543z" />
    <glyph glyph-name="omacron" unicode="&#x14d;" horiz-adv-x="1085" 
d="M61 471q0 206 141 349t341 143t340.5 -143t140.5 -349t-140.5 -348.5t-340.5 -142.5t-341 142.5t-141 348.5zM748 471q0 107 -58.5 171.5t-146.5 64.5t-146.5 -64.5t-58.5 -171.5q0 -106 58.5 -170.5t146.5 -64.5t146.5 64.5t58.5 170.5zM276 1065v215h543v-215h-543z
" />
    <glyph glyph-name="Obreve" unicode="&#x14e;" horiz-adv-x="1392" 
d="M696 276q141 0 239.5 105.5t98.5 263.5t-98.5 263.5t-239.5 105.5t-239.5 -105.5t-98.5 -263.5t98.5 -263.5t239.5 -105.5zM696 -10q-173 0 -318.5 86t-231 237t-85.5 332t85.5 332t231 237t318.5 86t318.5 -86t231 -237t85.5 -332t-85.5 -332t-231 -237t-318.5 -86z
M399 1679h195q7 -47 35 -74.5t67 -27.5t67.5 27.5t35.5 74.5h194q-18 -118 -97.5 -192t-199.5 -74q-122 0 -200.5 73.5t-96.5 192.5z" />
    <glyph glyph-name="obreve" unicode="&#x14f;" horiz-adv-x="1085" 
d="M61 471q0 206 141 349t341 143t340.5 -143t140.5 -349t-140.5 -348.5t-340.5 -142.5t-341 142.5t-141 348.5zM748 471q0 107 -58.5 171.5t-146.5 64.5t-146.5 -64.5t-58.5 -171.5q0 -106 58.5 -170.5t146.5 -64.5t146.5 64.5t58.5 170.5zM246 1311h194q7 -47 35.5 -75
t67.5 -28t67 28t35 75h195q-18 -118 -97.5 -192.5t-199.5 -74.5q-121 0 -200 74t-97 193z" />
    <glyph glyph-name="Ohungarumlaut" unicode="&#x150;" horiz-adv-x="1392" 
d="M696 276q141 0 239.5 105.5t98.5 263.5t-98.5 263.5t-239.5 105.5t-239.5 -105.5t-98.5 -263.5t98.5 -263.5t239.5 -105.5zM696 -10q-173 0 -318.5 86t-231 237t-85.5 332t85.5 332t231 237t318.5 86t318.5 -86t231 -237t85.5 -332t-85.5 -332t-231 -237t-318.5 -86z
M410 1423l143 267h276l-204 -267h-215zM768 1423l143 267h277l-205 -267h-215z" />
    <glyph glyph-name="ohungarumlaut" unicode="&#x151;" horiz-adv-x="1085" 
d="M61 471q0 206 141 349t341 143t340.5 -143t140.5 -349t-140.5 -348.5t-340.5 -142.5t-341 142.5t-141 348.5zM748 471q0 107 -58.5 171.5t-146.5 64.5t-146.5 -64.5t-58.5 -171.5q0 -106 58.5 -170.5t146.5 -64.5t146.5 64.5t58.5 170.5zM256 1055l143 266h277l-205 -266
h-215zM614 1055l144 266h276l-205 -266h-215z" />
    <glyph glyph-name="OE" unicode="&#x152;" horiz-adv-x="1751" 
d="M1096 287h573v-287h-962q-132 0 -251.5 51t-206 137t-137.5 205.5t-51 251.5t51 251.5t137.5 205.5t206 137t251.5 51h942v-286h-553v-205h501v-287h-501v-225zM707 287h92v717h-92q-148 0 -248.5 -103t-100.5 -256t100.5 -255.5t248.5 -102.5z" />
    <glyph glyph-name="oe" unicode="&#x153;" horiz-adv-x="1699" 
d="M1331 297l287 -21q-40 -125 -152.5 -210.5t-277.5 -85.5q-134 0 -240 75q-50 37 -78 78q-38 -43 -90 -78q-113 -75 -258 -75q-194 0 -327.5 139t-133.5 352t133.5 352.5t327.5 139.5q148 0 262 -78q48 -32 86 -76q35 41 82 76q110 78 236 78q194 0 327.5 -139.5
t133.5 -352.5q0 -9 -7 -65l-4 -27h-645q16 -43 39 -72q56 -71 156 -71q67 0 110 30q20 11 33 31zM522 236q81 0 138 65t57 170t-57 170.5t-138 65.5t-137.5 -65t-56.5 -171t56.5 -170.5t137.5 -64.5zM993 563h369q-8 64 -58.5 109t-125.5 45t-126 -45t-59 -109z" />
    <glyph glyph-name="Racute" unicode="&#x154;" horiz-adv-x="1187" 
d="M123 0v1290h522q197 0 324 -119t127 -290q1 -81 -24.5 -151t-60.5 -111.5t-73 -72t-61.5 -42.5t-26.5 -12l287 -492h-328l-236 430h-153v-430h-297zM420 717h225q76 0 120 40t44 103t-44 103.5t-120 40.5h-225v-287zM481 1423l133 267h277l-195 -267h-215z" />
    <glyph glyph-name="racute" unicode="&#x155;" horiz-adv-x="696" 
d="M102 0v942h205l41 -102q24 30 60 55q72 57 165 57q18 0 60 -6l22 -4v-287l-28 11q-30 10 -74 10q-79 0 -126.5 -52t-47.5 -143v-481h-277zM276 1055l134 266h276l-194 -266h-216z" />
    <glyph glyph-name="Rcommaaccent" unicode="&#x156;" horiz-adv-x="1187" 
d="M123 0v1290h522q197 0 324 -119t127 -290q1 -81 -24.5 -151t-60.5 -111.5t-73 -72t-61.5 -42.5t-26.5 -12l287 -492h-328l-236 430h-153v-430h-297zM420 717h225q76 0 120 40t44 103t-44 103.5t-120 40.5h-225v-287zM563 -594l-41 62q31 22 43 34q47 47 60 99
q-62 0 -103 41t-41 102t41 102t103 41t102.5 -42.5t40.5 -110.5q0 -134 -102 -244q-49 -52 -103 -84z" />
    <glyph glyph-name="rcommaaccent" unicode="&#x157;" horiz-adv-x="696" 
d="M102 0v942h205l41 -102q24 30 60 55q72 57 165 57q18 0 60 -6l22 -4v-287l-28 11q-30 10 -74 10q-79 0 -126.5 -52t-47.5 -143v-481h-277zM184 -594l-41 62q32 22 43 34q47 47 60 99q-62 0 -103 41t-41 102t41 102t103 41t102.5 -42.5t40.5 -110.5q0 -134 -102 -244
q-49 -52 -103 -84z" />
    <glyph glyph-name="Rcaron" unicode="&#x158;" horiz-adv-x="1187" 
d="M123 0v1290h522q197 0 324 -119t127 -290q1 -81 -24.5 -151t-60.5 -111.5t-73 -72t-61.5 -42.5t-26.5 -12l287 -492h-328l-236 430h-153v-430h-297zM420 717h225q76 0 120 40t44 103t-44 103.5t-120 40.5h-225v-287zM481 1423l-205 267h236l92 -123l92 123h236l-205 -267
h-246z" />
    <glyph glyph-name="rcaron" unicode="&#x159;" horiz-adv-x="696" 
d="M102 0v942h205l41 -102q24 30 60 55q72 57 165 57q18 0 60 -6l22 -4v-287l-28 11q-30 10 -74 10q-79 0 -126.5 -52t-47.5 -143v-481h-277zM266 1055l-205 266h236l92 -123l92 123h236l-205 -266h-246z" />
    <glyph glyph-name="Sacute" unicode="&#x15a;" horiz-adv-x="1075" 
d="M61 410l287 20q0 -174 184 -174q83 0 129 38t46 95q0 39 -35 66.5t-91 46t-123.5 37.5t-135.5 48t-124 69.5t-91 111t-35 164.5q0 73 32 139.5t90 117.5t145.5 81t192.5 30q204 0 327.5 -114.5t123.5 -294.5l-287 -21q0 78 -43 121t-121 43q-67 0 -110 -37t-43 -86
q0 -37 35 -63t91 -43t123.5 -35.5t135.5 -48t124 -71t91 -113.5t35 -168q0 -160 -130 -269.5t-352 -109.5q-219 0 -345 116t-126 304zM430 1423l133 267h277l-195 -267h-215z" />
    <glyph glyph-name="sacute" unicode="&#x15b;" horiz-adv-x="911" 
d="M61 287l267 20q8 -48 39 -75t84 -27q51 0 81.5 24.5t30.5 57.5q0 20 -26.5 35t-69 27t-93.5 26t-102.5 37.5t-94 55.5t-69 85.5t-26.5 122.5q0 120 98 203.5t260 83.5q176 0 275.5 -78t124.5 -209l-267 -21q-8 34 -38 58t-74 24q-46 0 -69 -19.5t-23 -51.5
q0 -20 26.5 -35.5t69 -27.5t94 -26.5t102.5 -37.5t93.5 -55t69 -85.5t26.5 -122.5q0 -121 -103.5 -208.5t-275.5 -87.5q-359 0 -410 307zM338 1055l133 266h277l-195 -266h-215z" />
    <glyph glyph-name="Scircumflex" unicode="&#x15c;" horiz-adv-x="1075" 
d="M61 410l287 20q0 -174 184 -174q83 0 129 38t46 95q0 39 -35 66.5t-91 46t-123.5 37.5t-135.5 48t-124 69.5t-91 111t-35 164.5q0 73 32 139.5t90 117.5t145.5 81t192.5 30q204 0 327.5 -114.5t123.5 -294.5l-287 -21q0 78 -43 121t-121 43q-67 0 -110 -37t-43 -86
q0 -37 35 -63t91 -43t123.5 -35.5t135.5 -48t124 -71t91 -113.5t35 -168q0 -160 -130 -269.5t-352 -109.5q-219 0 -345 116t-126 304zM205 1423l205 267h245l205 -267h-235l-93 123l-92 -123h-235z" />
    <glyph glyph-name="scircumflex" unicode="&#x15d;" horiz-adv-x="911" 
d="M61 287l267 20q8 -48 39 -75t84 -27q51 0 81.5 24.5t30.5 57.5q0 20 -26.5 35t-69 27t-93.5 26t-102.5 37.5t-94 55.5t-69 85.5t-26.5 122.5q0 120 98 203.5t260 83.5q176 0 275.5 -78t124.5 -209l-267 -21q-8 34 -38 58t-74 24q-46 0 -69 -19.5t-23 -51.5
q0 -20 26.5 -35.5t69 -27.5t94 -26.5t102.5 -37.5t93.5 -55t69 -85.5t26.5 -122.5q0 -121 -103.5 -208.5t-275.5 -87.5q-359 0 -410 307zM133 1055l205 266h246l204 -266h-235l-92 123l-92 -123h-236z" />
    <glyph glyph-name="Scedilla" unicode="&#x15e;" horiz-adv-x="1075" 
d="M358 -389v102l25 -6q28 -4 57 -4q52 0 77.5 19.5t25.5 52.5q0 25 -23.5 43t-68.5 18q-10 0 -22.5 -2.5t-20.5 -5.5l-9 -2l68 168q-189 17 -297.5 130.5t-108.5 285.5l287 20q0 -174 184 -174q83 0 129 38t46 95q0 39 -35 66.5t-91 46t-123.5 37.5t-135.5 48t-124 69.5
t-91 111t-35 164.5q0 73 32 139.5t90 117.5t145.5 81t192.5 30q204 0 327.5 -114.5t123.5 -294.5l-287 -21q0 78 -43 121t-121 43q-67 0 -110 -37t-43 -86q0 -37 35 -63t91 -43t123.5 -35.5t135.5 -48t124 -71t91 -113.5t35 -168q0 -149 -113.5 -254.5t-310.5 -122.5
l-37 -74q51 -9 86 -29q88 -47 88 -135q0 -74 -61 -119t-185 -45q-42 0 -88 11q-16 2 -35 10z" />
    <glyph glyph-name="scedilla" unicode="&#x15f;" horiz-adv-x="911" 
d="M297 -389v102l25 -6q28 -4 57 -4q52 0 77 19.5t25 52.5q0 25 -23.5 43t-68.5 18q-10 0 -22.5 -2.5t-20.5 -5.5l-8 -2l63 158q-297 32 -340 303l267 20q8 -48 39 -75t84 -27q51 0 81.5 24.5t30.5 57.5q0 20 -26.5 35t-69 27t-93.5 26t-102.5 37.5t-94 55.5t-69 85.5
t-26.5 122.5q0 120 98 203.5t260 83.5q176 0 275.5 -78t124.5 -209l-267 -21q-8 34 -38 58t-74 24q-46 0 -69 -19.5t-23 -51.5q0 -20 26.5 -35.5t69 -27.5t94 -26.5t102.5 -37.5t93.5 -55t69 -85.5t26.5 -122.5q0 -111 -90 -196.5t-238 -97.5l-30 -64q51 -9 86 -29
q88 -47 88 -135q0 -74 -61 -119t-185 -45q-42 0 -88 11q-16 2 -35 10z" />
    <glyph glyph-name="Scaron" unicode="&#x160;" horiz-adv-x="1075" 
d="M61 410l287 20q0 -174 184 -174q83 0 129 38t46 95q0 39 -35 66.5t-91 46t-123.5 37.5t-135.5 48t-124 69.5t-91 111t-35 164.5q0 73 32 139.5t90 117.5t145.5 81t192.5 30q204 0 327.5 -114.5t123.5 -294.5l-287 -21q0 78 -43 121t-121 43q-67 0 -110 -37t-43 -86
q0 -37 35 -63t91 -43t123.5 -35.5t135.5 -48t124 -71t91 -113.5t35 -168q0 -160 -130 -269.5t-352 -109.5q-219 0 -345 116t-126 304zM410 1423l-205 267h235l92 -123l93 123h235l-205 -267h-245z" />
    <glyph glyph-name="scaron" unicode="&#x161;" horiz-adv-x="911" 
d="M61 287l267 20q8 -48 39 -75t84 -27q51 0 81.5 24.5t30.5 57.5q0 20 -26.5 35t-69 27t-93.5 26t-102.5 37.5t-94 55.5t-69 85.5t-26.5 122.5q0 120 98 203.5t260 83.5q176 0 275.5 -78t124.5 -209l-267 -21q-8 34 -38 58t-74 24q-46 0 -69 -19.5t-23 -51.5
q0 -20 26.5 -35.5t69 -27.5t94 -26.5t102.5 -37.5t93.5 -55t69 -85.5t26.5 -122.5q0 -121 -103.5 -208.5t-275.5 -87.5q-359 0 -410 307zM338 1055l-205 266h236l92 -123l92 123h235l-204 -266h-246z" />
    <glyph glyph-name="Tcommaaccent" unicode="&#x162;" horiz-adv-x="1075" 
d="M389 0v1004h-369v286h1035v-286h-369v-1004h-297zM481 -594l-41 62q32 22 43 34q47 47 60 99q-62 0 -103 41t-41 102t41 102t103 41t102.5 -42.5t40.5 -110.5q0 -134 -102 -244q-49 -52 -103 -84z" />
    <glyph glyph-name="tcommaaccent" unicode="&#x163;" horiz-adv-x="747" 
d="M184 338v348h-143v236h72q112 0 112 112v133h236v-225h194v-256h-194v-307q0 -61 34 -97t89 -36q23 0 51 4l20 6v-246q-18 -7 -37 -10q-45 -10 -96 -10q-162 0 -250 89.5t-88 258.5zM369 -594l-41 62q32 22 43 34q46 46 59 99q-62 0 -102.5 40.5t-40.5 102.5t40.5 102.5
t102.5 40.5t102.5 -42.5t40.5 -110.5q0 -134 -102 -244q-50 -53 -102 -84z" />
    <glyph glyph-name="Tcaron" unicode="&#x164;" horiz-adv-x="1075" 
d="M389 0v1004h-369v286h1035v-286h-369v-1004h-297zM410 1423l-205 267h235l92 -123l93 123h235l-205 -267h-245z" />
    <glyph glyph-name="tcaron" unicode="&#x165;" horiz-adv-x="843" 
d="M618 1024l72 266h256l-133 -266h-195zM184 338v348h-143v236h72q112 0 112 112v133h236v-225h194v-256h-194v-307q0 -61 34 -97t89 -36q23 0 51 4l20 6v-246q-18 -7 -37 -10q-45 -10 -96 -10q-162 0 -250 89.5t-88 258.5z" />
    <glyph glyph-name="Tbar" unicode="&#x166;" horiz-adv-x="1075" 
d="M389 0v543h-184v235h184v226h-369v286h1035v-286h-369v-226h184v-235h-184v-543h-297z" />
    <glyph glyph-name="tbar" unicode="&#x167;" horiz-adv-x="747" 
d="M41 451v194h143v82h-143v195h72q112 0 112 112v133h236v-225h194v-215h-194v-82h194v-194h-194v-72q0 -61 34 -97t89 -36q23 0 51 4l20 6v-246q-18 -7 -37 -10q-45 -10 -96 -10q-162 0 -250 89.5t-88 258.5v113h-143z" />
    <glyph glyph-name="uni0168" unicode="&#x168;" horiz-adv-x="1269" 
d="M102 522v768h297v-768q0 -116 63 -181t173 -65q109 0 172 65t63 181v768h297v-768q0 -238 -147 -385t-385 -147t-385.5 147t-147.5 385zM471 1403l-154 20q0 125 51.5 190.5t133.5 65.5q52 0 95 -23t74.5 -46t55.5 -23q32 0 52 23.5t20 68.5l153 -20q0 -125 -51 -190.5
t-133 -65.5q-53 0 -95.5 23t-73.5 46t-56 23q-31 0 -51.5 -23.5t-20.5 -68.5z" />
    <glyph glyph-name="uni0169" unicode="&#x169;" 
d="M92 389v553h277v-502q0 -91 47.5 -142.5t126.5 -51.5t126.5 51.5t47.5 142.5v502h276v-942h-205l-40 92q-45 -35 -78 -51q-93 -51 -199 -51q-169 0 -274 108t-105 291zM379 1044l-154 21q0 125 51.5 190.5t133.5 65.5q52 0 95 -23t74.5 -46t55.5 -23q32 0 52 23.5
t20 68.5l153 -21q0 -125 -51 -190.5t-133 -65.5q-42 0 -78 14.5t-57 32t-45.5 32t-44.5 14.5q-31 0 -51.5 -24t-20.5 -69z" />
    <glyph glyph-name="Umacron" unicode="&#x16a;" horiz-adv-x="1269" 
d="M102 522v768h297v-768q0 -116 63 -181t173 -65q109 0 172 65t63 181v768h297v-768q0 -238 -147 -385t-385 -147t-385.5 147t-147.5 385zM369 1434v215h542v-215h-542z" />
    <glyph glyph-name="umacron" unicode="&#x16b;" 
d="M92 389v553h277v-502q0 -91 47.5 -142.5t126.5 -51.5t126.5 51.5t47.5 142.5v502h276v-942h-205l-40 92q-45 -35 -78 -51q-93 -51 -199 -51q-169 0 -274 108t-105 291zM276 1065v215h543v-215h-543z" />
    <glyph glyph-name="Ubreve" unicode="&#x16c;" horiz-adv-x="1269" 
d="M102 522v768h297v-768q0 -116 63 -181t173 -65q109 0 172 65t63 181v768h297v-768q0 -238 -147 -385t-385 -147t-385.5 147t-147.5 385zM338 1679h194q7 -47 35.5 -74.5t67.5 -27.5t67 27.5t35 74.5h195q-18 -118 -97.5 -192t-199.5 -74q-121 0 -200 73.5t-97 192.5z" />
    <glyph glyph-name="ubreve" unicode="&#x16d;" 
d="M92 389v553h277v-502q0 -91 47.5 -142.5t126.5 -51.5t126.5 51.5t47.5 142.5v502h276v-942h-205l-40 92q-45 -35 -78 -51q-93 -51 -199 -51q-169 0 -274 108t-105 291zM246 1311h194q7 -47 35.5 -75t67.5 -28t67 28t35 75h195q-18 -118 -97.5 -192.5t-199.5 -74.5
q-121 0 -200 74t-97 193z" />
    <glyph glyph-name="Uring" unicode="&#x16e;" horiz-adv-x="1269" 
d="M102 522v768h297v-768q0 -116 63 -181t173 -65q109 0 172 65t63 181v768h297v-768q0 -238 -147 -385t-385 -147t-385.5 147t-147.5 385zM707 1577q0 31 -20.5 51.5t-51.5 20.5t-51.5 -20.5t-20.5 -51.5t20.5 -51.5t51.5 -20.5t51.5 20.5t20.5 51.5zM430 1577
q0 87 56.5 141t148.5 54t148.5 -54t56.5 -141t-56.5 -141t-148.5 -54t-148.5 54t-56.5 141z" />
    <glyph glyph-name="uring" unicode="&#x16f;" 
d="M92 389v553h277v-502q0 -91 47.5 -142.5t126.5 -51.5t126.5 51.5t47.5 142.5v502h276v-942h-205l-40 92q-45 -35 -78 -51q-93 -51 -199 -51q-169 0 -274 108t-105 291zM614 1219q0 31 -20 51t-51 20t-51.5 -20t-20.5 -51t20.5 -51.5t51.5 -20.5t51 20.5t20 51.5z
M338 1219q0 87 56.5 140.5t148.5 53.5t148.5 -53.5t56.5 -140.5t-56.5 -141t-148.5 -54t-148.5 54t-56.5 141z" />
    <glyph glyph-name="Uhungarumlaut" unicode="&#x170;" horiz-adv-x="1269" 
d="M102 522v768h297v-768q0 -116 63 -181t173 -65q109 0 172 65t63 181v768h297v-768q0 -238 -147 -385t-385 -147t-385.5 147t-147.5 385zM338 1423l143 267h277l-205 -267h-215zM696 1423l144 267h276l-205 -267h-215z" />
    <glyph glyph-name="uhungarumlaut" unicode="&#x171;" 
d="M92 389v553h277v-502q0 -91 47.5 -142.5t126.5 -51.5t126.5 51.5t47.5 142.5v502h276v-942h-205l-40 92q-45 -35 -78 -51q-93 -51 -199 -51q-169 0 -274 108t-105 291zM246 1055l143 266h277l-205 -266h-215zM604 1055l144 266h276l-205 -266h-215z" />
    <glyph glyph-name="Uogonek" unicode="&#x172;" horiz-adv-x="1269" 
d="M850 -236v-133q-18 -7 -37 -10q-42 -10 -96 -10q-106 0 -165.5 51.5t-59.5 132.5q0 60 28.5 115.5t54.5 81.5q-214 17 -343.5 161.5t-129.5 368.5v768h297v-768q0 -116 63 -181t173 -65q109 0 172 65t63 181v768h297v-768q0 -210 -118 -352.5t-314 -171.5
q-59 -83 -59 -152q0 -38 27 -65t65 -27q31 0 59 4z" />
    <glyph glyph-name="uogonek" unicode="&#x173;" 
d="M92 389v553h277v-502q0 -91 47.5 -142.5t126.5 -51.5t126.5 51.5t47.5 142.5v502h276v-942h-51q-22 -33 -31 -51q-30 -58 -30 -103q0 -38 27 -65t65 -27q31 0 59 4l23 6v-133q-18 -7 -37 -10q-42 -10 -96 -10q-106 0 -166 51.5t-60 132.5q0 70 45 146q19 31 47 59l-40 92
q-45 -35 -78 -51q-93 -51 -199 -51q-169 0 -274 108t-105 291z" />
    <glyph glyph-name="Wcircumflex" unicode="&#x174;" horiz-adv-x="1761" 
d="M420 0l-410 1290h287l246 -798l245 798h185l246 -798l245 798h287l-410 -1290h-225l-235 758l-236 -758h-225zM553 1423l205 267h246l204 -267h-235l-92 123l-93 -123h-235z" />
    <glyph glyph-name="wcircumflex" unicode="&#x175;" horiz-adv-x="1433" 
d="M317 0l-317 942h287l164 -553l174 553h184l174 -553l164 553h287l-318 -942h-235l-164 522l-164 -522h-236zM389 1055l205 266h246l204 -266h-235l-92 123l-92 -123h-236z" />
    <glyph glyph-name="Ycircumflex" unicode="&#x176;" horiz-adv-x="1157" 
d="M430 0v481l-430 809h317l263 -512l260 512h317l-430 -809v-481h-297zM256 1423l205 267h246l204 -267h-235l-92 123l-92 -123h-236z" />
    <glyph glyph-name="ycircumflex" unicode="&#x177;" horiz-adv-x="1003" 
d="M164 -328v236q81 0 125 33t69 100l-358 901h297l205 -584l205 584h297l-379 -942q-73 -181 -157 -259.5t-212 -78.5q-25 0 -61 4zM184 1055l205 266h246l205 -266h-236l-92 123l-92 -123h-236z" />
    <glyph glyph-name="Ydieresis" unicode="&#x178;" horiz-adv-x="1157" 
d="M430 0v481l-430 809h317l263 -512l260 512h317l-430 -809v-481h-297zM246 1556q0 62 41 103t102 41t102 -41t41 -103t-41 -102.5t-102 -40.5t-102 40.5t-41 102.5zM625 1556q0 62 41 103t102 41t102 -41t41 -103t-40.5 -102.5t-102.5 -40.5t-102.5 40.5t-40.5 102.5z" />
    <glyph glyph-name="Zacute" unicode="&#x179;" horiz-adv-x="1085" 
d="M61 0v246l553 758h-532v286h911v-246l-553 -757h584v-287h-963zM430 1423l133 267h277l-195 -267h-215z" />
    <glyph glyph-name="zacute" unicode="&#x17a;" horiz-adv-x="890" 
d="M61 0v225l390 451h-390v266h748v-225l-389 -451h409v-266h-768zM328 1055l133 266h276l-194 -266h-215z" />
    <glyph glyph-name="Zdotaccent" unicode="&#x17b;" horiz-adv-x="1085" 
d="M61 0v246l553 758h-532v286h911v-246l-553 -757h584v-287h-963zM389 1567q0 61 46 107t108 46q61 0 107 -46t46 -107q0 -62 -46 -108t-107 -46t-107.5 46.5t-46.5 107.5z" />
    <glyph glyph-name="zdotaccent" unicode="&#x17c;" horiz-adv-x="890" 
d="M61 0v225l390 451h-390v266h748v-225l-389 -451h409v-266h-768zM297 1198q0 62 46.5 108t107.5 46t107 -46t46 -108t-46 -108t-107 -46t-107.5 46t-46.5 108z" />
    <glyph glyph-name="Zcaron" unicode="&#x17d;" horiz-adv-x="1085" 
d="M61 0v246l553 758h-532v286h911v-246l-553 -757h584v-287h-963zM420 1423l-205 267h236l92 -123l92 123h235l-204 -267h-246z" />
    <glyph glyph-name="zcaron" unicode="&#x17e;" horiz-adv-x="890" 
d="M61 0v225l390 451h-390v266h748v-225l-389 -451h409v-266h-768zM317 1055l-204 266h235l92 -123l92 123h236l-205 -266h-246z" />
    <glyph glyph-name="uni018F" unicode="&#x18f;" horiz-adv-x="1382" 
d="M72 717h952q-25 134 -117.5 220.5t-220.5 86.5q-72 0 -128 -22.5t-88.5 -54t-59.5 -77.5l-318 21q28 84 78 155.5t122 129.5t173.5 91t220.5 33q173 0 318.5 -86t231 -237t85.5 -332t-85.5 -332t-231 -237t-318.5 -86q-178 0 -320.5 82.5t-223.5 232.5t-81 340q0 16 5 51
zM1004 512h-625q18 -106 99.5 -176t207.5 -70q118 0 200 69t118 177z" />
    <glyph glyph-name="florin" unicode="&#x192;" horiz-adv-x="788" 
d="M-113 -317l62 245l20 -6q28 -4 51 -4q104 0 134 123l92 502h-154l51 266h154l12 68q11 75 19 106q32 158 122.5 237.5t256.5 79.5q53 0 98 -10q25 -7 45 -10l-62 -246l-20 4q-42 6 -51 6q-103 0 -133 -122q-3 -10 -8 -35l-7 -35l-6 -43h195l-51 -266h-195l-102 -563
q-30 -158 -121.5 -238t-257.5 -80q-47 0 -99 10q-13 2 -45 11z" />
    <glyph glyph-name="uni01A0" unicode="&#x1a0;" horiz-adv-x="1392" 
d="M1065 1178h51q38 0 60 20t22 51q0 34 -16 80l-15 33h174q11 -14 21 -37q20 -46 20 -96q0 -107 -88 -162q-46 -26 -86 -33q35 -47 62 -106q61 -134 61 -283q0 -181 -85.5 -332t-231 -237t-318.5 -86t-318.5 86t-231 237t-85.5 332t85.5 332t231 237t318.5 86
q145 0 269 -61q52 -25 100 -61zM696 276q141 0 239.5 105.5t98.5 263.5t-98.5 263.5t-239.5 105.5t-239.5 -105.5t-98.5 -263.5t98.5 -263.5t239.5 -105.5z" />
    <glyph glyph-name="uni01A1" unicode="&#x1a1;" horiz-adv-x="1126" 
d="M850 850h31q37 0 59.5 20.5t22.5 51.5q0 30 -17 79l-14 33h174q9 -11 20 -37q21 -48 21 -96q0 -109 -92 -162q-47 -24 -92 -32q16 -28 30 -64q31 -91 31 -172q0 -206 -140.5 -348.5t-340.5 -142.5t-341 142.5t-141 348.5t141 349t341 143q124 0 227 -58q41 -21 80 -55z
M543 236q88 0 146.5 64.5t58.5 170.5q0 107 -58.5 171.5t-146.5 64.5t-146.5 -64.5t-58.5 -171.5q0 -106 58.5 -170.5t146.5 -64.5z" />
    <glyph glyph-name="uni01AF" unicode="&#x1af;" horiz-adv-x="1443" 
d="M102 522v768h297v-768q0 -116 63 -181t173 -65q109 0 172 65t63 181v768h297v-112h31q38 0 60 20t22 51q0 34 -16 80l-15 33h174q11 -14 21 -37q20 -46 20 -96q0 -88 -59 -141.5t-166 -53.5q-19 0 -47 4l-25 6v-522q0 -238 -147 -385t-385 -147t-385.5 147t-147.5 385z
" />
    <glyph glyph-name="uni01B0" unicode="&#x1b0;" horiz-adv-x="1269" 
d="M92 389v553h277v-502q0 -91 47.5 -142.5t126.5 -51.5t126.5 51.5t47.5 142.5v502h276v-92h31q37 0 59.5 20.5t22.5 51.5q0 33 -16 79l-15 33h174q11 -14 21 -37q20 -46 20 -96q0 -88 -59 -141t-166 -53q-19 0 -47 4l-25 6v-717h-205l-40 92q-45 -35 -78 -51
q-93 -51 -199 -51q-169 0 -274 108t-105 291z" />
    <glyph glyph-name="Aringacute" unicode="&#x1fa;" horiz-adv-x="1208" 
d="M-10 0l461 1290h20q-72 57 -72 154q0 86 56.5 140t148.5 54t148.5 -54t56.5 -140q0 -98 -74 -154h23l461 -1290h-308l-82 246h-450l-82 -246h-307zM461 502h287l-144 430zM532 1679l113 226h277l-174 -226h-216zM604 1372q31 0 51.5 20.5t20.5 51.5t-20.5 51.5
t-51.5 20.5t-51.5 -20.5t-20.5 -51.5t20.5 -51.5t51.5 -20.5z" />
    <glyph glyph-name="aringacute" unicode="&#x1fb;" horiz-adv-x="993" 
d="M696 0l-41 92q-46 -36 -77 -51q-93 -51 -199 -51q-150 0 -234 73t-84 193q0 58 17 104.5t58 87t104.5 67.5t161 42.5t223.5 15.5q0 68 -34 106t-89 38q-64 0 -101 -47q-17 -23 -22 -45l-277 20q21 131 109.5 213.5t239.5 99.5q-67 17 -105.5 67.5t-38.5 121.5
q0 87 56.5 140.5t148.5 53.5t148.5 -53.5t56.5 -140.5q0 -71 -40 -121.5t-110 -67.5q149 -20 241.5 -126t92.5 -259v-573h-205zM399 1372l123 246h287l-184 -246h-226zM625 369v41q-114 0 -179.5 -16.5t-86.5 -42t-21 -64.5q0 -40 30.5 -66t82.5 -26q78 0 126 48t48 126z
M512 1075q31 0 51.5 20.5t20.5 51.5t-20.5 51.5t-51.5 20.5t-51.5 -20.5t-20.5 -51.5t20.5 -51.5t51.5 -20.5z" />
    <glyph glyph-name="AEacute" unicode="&#x1fc;" horiz-adv-x="1751" 
d="M-51 0l665 1290h1035v-286h-564v-205h512v-287h-512v-225h584v-287h-881v246h-378l-123 -246h-338zM553 532h235v472zM840 1423l133 267h276l-194 -267h-215z" />
    <glyph glyph-name="aeacute" unicode="&#x1fd;" horiz-adv-x="1607" 
d="M379 625l-277 20q26 147 128.5 232.5t281.5 85.5q131 0 229 -52q35 -18 68 -51q31 31 70 51q98 52 217 52q194 0 327 -139.5t133 -352.5q0 -17 -6 -65l-4 -27h-645q16 -43 39 -72q56 -71 156 -71q67 0 110 30q20 11 33 31l287 -21q-39 -124 -157 -210t-284 -86
q-129 0 -225 61q-47 29 -72 61q-36 -33 -90 -61q-116 -61 -258 -61q-176 0 -277.5 81t-101.5 195q0 58 17 104.5t58 87t104.5 67.5t161 42.5t223.5 15.5q0 68 -34 106t-89 38q-64 0 -101 -47q-17 -23 -22 -45zM901 563h369q-8 64 -59 109t-126 45t-125.5 -45t-58.5 -109z
M625 369v41q-114 0 -179.5 -16.5t-86.5 -42t-21 -64.5q0 -40 30.5 -66t82.5 -26q78 0 126 48t48 126zM676 1055l133 266h276l-194 -266h-215z" />
    <glyph glyph-name="Oslashacute" unicode="&#x1fe;" horiz-adv-x="1433" 
d="M246 0l-195 205l113 112q-25 48 -41 95q-41 105 -41 233q0 181 85.5 332t231 237t318.5 86q140 0 256 -57q51 -22 102 -55l113 102l194 -205l-112 -112q30 -58 41 -90q41 -102 41 -238q0 -181 -85.5 -332t-231 -237t-318.5 -86q-144 0 -256 55q-63 27 -103 57zM389 532
l471 451l-37 14q-53 17 -106 17q-141 0 -239.5 -105.5t-98.5 -263.5q0 -52 4 -88zM1044 758l-471 -451q1 -1 37 -16q47 -15 107 -15q141 0 239.5 105.5t98.5 263.5q0 32 -6 86q-1 3 -2.5 13.5t-2.5 13.5zM614 1423l134 267h276l-195 -267h-215z" />
    <glyph glyph-name="oslashacute" unicode="&#x1ff;" horiz-adv-x="1105" 
d="M195 0l-144 154l82 71q-22 43 -31 70q-30 81 -30 176q0 206 140.5 349t340.5 143q105 0 203 -48q33 -17 73 -45l82 72l144 -154l-82 -71l31 -74q30 -101 30 -172q0 -206 -140.5 -348.5t-340.5 -142.5q-111 0 -203 45q-41 21 -74 47zM358 410l287 276l-22 10
q-29 11 -70 11q-88 0 -146.5 -64.5t-58.5 -171.5q0 -15 4 -43zM748 532l-287 -276q12 -8 22 -10q27 -10 70 -10q88 0 146.5 64.5t58.5 170.5q0 1 -6 43zM451 1055l133 266h276l-194 -266h-215z" />
    <glyph glyph-name="Scommaaccent" unicode="&#x218;" horiz-adv-x="1075" 
d="M61 410l287 20q0 -174 184 -174q83 0 129 38t46 95q0 39 -35 66.5t-91 46t-123.5 37.5t-135.5 48t-124 69.5t-91 111t-35 164.5q0 73 32 139.5t90 117.5t145.5 81t192.5 30q204 0 327.5 -114.5t123.5 -294.5l-287 -21q0 78 -43 121t-121 43q-67 0 -110 -37t-43 -86
q0 -37 35 -63t91 -43t123.5 -35.5t135.5 -48t124 -71t91 -113.5t35 -168q0 -160 -130 -269.5t-352 -109.5q-219 0 -345 116t-126 304zM492 -594l-41 62q32 22 43 34q46 46 59 99q-61 0 -102 40.5t-41 102.5t41 102.5t102 40.5q62 0 102.5 -42.5t40.5 -110.5
q0 -134 -102 -244q-50 -53 -102 -84z" />
    <glyph glyph-name="scommaaccent" unicode="&#x219;" horiz-adv-x="911" 
d="M61 287l267 20q8 -48 39 -75t84 -27q51 0 81.5 24.5t30.5 57.5q0 20 -26.5 35t-69 27t-93.5 26t-102.5 37.5t-94 55.5t-69 85.5t-26.5 122.5q0 120 98 203.5t260 83.5q176 0 275.5 -78t124.5 -209l-267 -21q-8 34 -38 58t-74 24q-46 0 -69 -19.5t-23 -51.5
q0 -20 26.5 -35.5t69 -27.5t94 -26.5t102.5 -37.5t93.5 -55t69 -85.5t26.5 -122.5q0 -121 -103.5 -208.5t-275.5 -87.5q-359 0 -410 307zM399 -594l-41 62q31 22 43 34q47 47 60 99q-62 0 -103 41t-41 102t41 102t103 41t102.5 -42.5t40.5 -110.5q0 -134 -102 -244
q-49 -52 -103 -84z" />
    <glyph glyph-name="uni021A" unicode="&#x21a;" horiz-adv-x="1075" 
d="M389 0v1004h-369v286h1035v-286h-369v-1004h-297zM481 -594l-41 62q32 22 43 34q47 47 60 99q-62 0 -103 41t-41 102t41 102t103 41t102.5 -42.5t40.5 -110.5q0 -134 -102 -244q-49 -52 -103 -84z" />
    <glyph glyph-name="uni021B" unicode="&#x21b;" horiz-adv-x="747" 
d="M184 338v348h-143v236h72q112 0 112 112v133h236v-225h194v-256h-194v-307q0 -61 34 -97t89 -36q23 0 51 4l20 6v-246q-18 -7 -37 -10q-45 -10 -96 -10q-162 0 -250 89.5t-88 258.5zM369 -594l-41 62q32 22 43 34q46 46 59 99q-62 0 -102.5 40.5t-40.5 102.5t40.5 102.5
t102.5 40.5t102.5 -42.5t40.5 -110.5q0 -134 -102 -244q-50 -53 -102 -84z" />
    <glyph glyph-name="uni0232" unicode="&#x232;" horiz-adv-x="1157" 
d="M430 0v481l-430 809h317l263 -512l260 512h317l-430 -809v-481h-297zM307 1434v215h543v-215h-543z" />
    <glyph glyph-name="uni0233" unicode="&#x233;" horiz-adv-x="1003" 
d="M164 -328v236q81 0 125 33t69 100l-358 901h297l205 -584l205 584h297l-379 -942q-73 -181 -157 -259.5t-212 -78.5q-25 0 -61 4zM236 1065v215h542v-215h-542z" />
    <glyph glyph-name="uni0244" unicode="&#x244;" horiz-adv-x="1392" 
d="M20 666v235h144v389h297v-389h471v389h297v-389h143v-235h-143v-144q0 -238 -147.5 -385t-385.5 -147t-385 147t-147 385v144h-144zM461 666v-144q0 -116 63 -181t172 -65q110 0 173 65t63 181v144h-471z" />
    <glyph glyph-name="uni0259" unicode="&#x259;" horiz-adv-x="1054" 
d="M61 563h646q-19 59 -70.5 101.5t-124.5 42.5q-60 0 -111 -31q-17 -12 -32 -31l-287 21q40 126 154 211.5t286 85.5q126 0 234 -65t172.5 -178.5t64.5 -248.5q0 -206 -140.5 -348.5t-340.5 -142.5q-128 0 -232.5 60t-166.5 173t-62 258q0 25 4 61zM707 389h-390
q18 -66 69.5 -109.5t125.5 -43.5t125.5 43.5t69.5 109.5z" />
    <glyph glyph-name="uni0289" unicode="&#x289;" horiz-adv-x="1146" 
d="M20 471v205h103v266h276v-266h349v266h276v-266h102v-205h-102v-471h-205l-41 92q-45 -35 -78 -51q-93 -51 -198 -51q-169 0 -274 108t-105 291v82h-103zM399 471v-31q0 -91 47.5 -142.5t126.5 -51.5t127 51.5t48 142.5v31h-349z" />
    <glyph glyph-name="afii57929" unicode="&#x2bc;" horiz-adv-x="409" 
d="M143 829l-41 62q28 20 43 35q48 48 60 98q-62 0 -103 41t-41 102t41.5 102.5t102.5 41.5q62 0 102.5 -43t40.5 -111q0 -134 -102 -244q-49 -52 -103 -84z" />
    <glyph glyph-name="circumflex" unicode="&#x2c6;" horiz-adv-x="778" 
d="M61 1034l205 266h246l205 -266h-236l-92 123l-92 -123h-236z" />
    <glyph glyph-name="caron" unicode="&#x2c7;" horiz-adv-x="778" 
d="M266 1034l-205 266h236l92 -122l92 122h236l-205 -266h-246z" />
    <glyph glyph-name="breve" unicode="&#x2d8;" horiz-adv-x="716" 
d="M61 1300h195q7 -47 35 -74.5t67 -27.5t67.5 27.5t35.5 74.5h194q-18 -118 -97.5 -192t-199.5 -74q-122 0 -200.5 73.5t-96.5 192.5z" />
    <glyph glyph-name="dotaccent" unicode="&#x2d9;" horiz-adv-x="430" 
d="M61 1188q0 61 46 107t108 46t108 -46t46 -107q0 -62 -46.5 -108t-107.5 -46t-107.5 46t-46.5 108z" />
    <glyph glyph-name="ring" unicode="&#x2da;" horiz-adv-x="532" 
d="M338 1188q0 31 -20.5 51.5t-51.5 20.5t-51 -20.5t-20 -51.5t20 -51.5t51 -20.5t51.5 20.5t20.5 51.5zM61 1188q0 86 56.5 140t148.5 54t148.5 -54t56.5 -140q0 -87 -56.5 -141t-148.5 -54t-148.5 54t-56.5 141z" />
    <glyph glyph-name="ogonek" unicode="&#x2db;" horiz-adv-x="481" 
d="M154 0h153q-22 -33 -31 -51q-30 -58 -30 -103q0 -38 27 -65t65 -27q31 0 59 4l23 6v-133q-18 -7 -37 -10q-42 -10 -96 -10q-106 0 -166 51.5t-60 132.5q0 70 45 146q17 28 48 59z" />
    <glyph glyph-name="tilde" unicode="&#x2dc;" horiz-adv-x="757" 
d="M215 1034l-154 21q0 125 51.5 190.5t133.5 65.5q52 0 95 -23t74.5 -46t55.5 -23q32 0 52 23.5t20 68.5l153 -21q0 -125 -51 -190.5t-133 -65.5q-53 0 -95.5 23t-73.5 46t-56 23q-31 0 -51.5 -23.5t-20.5 -68.5z" />
    <glyph glyph-name="hungarumlaut" unicode="&#x2dd;" horiz-adv-x="901" 
d="M61 1034l144 266h276l-205 -266h-215zM420 1034l143 266h277l-205 -266h-215z" />
    <glyph glyph-name="acutecomb" unicode="&#x301;" horiz-adv-x="0" 
d="M-778 1423l133 267h276l-194 -267h-215z" />
    <glyph glyph-name="uni0309" unicode="&#x309;" horiz-adv-x="460" 
d="M61 1270v133l29 10q30 10 84 10q106 0 165.5 -51.5t59.5 -132.5q0 -74 -41 -129q-12 -16 -41 -45h-153q15 18 24 39q27 44 27 84q0 39 -28 65.5t-74 26.5q-13 0 -37 -6z" />
    <glyph glyph-name="uni030A" unicode="&#x30a;" horiz-adv-x="0" 
d="M-870 1567q0 87 56 140.5t148 53.5t148.5 -53.5t56.5 -140.5t-56.5 -141t-148.5 -54t-148 54t-56 141zM-666 1495q31 0 51.5 20.5t20.5 51.5t-20.5 51t-51.5 20t-51 -20t-20 -51t20 -51.5t51 -20.5z" />
    <glyph glyph-name="uni031B" unicode="&#x31b;" horiz-adv-x="419" 
d="M61 717v133h31q37 0 59.5 20.5t22.5 51.5q0 33 -16 79l-15 33h174q11 -14 21 -37q20 -46 20 -96q0 -88 -59 -141t-166 -53q-19 0 -47 4z" />
    <glyph glyph-name="uni0323" unicode="&#x323;" horiz-adv-x="430" 
d="M61 -225q0 61 46 107t108 46t108 -46t46 -107t-46.5 -107.5t-107.5 -46.5t-107.5 46.5t-46.5 107.5z" />
    <glyph glyph-name="uni0400" unicode="&#x400;" horiz-adv-x="1146" 
d="M123 0v1290h921v-286h-624v-205h573v-287h-573v-225h645v-287h-942zM512 1423l-195 267h277l133 -267h-215z" />
    <glyph glyph-name="afii10023" unicode="&#x401;" horiz-adv-x="1146" 
d="M123 0v1290h921v-286h-624v-205h573v-287h-573v-225h645v-287h-942zM266 1556q0 62 41 103t103 41q61 0 102 -41t41 -103t-40.5 -102.5t-102.5 -40.5t-103 41t-41 102zM645 1556q0 62 41 103t102 41q62 0 103 -41t41 -103q0 -61 -41 -102t-103 -41t-102.5 40.5
t-40.5 102.5z" />
    <glyph glyph-name="afii10051" unicode="&#x402;" horiz-adv-x="1351" 
d="M287 0v1004h-277v286h860v-286h-286v-267q29 32 69 56q86 57 207 57q195 0 312.5 -125.5t117.5 -345.5q0 -226 -136.5 -353.5t-395.5 -127.5v276q114 0 174.5 55t60.5 150q0 92 -56.5 148.5t-148.5 56.5t-148 -56.5t-56 -148.5v-379h-297z" />
    <glyph glyph-name="afii10052" unicode="&#x403;" horiz-adv-x="983" 
d="M123 0v1290h840v-286h-543v-1004h-297zM430 1423l133 267h277l-195 -267h-215z" />
    <glyph glyph-name="afii10053" unicode="&#x404;" horiz-adv-x="1320" 
d="M379 768h420v-246h-420q31 -105 116 -175.5t201 -70.5q195 0 277 164l307 -20q-23 -85 -73 -161.5t-122.5 -137t-173.5 -96t-215 -35.5q-173 0 -318.5 86t-231 237t-85.5 332t85.5 332t231 237t318.5 86q219 0 373 -126.5t201 -313.5l-307 -20q-78 174 -267 174
q-118 0 -204 -73t-113 -173z" />
    <glyph glyph-name="afii10054" unicode="&#x405;" horiz-adv-x="1075" 
d="M61 410l287 20q0 -174 184 -174q83 0 129 38t46 95q0 39 -35 66.5t-91 46t-123.5 37.5t-135.5 48t-124 69.5t-91 111t-35 164.5q0 73 32 139.5t90 117.5t145.5 81t192.5 30q204 0 327.5 -114.5t123.5 -294.5l-287 -21q0 78 -43 121t-121 43q-67 0 -110 -37t-43 -86
q0 -37 35 -63t91 -43t123.5 -35.5t135.5 -48t124 -71t91 -113.5t35 -168q0 -160 -130 -269.5t-352 -109.5q-219 0 -345 116t-126 304z" />
    <glyph glyph-name="afii10055" unicode="&#x406;" horiz-adv-x="542" 
d="M123 0v1290h297v-1290h-297z" />
    <glyph glyph-name="afii10056" unicode="&#x407;" horiz-adv-x="542" 
d="M123 0v1290h297v-1290h-297zM-61 1556q0 62 41 103t102 41t102 -41t41 -103t-40.5 -102.5t-102.5 -40.5t-102.5 40.5t-40.5 102.5zM317 1556q0 62 41.5 103t102.5 41t102 -41t41 -103t-41 -102.5t-102 -40.5q-62 0 -103 41t-41 102z" />
    <glyph glyph-name="afii10057" unicode="&#x408;" horiz-adv-x="993" 
d="M594 430v860h297v-860q0 -200 -120.5 -320t-319.5 -120q-198 0 -319.5 117t-121.5 303q103 4 185 12l112 8q0 -68 41 -111t103 -43t102.5 43t40.5 111z" />
    <glyph glyph-name="afii10058" unicode="&#x409;" horiz-adv-x="1884" 
d="M0 0v256h41q70 0 118.5 52t55.5 143l72 839h880v-409h215q198 0 329.5 -127.5t131.5 -313.5t-131.5 -313t-329.5 -127h-512v1004h-317l-51 -615q-17 -191 -117 -295t-262 -104q-40 0 -86 4zM1167 287h215q68 0 116 45.5t48 107.5t-48 108t-116 46h-215v-307z" />
    <glyph glyph-name="afii10059" unicode="&#x40a;" horiz-adv-x="1894" 
d="M123 0v1290h297v-409h461v409h297v-409h215q198 0 329 -127.5t131 -313.5t-131 -313t-329 -127h-512v594h-461v-594h-297zM1178 287h215q68 0 115.5 45.5t47.5 107.5t-47.5 108t-115.5 46h-215v-307z" />
    <glyph glyph-name="afii10060" unicode="&#x40b;" horiz-adv-x="1361" 
d="M287 0v1004h-277v286h860v-286h-286v-267q29 32 69 56q86 57 207 57q181 0 295.5 -126.5t114.5 -344.5v-379h-297v379q0 92 -54 148.5t-141 56.5q-86 0 -140 -56.5t-54 -148.5v-379h-297z" />
    <glyph glyph-name="afii10061" unicode="&#x40c;" horiz-adv-x="1157" 
d="M123 0v1290h297v-553l389 553h338l-455 -635l486 -655h-338l-420 573v-573h-297zM502 1423l133 267h276l-194 -267h-215z" />
    <glyph glyph-name="uni040D" unicode="&#x40d;" horiz-adv-x="1331" 
d="M123 0v1290h297v-768l522 768h266v-1290h-297v768l-522 -768h-266zM584 1423l-195 267h277l133 -267h-215z" />
    <glyph glyph-name="afii10062" unicode="&#x40e;" horiz-adv-x="1116" 
d="M154 0v266l26 -6q32 -4 66 -4q78 0 133 55q28 28 41 58l-420 921h307l256 -573l256 573h307l-409 -921q-99 -224 -189 -306.5t-241 -82.5q-49 0 -94 10q-22 3 -39 10zM266 1679h195q7 -47 35 -74.5t67 -27.5t67.5 27.5t35.5 74.5h194q-18 -118 -97.5 -192t-199.5 -74
q-121 0 -200 73.5t-97 192.5z" />
    <glyph glyph-name="afii10145" unicode="&#x40f;" horiz-adv-x="1320" 
d="M123 0v1290h297v-1003h481v1003h297v-1290h-389v-246h-297v246h-389z" />
    <glyph glyph-name="afii10017" unicode="&#x410;" horiz-adv-x="1208" 
d="M461 502h287l-144 430zM-10 0l461 1290h307l461 -1290h-308l-82 246h-450l-82 -246h-307z" />
    <glyph glyph-name="afii10018" unicode="&#x411;" horiz-adv-x="1187" 
d="M123 0v1290h901v-286h-604v-185h256q197 0 323.5 -119t126.5 -290t-126.5 -290.5t-323.5 -119.5h-553zM420 256h246q68 0 115.5 46t47.5 108t-47.5 107.5t-115.5 45.5h-246v-307z" />
    <glyph glyph-name="afii10019" unicode="&#x412;" horiz-adv-x="1187" 
d="M123 0v1290h553q174 0 286.5 -104.5t112.5 -253.5q0 -111 -78 -189q-38 -38 -75 -57q54 -25 102 -70q102 -98 102 -237q0 -157 -119 -268t-300 -111h-584zM420 778h225q61 0 102 39t41 94t-41 94t-102 39h-225v-266zM420 246h256q68 0 116 45.5t48 107.5t-48 108t-116 46
h-256v-307z" />
    <glyph glyph-name="afii10020" unicode="&#x413;" horiz-adv-x="983" 
d="M123 0v1290h840v-286h-543v-1004h-297z" />
    <glyph glyph-name="afii10021" unicode="&#x414;" horiz-adv-x="1341" 
d="M0 -246v533h82q32 14 59 41q61 62 74 164l92 798h860v-1003h144v-533h-297v246h-717v-246h-297zM399 287h471v717h-307l-61 -512q-12 -99 -60 -164q-18 -23 -43 -41z" />
    <glyph glyph-name="afii10022" unicode="&#x415;" horiz-adv-x="1146" 
d="M123 0v1290h921v-286h-624v-205h573v-287h-573v-225h645v-287h-942z" />
    <glyph glyph-name="afii10024" unicode="&#x416;" horiz-adv-x="1669" 
d="M-20 0l434 655l-404 635h338l338 -553v553h297v-553l338 553h338l-404 -635l435 -655h-338l-369 573v-573h-297v573l-369 -573h-337z" />
    <glyph glyph-name="afii10025" unicode="&#x417;" horiz-adv-x="1075" 
d="M41 389l297 21q19 -66 69.5 -110t124.5 -44q84 0 129.5 39.5t45.5 103.5q0 57 -46 95t-129 38h-133v246h123q83 0 123.5 33t40.5 90q0 56 -44.5 94.5t-119.5 38.5q-68 0 -112 -40t-52 -103l-297 20q8 167 135 278t336 111q200 0 325.5 -106.5t125.5 -251.5
q0 -117 -86 -203q-35 -35 -86 -63q52 -26 100 -70q103 -99 103 -248q0 -153 -128 -260.5t-343 -107.5q-222 0 -353 111.5t-149 287.5z" />
    <glyph glyph-name="afii10026" unicode="&#x418;" horiz-adv-x="1331" 
d="M123 0v1290h297v-768l522 768h266v-1290h-297v768l-522 -768h-266z" />
    <glyph glyph-name="afii10027" unicode="&#x419;" horiz-adv-x="1331" 
d="M123 0v1290h297v-768l522 768h266v-1290h-297v768l-522 -768h-266zM369 1679h194q7 -47 35.5 -74.5t67.5 -27.5t67 27.5t35 74.5h195q-18 -118 -97.5 -192t-199.5 -74q-122 0 -200.5 73.5t-96.5 192.5z" />
    <glyph glyph-name="afii10028" unicode="&#x41a;" horiz-adv-x="1157" 
d="M123 0v1290h297v-553l389 553h338l-455 -635l486 -655h-338l-420 573v-573h-297z" />
    <glyph glyph-name="afii10029" unicode="&#x41b;" horiz-adv-x="1320" 
d="M0 0v256h41q70 0 118.5 52t55.5 143l72 839h911v-1290h-297v1004h-348l-51 -615q-17 -191 -117 -295t-262 -104q-40 0 -86 4z" />
    <glyph glyph-name="afii10030" unicode="&#x41c;" horiz-adv-x="1617" 
d="M123 0v1290h266l420 -911l420 911h266v-1290h-297v645l-297 -645h-184l-297 645v-645h-297z" />
    <glyph glyph-name="afii10031" unicode="&#x41d;" horiz-adv-x="1331" 
d="M123 0v1290h297v-491h491v491h297v-1290h-297v512h-491v-512h-297z" />
    <glyph glyph-name="afii10032" unicode="&#x41e;" horiz-adv-x="1392" 
d="M696 276q141 0 239.5 105.5t98.5 263.5t-98.5 263.5t-239.5 105.5t-239.5 -105.5t-98.5 -263.5t98.5 -263.5t239.5 -105.5zM696 -10q-173 0 -318.5 86t-231 237t-85.5 332t85.5 332t231 237t318.5 86t318.5 -86t231 -237t85.5 -332t-85.5 -332t-231 -237t-318.5 -86z" />
    <glyph glyph-name="afii10033" unicode="&#x41f;" horiz-adv-x="1341" 
d="M123 0v1290h1096v-1290h-297v1004h-502v-1004h-297z" />
    <glyph glyph-name="afii10034" unicode="&#x420;" horiz-adv-x="1146" 
d="M123 0v1290h502q198 0 329 -127t131 -313t-131 -313t-329 -127h-205v-410h-297zM420 696h205q68 0 115.5 46t47.5 108t-47.5 108t-115.5 46h-205v-308z" />
    <glyph glyph-name="afii10035" unicode="&#x421;" horiz-adv-x="1331" 
d="M983 471l307 -20q-22 -93 -73.5 -176t-126 -146.5t-177 -101t-217.5 -37.5q-173 0 -318.5 86t-231 237t-85.5 332t85.5 332t231 237t318.5 86q147 0 272 -64.5t203.5 -167.5t108.5 -228l-307 -21q-27 84 -98 139.5t-179 55.5q-141 0 -239.5 -105.5t-98.5 -263.5
t98.5 -263.5t239.5 -105.5q116 0 189 55t98 140z" />
    <glyph glyph-name="afii10036" unicode="&#x422;" horiz-adv-x="1075" 
d="M389 0v1004h-369v286h1035v-286h-369v-1004h-297z" />
    <glyph glyph-name="afii10037" unicode="&#x423;" horiz-adv-x="1116" 
d="M154 0v266l26 -6q32 -4 66 -4q78 0 133 55q28 28 41 58l-420 921h307l256 -573l256 573h307l-409 -921q-99 -224 -189 -306.5t-241 -82.5q-49 0 -94 10q-22 3 -39 10z" />
    <glyph glyph-name="afii10038" unicode="&#x424;" horiz-adv-x="1546" 
d="M625 -10v153q-258 17 -416 164t-158 359t158 358.5t416 163.5v112h297v-112q258 -17 415.5 -163.5t157.5 -358.5t-157.5 -359t-415.5 -164v-153h-297zM625 420v491q-128 -7 -202.5 -75t-74.5 -170t74.5 -170.5t202.5 -75.5zM922 911v-491q128 7 202 75.5t74 170.5
t-74 170t-202 75z" />
    <glyph glyph-name="afii10039" unicode="&#x425;" horiz-adv-x="1187" 
d="M0 0l410 655l-390 635h328l246 -420l246 420h327l-389 -635l410 -655h-328l-266 440l-266 -440h-328z" />
    <glyph glyph-name="afii10040" unicode="&#x426;" horiz-adv-x="1351" 
d="M123 0v1290h297v-1003h461v1003h297v-1003h143v-533h-297v246h-901z" />
    <glyph glyph-name="afii10041" unicode="&#x427;" horiz-adv-x="1259" 
d="M840 0v430q-44 -24 -80 -37q-95 -35 -197 -35q-209 0 -335 126t-126 335v471h297v-450q0 -215 215 -215q81 0 158 30q35 11 68 31v604h297v-1290h-297z" />
    <glyph glyph-name="afii10042" unicode="&#x428;" horiz-adv-x="1792" 
d="M123 0v1290h297v-1003h328v1003h296v-1003h328v1003h297v-1290h-1546z" />
    <glyph glyph-name="afii10043" unicode="&#x429;" horiz-adv-x="1843" 
d="M123 0v1290h297v-1003h328v1003h296v-1003h328v1003h297v-1003h143v-533h-296v246h-1393z" />
    <glyph glyph-name="afii10044" unicode="&#x42a;" horiz-adv-x="1269" 
d="M256 0v1004h-256v286h553v-409h215q198 0 329.5 -127.5t131.5 -313.5t-131.5 -313t-329.5 -127h-512zM553 287h215q68 0 116 45.5t48 107.5t-48 108t-116 46h-215v-307z" />
    <glyph glyph-name="afii10045" unicode="&#x42b;" horiz-adv-x="1617" 
d="M123 0v1290h297v-409h194q198 0 329.5 -127.5t131.5 -313.5t-131.5 -313t-329.5 -127h-491zM420 287h194q68 0 116 45.5t48 107.5t-48 108t-116 46h-194v-307zM1198 0v1290h297v-1290h-297z" />
    <glyph glyph-name="afii10046" unicode="&#x42c;" horiz-adv-x="1136" 
d="M123 0v1290h297v-409h215q198 0 329.5 -127.5t131.5 -313.5t-131.5 -313t-329.5 -127h-512zM420 287h215q68 0 116 45.5t48 107.5t-48 108t-116 46h-215v-307z" />
    <glyph glyph-name="afii10047" unicode="&#x42d;" horiz-adv-x="1320" 
d="M41 420l307 20q82 -164 277 -164q118 0 199.5 69t117.5 177h-420v246h420q-27 100 -113 173t-204 73q-189 0 -267 -174l-307 20q47 187 201 313.5t373 126.5q173 0 318.5 -86t231 -237t85.5 -332t-85.5 -332t-231 -237t-318.5 -86q-114 0 -215 35.5t-173.5 96t-122.5 137
t-73 161.5z" />
    <glyph glyph-name="afii10048" unicode="&#x42e;" horiz-adv-x="1812" 
d="M123 0v1290h297v-512h133q25 144 106.5 262t209.5 189t278 71q122 0 232.5 -49.5t192.5 -135.5t130.5 -208.5t48.5 -261.5t-48.5 -261.5t-130.5 -208.5t-192.5 -135.5t-232.5 -49.5q-221 0 -379.5 143.5t-204.5 358.5h-143v-492h-297zM1147 276q127 0 217 102.5t90 266.5
t-90 266.5t-217 102.5t-217 -102.5t-90 -266.5t90 -266.5t217 -102.5z" />
    <glyph glyph-name="afii10049" unicode="&#x42f;" horiz-adv-x="1177" 
d="M31 0l297 502q-10 4 -25.5 12t-56.5 39t-72 70.5t-56.5 108.5t-25.5 149q0 171 127 290t324 119h512v-1290h-297v430h-154l-246 -430h-327zM543 717h215v287h-215q-76 0 -120 -40.5t-44 -103.5t44 -103t120 -40z" />
    <glyph glyph-name="afii10065" unicode="&#x430;" horiz-adv-x="993" 
d="M696 0l-41 92q-46 -36 -77 -51q-93 -51 -199 -51q-150 0 -234 73t-84 193q0 58 17 104.5t58 87t104.5 67.5t161 42.5t223.5 15.5q0 68 -34 106t-89 38q-64 0 -101 -47q-17 -23 -22 -45l-277 20q26 147 128.5 232.5t281.5 85.5q169 0 279 -110.5t110 -279.5v-573h-205z
M625 369v41q-114 0 -179.5 -16.5t-86.5 -42t-21 -64.5q0 -40 30.5 -66t82.5 -26q78 0 126 48t48 126z" />
    <glyph glyph-name="afii10066" unicode="&#x431;" horiz-adv-x="1105" 
d="M911 1331v-246q-151 -4 -254 -24t-167.5 -60.5t-98.5 -92.5t-53 -130q25 32 70 62q92 61 206 61q187 0 308.5 -127t121.5 -334q0 -194 -137 -327t-344 -133q-104 0 -193.5 40t-155.5 114.5t-104 187.5t-38 251q0 204 43 342.5t142.5 231.5t258.5 136.5t395 47.5zM563 236
q86 0 145.5 59t59.5 145t-59.5 145.5t-145.5 59.5t-145.5 -59.5t-59.5 -145.5t59.5 -145t145.5 -59z" />
    <glyph glyph-name="afii10067" unicode="&#x432;" horiz-adv-x="972" 
d="M102 0v942h482q144 0 225.5 -72t81.5 -184q0 -86 -57 -147q-26 -29 -56 -47q30 -16 72 -52q72 -80 72 -174q0 -109 -87 -187.5t-221 -78.5h-512zM379 573h143q92 0 92 82t-92 82h-143v-164zM379 205h174q38 0 65 27t27 65t-27 65t-65 27h-174v-184z" />
    <glyph glyph-name="afii10068" unicode="&#x433;" horiz-adv-x="798" 
d="M102 0v942h676v-266h-399v-676h-277z" />
    <glyph glyph-name="afii10069" unicode="&#x434;" horiz-adv-x="1075" 
d="M0 -205v471h66q26 10 45 29q46 46 53 115l61 532h707v-676h123v-471h-277v205h-502v-205h-276zM358 266h297v410h-194l-31 -266q-7 -66 -41 -115q-13 -18 -31 -29z" />
    <glyph glyph-name="afii10070" unicode="&#x435;" horiz-adv-x="1054" 
d="M686 297l287 -21q-40 -126 -154.5 -211t-286.5 -85q-126 0 -234 64.5t-172.5 178t-64.5 248.5q0 206 141 349t341 143q128 0 232.5 -60.5t166.5 -173.5t62 -258q0 -10 -1 -21t-3 -22.5t-3 -17.5l-4 -31h-645q19 -59 70.5 -101t124.5 -42q67 0 110 30q20 11 33 31z
M348 553h389q-19 66 -69.5 110t-124.5 44t-125 -44t-70 -110z" />
    <glyph glyph-name="afii10072" unicode="&#x436;" horiz-adv-x="1402" 
d="M-10 0l338 492l-318 450h318l235 -379v379h277v-379l235 379h318l-318 -450l338 -492h-317l-256 420v-420h-277v420l-256 -420h-317z" />
    <glyph glyph-name="afii10073" unicode="&#x437;" horiz-adv-x="901" 
d="M338 379v194h92q45 0 73.5 25t28.5 57t-28.5 57t-73.5 25q-52 0 -83.5 -25.5t-39.5 -66.5l-256 21q32 144 127.5 220.5t272.5 76.5q162 0 265 -87t103 -200q0 -95 -61 -156q-27 -24 -62 -39q28 -14 72 -49q72 -68 72 -156q0 -122 -106 -209t-283 -87q-178 0 -285 90
t-125 227q27 0 41 2q79 6 88 8l127 10q8 -49 44 -80.5t89 -31.5q59 0 91 26t32 66q0 33 -32.5 57.5t-90.5 24.5h-92z" />
    <glyph glyph-name="afii10074" unicode="&#x438;" 
d="M102 0v942h277v-522l358 522h256v-942h-276v522l-359 -522h-256z" />
    <glyph glyph-name="afii10075" unicode="&#x439;" 
d="M102 0v942h277v-522l358 522h256v-942h-276v522l-359 -522h-256zM256 1300h195q7 -47 35 -74.5t67 -27.5t67 27.5t35 74.5h195q-18 -118 -97.5 -192t-199.5 -74q-121 0 -200 73.5t-97 192.5z" />
    <glyph glyph-name="afii10076" unicode="&#x43a;" horiz-adv-x="972" 
d="M102 0v942h277v-379l256 379h317l-317 -450l348 -492h-317l-287 420v-420h-277z" />
    <glyph glyph-name="afii10077" unicode="&#x43b;" horiz-adv-x="1044" 
d="M0 0v236h31q62 0 89 28t34 105l51 573h737v-942h-276v676h-215l-31 -369q-12 -154 -98.5 -235.5t-239.5 -81.5q-31 0 -59 4z" />
    <glyph glyph-name="afii10078" unicode="&#x43c;" horiz-adv-x="1290" 
d="M102 0v942h277l266 -563l266 563h277v-942h-277v451l-215 -451h-102l-215 451v-451h-277z" />
    <glyph glyph-name="afii10079" unicode="&#x43d;" horiz-adv-x="1085" 
d="M102 0v942h277v-338h328v338h276v-942h-276v338h-328v-338h-277z" />
    <glyph glyph-name="afii10080" unicode="&#x43e;" horiz-adv-x="1085" 
d="M61 471q0 206 141 349t341 143t340.5 -143t140.5 -349t-140.5 -348.5t-340.5 -142.5t-341 142.5t-141 348.5zM748 471q0 107 -58.5 171.5t-146.5 64.5t-146.5 -64.5t-58.5 -171.5q0 -106 58.5 -170.5t146.5 -64.5t146.5 64.5t58.5 170.5z" />
    <glyph glyph-name="afii10081" unicode="&#x43f;" horiz-adv-x="1085" 
d="M102 0v942h881v-942h-276v676h-328v-676h-277z" />
    <glyph glyph-name="afii10082" unicode="&#x440;" horiz-adv-x="1116" 
d="M102 -328v1270h205l41 -92q36 32 72 51q96 51 194 51q88 0 168.5 -36.5t140.5 -99t96 -153t36 -192.5t-36 -192.5t-96 -153t-140.5 -99t-168.5 -36.5q-99 0 -172 41q-27 13 -63 41v-400h-277zM573 246q87 0 146 63t59 162t-59 162t-146 63t-145.5 -63t-58.5 -162
t58.5 -162t145.5 -63z" />
    <glyph glyph-name="afii10083" unicode="&#x441;" horiz-adv-x="1044" 
d="M717 369l276 -21q-28 -105 -84 -184q-132 -184 -366 -184q-200 0 -341 142.5t-141 348.5t141 349t341 143q233 0 366 -185q56 -79 84 -184l-276 -21q-15 38 -37 66q-56 68 -137 68q-88 0 -146.5 -64.5t-58.5 -171.5q0 -106 58.5 -170.5t146.5 -64.5q84 0 137 65
q23 29 37 68z" />
    <glyph glyph-name="afii10084" unicode="&#x442;" horiz-adv-x="870" 
d="M297 0v676h-277v266h830v-266h-277v-676h-276z" />
    <glyph glyph-name="afii10085" unicode="&#x443;" horiz-adv-x="1003" 
d="M164 -328v236q81 0 125 33t69 100l-358 901h297l205 -584l205 584h297l-379 -942q-73 -181 -157 -259.5t-212 -78.5q-25 0 -61 4z" />
    <glyph glyph-name="afii10086" unicode="&#x444;" horiz-adv-x="1546" 
d="M635 -328v369q-28 -20 -49 -27q-57 -24 -135 -24q-160 0 -275 133.5t-115 347.5t115 347.5t275 133.5q74 0 135 -26q26 -9 49 -25v389h276v-389q22 16 50 25q61 26 135 26q160 0 274.5 -133.5t114.5 -347.5t-114.5 -347.5t-274.5 -133.5q-78 0 -135 24q-23 8 -50 27v-369
h-276zM911 655v-368q16 -13 35 -21q46 -20 88 -20q73 0 123.5 60.5t50.5 164.5t-50.5 164.5t-123.5 60.5q-42 0 -88 -20q-19 -8 -35 -21zM635 287v368q-16 13 -35 21q-46 20 -88 20q-73 0 -123.5 -60.5t-50.5 -164.5t50.5 -164.5t123.5 -60.5q42 0 88 20q19 8 35 21z" />
    <glyph glyph-name="afii10087" unicode="&#x445;" horiz-adv-x="942" 
d="M-10 0l307 481l-287 461h307l154 -266l154 266h307l-287 -461l307 -481h-307l-174 287l-174 -287h-307z" />
    <glyph glyph-name="afii10088" unicode="&#x446;" horiz-adv-x="1105" 
d="M102 0v942h277v-676h307v676h277v-676h122v-471h-276v205h-707z" />
    <glyph glyph-name="afii10089" unicode="&#x447;" horiz-adv-x="1034" 
d="M655 0v297q-42 -21 -67 -27q-70 -24 -158 -24q-155 0 -251.5 100.5t-96.5 267.5v328h276v-287q0 -68 41 -110.5t103 -42.5q64 0 110 24q13 6 43 27v389h277v-942h-277z" />
    <glyph glyph-name="afii10090" unicode="&#x448;" horiz-adv-x="1464" 
d="M102 0v942h277v-676h215v676h276v-676h215v676h277v-942h-1260z" />
    <glyph glyph-name="afii10091" unicode="&#x449;" horiz-adv-x="1505" 
d="M102 0v942h277v-676h215v676h276v-676h215v676h277v-676h123v-471h-277v205h-1106z" />
    <glyph glyph-name="afii10092" unicode="&#x44a;" horiz-adv-x="1064" 
d="M215 0v676h-195v266h472v-287h194q145 0 241.5 -94t96.5 -233t-96.5 -233.5t-241.5 -94.5h-471zM492 225h143q53 0 83 27.5t30 75.5t-29.5 75t-83.5 27h-143v-205z" />
    <glyph glyph-name="afii10093" unicode="&#x44b;" horiz-adv-x="1351" 
d="M973 0v942h276v-942h-276zM102 0v942h277v-287h174q145 0 241.5 -94t96.5 -233t-96.5 -233.5t-241.5 -94.5h-451zM379 225h123q53 0 82.5 27.5t29.5 75.5t-29.5 75t-82.5 27h-123v-205z" />
    <glyph glyph-name="afii10094" unicode="&#x44c;" horiz-adv-x="952" 
d="M102 0v942h277v-287h194q145 0 241.5 -94t96.5 -233t-96.5 -233.5t-241.5 -94.5h-471zM379 225h143q53 0 83 27.5t30 75.5t-29.5 75t-83.5 27h-143v-205z" />
    <glyph glyph-name="afii10095" unicode="&#x44d;" horiz-adv-x="1034" 
d="M51 328l277 20q10 -30 34 -57q44 -55 130 -55q23 0 44 4t37 12t30.5 18t25 21.5t19 22.5t14 21t8.5 17.5t4 11.5l2 5h-266v194h266q-8 28 -35 72q-56 72 -149 72q-83 0 -130 -58q-22 -25 -34 -55l-277 20q29 101 82 174q128 175 359 175q200 0 340.5 -143t140.5 -349
t-140.5 -348.5t-340.5 -142.5q-225 0 -359 174q-55 76 -82 174z" />
    <glyph glyph-name="afii10096" unicode="&#x44e;" horiz-adv-x="1443" 
d="M102 0v942h277v-356h92q30 151 159 264t292 113q91 0 175.5 -38.5t147 -103.5t100 -157t37.5 -193q0 -135 -63.5 -248.5t-169 -178t-227.5 -64.5q-162 0 -282.5 103t-158.5 255h-102v-338h-277zM922 236q73 0 128.5 66t55.5 169t-56 169.5t-128 66.5q-73 0 -129 -66.5
t-56 -169.5t56 -169t129 -66z" />
    <glyph glyph-name="afii10097" unicode="&#x44f;" horiz-adv-x="993" 
d="M31 0l215 338q-43 22 -82 61q-82 86 -82 215q0 139 96.5 233.5t241.5 94.5h471v-942h-277v287h-112l-174 -287h-297zM471 512h164v205h-164q-53 0 -83 -27.5t-30 -75.5t29.5 -75t83.5 -27z" />
    <glyph glyph-name="uni0450" unicode="&#x450;" horiz-adv-x="1054" 
d="M686 297l287 -21q-40 -126 -154.5 -211t-286.5 -85q-126 0 -234 64.5t-172.5 178t-64.5 248.5q0 206 141 349t341 143q128 0 232.5 -60.5t166.5 -173.5t62 -258q0 -10 -1 -21t-3 -22.5t-3 -17.5l-4 -31h-645q19 -59 70.5 -101t124.5 -42q67 0 110 30q20 11 33 31z
M348 553h389q-19 66 -69.5 110t-124.5 44t-125 -44t-70 -110zM440 1055l-194 266h276l133 -266h-215z" />
    <glyph glyph-name="afii10071" unicode="&#x451;" horiz-adv-x="1054" 
d="M686 297l287 -21q-40 -126 -154.5 -211t-286.5 -85q-126 0 -234 64.5t-172.5 178t-64.5 248.5q0 206 141 349t341 143q128 0 232.5 -60.5t166.5 -173.5t62 -258q0 -10 -1 -21t-3 -22.5t-3 -17.5l-4 -31h-645q19 -59 70.5 -101t124.5 -42q67 0 110 30q20 11 33 31z
M348 553h389q-19 66 -69.5 110t-124.5 44t-125 -44t-70 -110zM205 1188q0 62 40.5 102.5t102.5 40.5t103 -41t41 -102q0 -62 -41 -103t-103 -41q-61 0 -102 41t-41 103zM584 1188q0 62 41 102.5t102 40.5t102 -40.5t41 -102.5t-41 -103t-102 -41t-102 41t-41 103z" />
    <glyph glyph-name="afii10099" unicode="&#x452;" horiz-adv-x="1126" 
d="M154 0v942h-144v225h144v123h276v-123h225v-225h-225v-184q34 34 64 51q88 51 202 51q167 0 268 -120t101 -351q0 -246 -129.5 -379t-362.5 -133v266q95 0 150 63t55 183q0 106 -46.5 160.5t-127.5 54.5q-79 0 -126.5 -51.5t-47.5 -142.5v-410h-276z" />
    <glyph glyph-name="afii10100" unicode="&#x453;" horiz-adv-x="798" 
d="M102 0v942h676v-266h-399v-676h-277zM328 1055l133 266h276l-194 -266h-215z" />
    <glyph glyph-name="afii10101" unicode="&#x454;" horiz-adv-x="1034" 
d="M358 563h267v-194h-267q15 -41 39 -68q61 -65 146 -65q79 0 127 55q24 28 37 57l276 -20q-27 -98 -82 -174q-134 -174 -358 -174q-200 0 -341 142.5t-141 348.5t141 349t341 143q230 0 358 -175q53 -73 82 -174l-276 -20q-15 30 -37 55q-51 58 -127 58q-94 0 -150 -72
q-27 -44 -35 -72z" />
    <glyph glyph-name="afii10102" unicode="&#x455;" horiz-adv-x="911" 
d="M61 287l267 20q8 -48 39 -75t84 -27q51 0 81.5 24.5t30.5 57.5q0 20 -26.5 35t-69 27t-93.5 26t-102.5 37.5t-94 55.5t-69 85.5t-26.5 122.5q0 120 98 203.5t260 83.5q176 0 275.5 -78t124.5 -209l-267 -21q-8 34 -38 58t-74 24q-46 0 -69 -19.5t-23 -51.5
q0 -20 26.5 -35.5t69 -27.5t94 -26.5t102.5 -37.5t93.5 -55t69 -85.5t26.5 -122.5q0 -121 -103.5 -208.5t-275.5 -87.5q-359 0 -410 307z" />
    <glyph glyph-name="afii10103" unicode="&#x456;" horiz-adv-x="481" 
d="M102 0v942h277v-942h-277zM92 1198q0 62 46 108t108 46q61 0 107 -46t46 -108t-46 -108t-107 -46q-62 0 -108 46t-46 108z" />
    <glyph glyph-name="afii10104" unicode="&#x457;" horiz-adv-x="481" 
d="M123 0v942h276v-942h-276zM-72 1188q0 61 41 102t103 41t102.5 -40.5t40.5 -102.5t-41 -103t-102 -41q-62 0 -103 41t-41 103zM307 1188q0 61 41 102t103 41q61 0 102 -40.5t41 -102.5t-41 -103t-102 -41t-102.5 41t-41.5 103z" />
    <glyph glyph-name="afii10105" unicode="&#x458;" horiz-adv-x="481" 
d="M-92 -317v245l20 -6q28 -4 52 -4q55 0 88.5 36t33.5 97v891h277v-932q0 -169 -88 -258.5t-250 -89.5q-49 0 -94 10q-18 3 -39 11zM92 1198q0 62 46 108t108 46q61 0 107 -46t46 -108t-46 -108t-107 -46q-62 0 -108 46t-46 108z" />
    <glyph glyph-name="afii10106" unicode="&#x459;" horiz-adv-x="1464" 
d="M0 0v236h31q62 0 89 28t34 105l51 573h696v-307h184q144 0 241 -93.5t97 -224.5t-97 -224t-241 -93h-460v676h-174l-31 -369q-12 -154 -98.5 -235.5t-239.5 -81.5q-31 0 -59 4zM901 225h133q52 0 82.5 26t30.5 66t-30.5 66.5t-82.5 26.5h-133v-185z" />
    <glyph glyph-name="afii10107" unicode="&#x45a;" horiz-adv-x="1546" 
d="M102 0v942h277v-307h328v307h276v-307h184q144 0 241 -93.5t97 -224.5t-97 -224t-241 -93h-460v369h-328v-369h-277zM983 225h133q52 0 82.5 26t30.5 66t-30.5 66.5t-82.5 26.5h-133v-185z" />
    <glyph glyph-name="afii10108" unicode="&#x45b;" horiz-adv-x="1146" 
d="M154 0v942h-144v225h144v123h276v-123h225v-225h-225v-184q34 34 64 51q88 51 202 51q157 0 258 -109t101 -290v-461h-277v410q0 91 -47.5 142.5t-126.5 51.5t-126.5 -51.5t-47.5 -142.5v-410h-276z" />
    <glyph glyph-name="afii10109" unicode="&#x45c;" horiz-adv-x="921" 
d="M102 0v942h277v-379l256 379h317l-317 -450l348 -492h-317l-287 420v-420h-277zM389 1055l133 266h277l-195 -266h-215z" />
    <glyph glyph-name="uni045D" unicode="&#x45d;" 
d="M102 0v942h277v-522l358 522h256v-942h-276v522l-359 -522h-256zM461 1055l-195 266h277l133 -266h-215z" />
    <glyph glyph-name="afii10110" unicode="&#x45e;" horiz-adv-x="1003" 
d="M164 -328v236q81 0 125 33t69 100l-358 901h297l205 -584l205 584h297l-379 -942q-73 -181 -157 -259.5t-212 -78.5q-25 0 -61 4zM205 1300h194q7 -47 35.5 -74.5t67.5 -27.5t67 27.5t35 74.5h195q-18 -118 -97.5 -192t-199.5 -74q-122 0 -200.5 73.5t-96.5 192.5z" />
    <glyph glyph-name="afii10193" unicode="&#x45f;" horiz-adv-x="1075" 
d="M102 0v942h277v-676h317v676h277v-942h-297v-205h-277v205h-297z" />
    <glyph glyph-name="afii10050" unicode="&#x490;" horiz-adv-x="983" 
d="M123 0v1290h543v226h297v-512h-543v-1004h-297z" />
    <glyph glyph-name="afii10098" unicode="&#x491;" horiz-adv-x="798" 
d="M102 0v942h400v174h276v-440h-399v-676h-277z" />
    <glyph glyph-name="uni0492" unicode="&#x492;" horiz-adv-x="1054" 
d="M184 0v481h-143v256h143v553h840v-286h-543v-267h400v-256h-400v-481h-297z" />
    <glyph glyph-name="uni0493" unicode="&#x493;" horiz-adv-x="829" 
d="M123 0v297h-113v215h113v430h676v-266h-400v-164h287v-215h-287v-297h-276z" />
    <glyph glyph-name="uni0494" unicode="&#x494;" horiz-adv-x="1187" 
d="M123 0v1290h840v-276h-543v-277q29 32 69 56q86 57 207 57q195 0 312.5 -125.5t117.5 -345.5q0 -226 -136.5 -353.5t-395.5 -127.5v276q114 0 174.5 55t60.5 150q0 92 -56 148.5t-148 56.5t-148.5 -56.5t-56.5 -148.5v-379h-297z" />
    <glyph glyph-name="uni0495" unicode="&#x495;" horiz-adv-x="993" 
d="M102 0v942h676v-266h-399v-215q28 20 53 31q75 30 162 30q151 0 254.5 -117.5t103.5 -312.5q0 -217 -121.5 -339t-338.5 -122v267q86 0 135 49t49 135q0 74 -44 124t-100 50q-69 0 -111 -42.5t-42 -111.5v-102h-277z" />
    <glyph glyph-name="uni0496" unicode="&#x496;" horiz-adv-x="1669" 
d="M-20 0l434 655l-404 635h338l338 -553v553h297v-553l338 553h338l-404 -635l244 -368h211v-533h-297v246h-61l-369 573v-573h-297v573l-369 -573h-337z" />
    <glyph glyph-name="uni0497" unicode="&#x497;" horiz-adv-x="1433" 
d="M-10 0l338 492l-318 450h318l235 -379v379h277v-379l235 379h318l-318 -450l154 -226h194v-471h-276v205h-51l-256 420v-420h-277v420l-256 -420h-317z" />
    <glyph glyph-name="uni049A" unicode="&#x49a;" horiz-adv-x="1167" 
d="M123 0v1290h297v-553l389 553h338l-455 -635l273 -368h223v-533h-297v246h-51l-420 573v-573h-297z" />
    <glyph glyph-name="uni049B" unicode="&#x49b;" horiz-adv-x="1003" 
d="M102 0v942h277v-379l256 379h317l-317 -450l160 -226h198v-471h-276v205h-51l-287 420v-420h-277z" />
    <glyph glyph-name="uni049C" unicode="&#x49c;" horiz-adv-x="1341" 
d="M123 0v1290h297v-522h61v164h164v-164h31l297 522h338l-389 -635l440 -655h-338l-348 522h-31v-153h-164v153h-61v-522h-297z" />
    <glyph glyph-name="uni049D" unicode="&#x49d;" horiz-adv-x="1075" 
d="M102 0v942h277v-338h41v154h123v-154h20l174 338h307l-266 -450l307 -492h-307l-215 369h-20v-154h-123v154h-41v-369h-277z" />
    <glyph glyph-name="uni04A2" unicode="&#x4a2;" horiz-adv-x="1392" 
d="M123 0v1290h297v-491h491v491h297v-1003h144v-533h-297v246h-144v512h-491v-512h-297z" />
    <glyph glyph-name="uni04A3" unicode="&#x4a3;" horiz-adv-x="1126" 
d="M102 0v942h277v-338h328v338h276v-676h123v-471h-277v205h-122v338h-328v-338h-277z" />
    <glyph glyph-name="uni04AE" unicode="&#x4ae;" horiz-adv-x="1157" 
d="M430 0v481l-430 809h317l263 -512l260 512h317l-430 -809v-481h-297z" />
    <glyph glyph-name="uni04AF" unicode="&#x4af;" horiz-adv-x="1003" 
d="M362 -328v348l-362 922h297l205 -614l205 614h297l-365 -922v-348h-277z" />
    <glyph glyph-name="uni04B0" unicode="&#x4b0;" horiz-adv-x="1157" 
d="M430 0v317h-276v236h237l-391 737h317l263 -512l260 512h317l-393 -737h240v-236h-277v-317h-297z" />
    <glyph glyph-name="uni04B1" unicode="&#x4b1;" horiz-adv-x="1003" 
d="M154 -164v184h208l-362 922h297l205 -614l205 614h297l-365 -922h211v-184h-211v-164h-277v164h-208z" />
    <glyph glyph-name="uni04B2" unicode="&#x4b2;" horiz-adv-x="1198" 
d="M0 0l410 655l-390 635h328l246 -420l246 420h327l-389 -635l230 -368h190v-533h-297v246h-41l-266 440l-266 -440h-328z" />
    <glyph glyph-name="uni04B3" unicode="&#x4b3;" horiz-adv-x="983" 
d="M-10 0l307 481l-287 461h307l154 -266l154 266h307l-287 -461l137 -215h191v-471h-277v205h-51l-174 287l-174 -287h-307z" />
    <glyph glyph-name="uni04B6" unicode="&#x4b6;" horiz-adv-x="1310" 
d="M983 -246v246h-143v430q-44 -24 -80 -37q-95 -35 -197 -35q-209 0 -335 126t-126 335v471h297v-450q0 -215 215 -215q81 0 158 30q35 11 68 31v604h297v-1003h143v-533h-297z" />
    <glyph glyph-name="uni04B7" unicode="&#x4b7;" horiz-adv-x="1075" 
d="M778 -205v205h-123v297q-42 -21 -67 -27q-70 -24 -158 -24q-155 0 -251.5 100.5t-96.5 267.5v328h276v-287q0 -68 41 -110.5t103 -42.5q64 0 110 24q13 6 43 27v389h277v-676h123v-471h-277z" />
    <glyph glyph-name="uni04B8" unicode="&#x4b8;" horiz-adv-x="1271" 
d="M532 174v184q-195 7 -312.5 134t-117.5 327v471h297v-450q0 -169 133 -207v176h164v-176q63 12 103 33q31 13 41 20v604h297v-1290h-297v430q-10 -7 -41 -20q-45 -21 -103 -35v-201h-164z" />
    <glyph glyph-name="uni04B9" unicode="&#x4b9;" horiz-adv-x="1034" 
d="M440 113v133h-10q-155 0 -251.5 100.5t-96.5 267.5v328h276v-287q0 -50 22 -86.5t60 -54.5v152h133v-154q22 5 60 27l22 14v389h277v-942h-277v297l-22 -10q-32 -14 -60 -21v-153h-133z" />
    <glyph glyph-name="uni04BA" unicode="&#x4ba;" horiz-adv-x="1259" 
d="M123 0v1290h297v-430q55 26 80 35q101 37 196 37q209 0 335 -126t126 -335v-471h-297v451q0 215 -215 215q-69 0 -160 -31q-33 -13 -65 -31v-604h-297z" />
    <glyph glyph-name="uni04BB" unicode="&#x4bb;" 
d="M102 0v1290h277v-440q36 36 63 51q88 51 203 51q157 0 258 -109t101 -290v-553h-277v502q0 91 -47.5 142.5t-126.5 51.5t-126.5 -51.5t-47.5 -142.5v-502h-277z" />
    <glyph glyph-name="uni04C1" unicode="&#x4c1;" horiz-adv-x="1669" 
d="M-20 0l434 655l-404 635h338l338 -553v553h297v-553l338 553h338l-404 -635l435 -655h-338l-369 573v-573h-297v573l-369 -573h-337zM543 1679h194q7 -47 35.5 -74.5t67.5 -27.5t67 27.5t35 74.5h195q-18 -118 -97.5 -192t-199.5 -74q-122 0 -200.5 73.5t-96.5 192.5z
" />
    <glyph glyph-name="uni04C2" unicode="&#x4c2;" horiz-adv-x="1402" 
d="M-10 0l338 492l-318 450h318l235 -379v379h277v-379l235 379h318l-318 -450l338 -492h-317l-256 420v-420h-277v420l-256 -420h-317zM399 1311h195q7 -47 35.5 -75t66.5 -28q39 0 67.5 28t35.5 75h194q-18 -118 -97.5 -192.5t-199.5 -74.5q-121 0 -200 74t-97 193z" />
    <glyph glyph-name="uni04D2" unicode="&#x4d2;" horiz-adv-x="1208" 
d="M461 502h287l-144 430zM-10 0l461 1290h307l461 -1290h-308l-82 246h-450l-82 -246h-307zM272 1556q0 62 41 103t103 41q61 0 102 -41t41 -103t-40.5 -102.5t-102.5 -40.5t-103 41t-41 102zM651 1556q0 62 41.5 103t102.5 41t102 -41t41 -103t-41 -102.5t-102 -40.5
q-62 0 -103 41t-41 102z" />
    <glyph glyph-name="uni04D3" unicode="&#x4d3;" horiz-adv-x="993" 
d="M696 0l-41 92q-46 -36 -77 -51q-93 -51 -199 -51q-150 0 -234 73t-84 193q0 58 17 104.5t58 87t104.5 67.5t161 42.5t223.5 15.5q0 68 -34 106t-89 38q-64 0 -101 -47q-17 -23 -22 -45l-277 20q26 147 128.5 232.5t281.5 85.5q169 0 279 -110.5t110 -279.5v-573h-205z
M625 369v41q-114 0 -179.5 -16.5t-86.5 -42t-21 -64.5q0 -40 30.5 -66t82.5 -26q78 0 126 48t48 126zM190 1188q0 61 41 102t103 41t102.5 -40.5t40.5 -102.5t-41 -103t-102 -41q-62 0 -103 41t-41 103zM569 1188q0 61 41 102t103 41q61 0 102 -40.5t41 -102.5t-41 -103
t-102 -41t-102.5 41t-41.5 103z" />
    <glyph glyph-name="uni04D8" unicode="&#x4d8;" horiz-adv-x="1382" 
d="M72 717h952q-25 134 -117.5 220.5t-220.5 86.5q-72 0 -128 -22.5t-88.5 -54t-59.5 -77.5l-318 21q28 84 78 155.5t122 129.5t173.5 91t220.5 33q173 0 318.5 -86t231 -237t85.5 -332t-85.5 -332t-231 -237t-318.5 -86q-178 0 -320.5 82.5t-223.5 232.5t-81 340q0 16 5 51
zM1004 512h-625q18 -106 99.5 -176t207.5 -70q118 0 200 69t118 177z" />
    <glyph glyph-name="uni04D9" unicode="&#x4d9;" horiz-adv-x="1054" 
d="M61 563h646q-19 59 -70.5 101.5t-124.5 42.5q-60 0 -111 -31q-17 -12 -32 -31l-287 21q40 126 154 211.5t286 85.5q126 0 234 -65t172.5 -178.5t64.5 -248.5q0 -206 -140.5 -348.5t-340.5 -142.5q-128 0 -232.5 60t-166.5 173t-62 258q0 25 4 61zM707 389h-390
q18 -66 69.5 -109.5t125.5 -43.5t125.5 43.5t69.5 109.5z" />
    <glyph glyph-name="uni04E0" unicode="&#x4e0;" horiz-adv-x="1085" 
d="M31 389l297 21q10 -57 60 -105.5t144 -48.5q83 0 134 45t51 109q0 63 -54.5 113t-130.5 50h-194v195l266 246h-512v276h881v-246l-266 -235q122 -18 224.5 -135t102.5 -264q0 -107 -62.5 -202.5t-179.5 -156.5t-260 -61q-222 0 -352.5 111.5t-148.5 287.5z" />
    <glyph glyph-name="uni04E1" unicode="&#x4e1;" horiz-adv-x="942" 
d="M10 10l277 21q8 -63 52.5 -103.5t111.5 -40.5q77 0 125.5 47t48.5 117q0 79 -50 126.5t-135 47.5h-194v174l286 287h-481v256h809v-246l-266 -266q131 -34 219 -135t88 -244q0 -172 -123.5 -285.5t-326.5 -113.5q-187 0 -301 98.5t-140 259.5z" />
    <glyph glyph-name="uni04E2" unicode="&#x4e2;" horiz-adv-x="1331" 
d="M123 0v1290h297v-768l522 768h266v-1290h-297v768l-522 -768h-266zM399 1434v215h543v-215h-543z" />
    <glyph glyph-name="uni04E3" unicode="&#x4e3;" 
d="M102 0v942h277v-522l358 522h256v-942h-276v522l-359 -522h-256zM266 1065v215h543v-215h-543z" />
    <glyph glyph-name="uni04E6" unicode="&#x4e6;" horiz-adv-x="1392" 
d="M696 276q141 0 239.5 105.5t98.5 263.5t-98.5 263.5t-239.5 105.5t-239.5 -105.5t-98.5 -263.5t98.5 -263.5t239.5 -105.5zM696 -10q-173 0 -318.5 86t-231 237t-85.5 332t85.5 332t231 237t318.5 86t318.5 -86t231 -237t85.5 -332t-85.5 -332t-231 -237t-318.5 -86z
M369 1556q0 62 41 103t102 41t102 -41t41 -103t-40.5 -102.5t-102.5 -40.5t-102.5 40.5t-40.5 102.5zM748 1556q0 62 41 103t102 41t102 -41t41 -103t-41 -102.5t-102 -40.5t-102 40.5t-41 102.5z" />
    <glyph glyph-name="uni04E7" unicode="&#x4e7;" horiz-adv-x="1085" 
d="M61 471q0 206 141 349t341 143t340.5 -143t140.5 -349t-140.5 -348.5t-340.5 -142.5t-341 142.5t-141 348.5zM748 471q0 107 -58.5 171.5t-146.5 64.5t-146.5 -64.5t-58.5 -171.5q0 -106 58.5 -170.5t146.5 -64.5t146.5 64.5t58.5 170.5zM215 1188q0 62 40.5 102.5
t102.5 40.5t103 -41t41 -102q0 -62 -41 -103t-103 -41q-61 0 -102 41t-41 103zM594 1188q0 62 41 102.5t102 40.5q62 0 103 -41t41 -102q0 -62 -41.5 -103t-102.5 -41t-102 41t-41 103z" />
    <glyph glyph-name="uni04E8" unicode="&#x4e8;" horiz-adv-x="1392" 
d="M696 -10q-173 0 -318.5 86t-231 237t-85.5 332t85.5 332t231 237t318.5 86t318.5 -86t231 -237t85.5 -332t-85.5 -332t-231 -237t-318.5 -86zM369 758h655q-27 107 -114 181.5t-214 74.5t-213.5 -74.5t-113.5 -181.5zM1024 532h-655q27 -107 113.5 -181.5t213.5 -74.5
t214 74.5t114 181.5z" />
    <glyph glyph-name="uni04E9" unicode="&#x4e9;" horiz-adv-x="1085" 
d="M338 553h410q-18 73 -70.5 118.5t-134.5 45.5t-134.5 -45.5t-70.5 -118.5zM748 389h-410q18 -73 70.5 -118.5t134.5 -45.5t134.5 45.5t70.5 118.5zM61 471q0 206 141 349t341 143t340.5 -143t140.5 -349t-140.5 -348.5t-340.5 -142.5t-341 142.5t-141 348.5z" />
    <glyph glyph-name="uni04EE" unicode="&#x4ee;" horiz-adv-x="1130" 
d="M154 0v266l26 -6q32 -4 66 -4q78 0 133 55q28 28 41 58l-420 921h307l256 -573l256 573h307l-409 -921q-99 -224 -189 -306.5t-241 -82.5q-49 0 -94 10q-22 3 -39 10zM297 1434v215h543v-215h-543z" />
    <glyph glyph-name="uni04EF" unicode="&#x4ef;" horiz-adv-x="1003" 
d="M164 -328v236q81 0 125 33t69 100l-358 901h297l205 -584l205 584h297l-379 -942q-73 -181 -157 -259.5t-212 -78.5q-25 0 -61 4zM236 1065v215h542v-215h-542z" />
    <glyph glyph-name="uni04F0" unicode="&#x4f0;" horiz-adv-x="1130" 
d="M154 0v266l26 -6q32 -4 66 -4q78 0 133 55q28 28 41 58l-420 921h307l256 -573l256 573h307l-409 -921q-99 -224 -189 -306.5t-241 -82.5q-49 0 -94 10q-22 3 -39 10zM236 1556q0 62 41 103t102 41t102 -41t41 -103t-41 -102.5t-102 -40.5t-102 40.5t-41 102.5zM614 1556
q0 62 41 103t103 41q61 0 102 -41t41 -103t-40.5 -102.5t-102.5 -40.5t-103 41t-41 102z" />
    <glyph glyph-name="uni04F1" unicode="&#x4f1;" horiz-adv-x="1003" 
d="M164 -328v236q81 0 125 33t69 100l-358 901h297l205 -584l205 584h297l-379 -942q-73 -181 -157 -259.5t-212 -78.5q-25 0 -61 4zM184 1188q0 61 41 102t103 41t102.5 -40.5t40.5 -102.5t-41 -103t-102 -41q-62 0 -103 41t-41 103zM563 1188q0 61 41 102t103 41
q61 0 102 -40.5t41 -102.5t-41 -103t-102 -41t-102.5 41t-41.5 103z" />
    <glyph glyph-name="Wgrave" unicode="&#x1e80;" horiz-adv-x="1761" 
d="M420 0l-410 1290h287l246 -798l245 798h185l246 -798l245 798h287l-410 -1290h-225l-235 758l-236 -758h-225zM768 1423l-195 267h277l133 -267h-215z" />
    <glyph glyph-name="wgrave" unicode="&#x1e81;" horiz-adv-x="1433" 
d="M317 0l-317 942h287l164 -553l174 553h184l174 -553l164 553h287l-318 -942h-235l-164 522l-164 -522h-236zM604 1055l-194 266h276l133 -266h-215z" />
    <glyph glyph-name="Wacute" unicode="&#x1e82;" horiz-adv-x="1761" 
d="M420 0l-410 1290h287l246 -798l245 798h185l246 -798l245 798h287l-410 -1290h-225l-235 758l-236 -758h-225zM768 1423l133 267h277l-195 -267h-215z" />
    <glyph glyph-name="wacute" unicode="&#x1e83;" horiz-adv-x="1433" 
d="M317 0l-317 942h287l164 -553l174 553h184l174 -553l164 553h287l-318 -942h-235l-164 522l-164 -522h-236zM614 1055l134 266h276l-195 -266h-215z" />
    <glyph glyph-name="Wdieresis" unicode="&#x1e84;" horiz-adv-x="1761" 
d="M420 0l-410 1290h287l246 -798l245 798h185l246 -798l245 798h287l-410 -1290h-225l-235 758l-236 -758h-225zM543 1556q0 62 41 103t102 41t102 -41t41 -103t-40.5 -102.5t-102.5 -40.5t-102.5 40.5t-40.5 102.5zM922 1556q0 62 41 103t102 41t102 -41t41 -103
t-41 -102.5t-102 -40.5t-102 40.5t-41 102.5z" />
    <glyph glyph-name="wdieresis" unicode="&#x1e85;" horiz-adv-x="1433" 
d="M317 0l-317 942h287l164 -553l174 553h184l174 -553l164 553h287l-318 -942h-235l-164 522l-164 -522h-236zM389 1188q0 62 40.5 102.5t102.5 40.5t103 -41t41 -102q0 -62 -41 -103t-103 -41q-61 0 -102 41t-41 103zM768 1188q0 62 41 102.5t102 40.5q62 0 103 -41
t41 -102q0 -62 -41.5 -103t-102.5 -41t-102 41t-41 103z" />
    <glyph glyph-name="uni1E9E" unicode="&#x1e9e;" horiz-adv-x="1300" 
d="M123 0v860q0 187 127 308.5t334 121.5h563v-266l-215 -266q80 -17 147 -66q150 -111 150 -303q0 -171 -116 -280t-308 -109h-170v266h143q55 0 94 41.5t39 102.5t-39 102t-94 41h-143v195l205 256h-256q-62 0 -103 -41t-41 -103v-860h-317z" />
    <glyph glyph-name="uni1EA0" unicode="&#x1ea0;" horiz-adv-x="1208" 
d="M461 502h287l-144 430zM-10 0l461 1290h307l461 -1290h-308l-82 246h-450l-82 -246h-307zM451 -266q0 62 45.5 107.5t107.5 45.5t108 -46t46 -107q0 -62 -46 -108t-108 -46q-61 0 -107 46t-46 108z" />
    <glyph glyph-name="uni1EA1" unicode="&#x1ea1;" horiz-adv-x="993" 
d="M696 0l-41 92q-46 -36 -77 -51q-93 -51 -199 -51q-150 0 -234 73t-84 193q0 58 17 104.5t58 87t104.5 67.5t161 42.5t223.5 15.5q0 68 -34 106t-89 38q-64 0 -101 -47q-17 -23 -22 -45l-277 20q26 147 128.5 232.5t281.5 85.5q169 0 279 -110.5t110 -279.5v-573h-205z
M625 369v41q-114 0 -179.5 -16.5t-86.5 -42t-21 -64.5q0 -40 30.5 -66t82.5 -26q78 0 126 48t48 126zM328 -266q0 62 46 107.5t107 45.5q62 0 108 -46t46 -107q0 -62 -46.5 -108t-107.5 -46t-107 46t-46 108z" />
    <glyph glyph-name="uni1EA2" unicode="&#x1ea2;" horiz-adv-x="1208" 
d="M461 502h287l-144 430zM-10 0l461 1290h307l461 -1290h-308l-82 246h-450l-82 -246h-307zM420 1618v133l29 10q33 11 83 11q106 0 166 -52t60 -133q0 -74 -41 -129q-12 -16 -41 -45h-154q17 20 25 39q26 43 26 84q0 39 -28 65.5t-74 26.5q-13 0 -37 -6z" />
    <glyph glyph-name="uni1EA3" unicode="&#x1ea3;" horiz-adv-x="993" 
d="M696 0l-41 92q-46 -36 -77 -51q-93 -51 -199 -51q-150 0 -234 73t-84 193q0 58 17 104.5t58 87t104.5 67.5t161 42.5t223.5 15.5q0 68 -34 106t-89 38q-64 0 -101 -47q-17 -23 -22 -45l-277 20q26 147 128.5 232.5t281.5 85.5q169 0 279 -110.5t110 -279.5v-573h-205z
M625 369v41q-114 0 -179.5 -16.5t-86.5 -42t-21 -64.5q0 -40 30.5 -66t82.5 -26q78 0 126 48t48 126zM338 1249v133l29 11q30 10 84 10q106 0 165.5 -51.5t59.5 -132.5q0 -74 -41 -129q-15 -20 -41 -46h-154q17 20 25 39q27 44 27 84q0 39 -28.5 66t-74.5 27q-9 0 -37 -7z
" />
    <glyph glyph-name="uni1EA4" unicode="&#x1ea4;" horiz-adv-x="1208" 
d="M461 502h287l-144 430zM-10 0l461 1290h307l461 -1290h-308l-82 246h-450l-82 -246h-307zM307 1434l174 266h246l174 -266h-235l-62 122l-61 -122h-236zM840 1597l123 226h256l-185 -226h-194z" />
    <glyph glyph-name="uni1EA5" unicode="&#x1ea5;" horiz-adv-x="993" 
d="M696 0l-41 92q-46 -36 -77 -51q-93 -51 -199 -51q-150 0 -234 73t-84 193q0 58 17 104.5t58 87t104.5 67.5t161 42.5t223.5 15.5q0 68 -34 106t-89 38q-64 0 -101 -47q-17 -23 -22 -45l-277 20q26 147 128.5 232.5t281.5 85.5q169 0 279 -110.5t110 -279.5v-573h-205z
M625 369v41q-114 0 -179.5 -16.5t-86.5 -42t-21 -64.5q0 -40 30.5 -66t82.5 -26q78 0 126 48t48 126zM225 1065l174 266h246l174 -266h-235l-62 123l-61 -123h-236zM758 1229l123 225h256l-185 -225h-194z" />
    <glyph glyph-name="uni1EA6" unicode="&#x1ea6;" horiz-adv-x="1208" 
d="M461 502h287l-144 430zM-10 0l461 1290h307l461 -1290h-308l-82 246h-450l-82 -246h-307zM307 1434l174 266h246l174 -266h-235l-62 122l-61 -122h-236zM901 1597l-184 226h256l123 -226h-195z" />
    <glyph glyph-name="uni1EA7" unicode="&#x1ea7;" horiz-adv-x="993" 
d="M696 0l-41 92q-46 -36 -77 -51q-93 -51 -199 -51q-150 0 -234 73t-84 193q0 58 17 104.5t58 87t104.5 67.5t161 42.5t223.5 15.5q0 68 -34 106t-89 38q-64 0 -101 -47q-17 -23 -22 -45l-277 20q26 147 128.5 232.5t281.5 85.5q169 0 279 -110.5t110 -279.5v-573h-205z
M625 369v41q-114 0 -179.5 -16.5t-86.5 -42t-21 -64.5q0 -40 30.5 -66t82.5 -26q78 0 126 48t48 126zM225 1065l174 266h246l174 -266h-235l-62 123l-61 -123h-236zM819 1229l-184 225h256l123 -225h-195z" />
    <glyph glyph-name="uni1EA8" unicode="&#x1ea8;" horiz-adv-x="1208" 
d="M461 502h287l-144 430zM-10 0l461 1290h307l461 -1290h-308l-82 246h-450l-82 -246h-307zM307 1434l174 266h246l174 -266h-235l-62 122l-61 -122h-236zM758 1782v133l28 10q30 10 84 10q97 0 151 -45.5t54 -117.5q0 -75 -41 -130q-12 -16 -41 -45h-153q15 18 24 39
q27 44 27 84q0 31 -22.5 51.5t-59.5 20.5q-13 0 -37 -6z" />
    <glyph glyph-name="uni1EA9" unicode="&#x1ea9;" horiz-adv-x="993" 
d="M696 0l-41 92q-46 -36 -77 -51q-93 -51 -199 -51q-150 0 -234 73t-84 193q0 58 17 104.5t58 87t104.5 67.5t161 42.5t223.5 15.5q0 68 -34 106t-89 38q-64 0 -101 -47q-17 -23 -22 -45l-277 20q26 147 128.5 232.5t281.5 85.5q169 0 279 -110.5t110 -279.5v-573h-205z
M625 369v41q-114 0 -179.5 -16.5t-86.5 -42t-21 -64.5q0 -40 30.5 -66t82.5 -26q78 0 126 48t48 126zM225 1065l174 266h246l174 -266h-235l-62 123l-61 -123h-236zM676 1413v133l29 10q33 11 83 11q97 0 151 -46t54 -118q0 -74 -41 -129q-12 -16 -41 -45h-153q15 18 24 39
q27 44 27 84q0 31 -22 51t-60 20q-13 0 -37 -6z" />
    <glyph glyph-name="uni1EAA" unicode="&#x1eaa;" horiz-adv-x="1208" 
d="M461 502h287l-144 430zM-10 0l461 1290h307l461 -1290h-308l-82 246h-450l-82 -246h-307zM307 1434l174 245h246l174 -245h-235l-62 102l-61 -102h-236zM461 1720l-154 21q0 235 185 235q43 0 86.5 -20.5t79.5 -41t59 -20.5q51 0 51 82l154 -20q0 -236 -185 -236
q-43 0 -86.5 20.5t-79.5 41t-59 20.5q-51 0 -51 -82z" />
    <glyph glyph-name="uni1EAB" unicode="&#x1eab;" horiz-adv-x="993" 
d="M696 0l-41 92q-46 -36 -77 -51q-93 -51 -199 -51q-150 0 -234 73t-84 193q0 58 17 104.5t58 87t104.5 67.5t161 42.5t223.5 15.5q0 68 -34 106t-89 38q-64 0 -101 -47q-17 -23 -22 -45l-277 20q26 147 128.5 232.5t281.5 85.5q169 0 279 -110.5t110 -279.5v-573h-205z
M625 369v41q-114 0 -179.5 -16.5t-86.5 -42t-21 -64.5q0 -40 30.5 -66t82.5 -26q78 0 126 48t48 126zM225 1065l174 246h246l174 -246h-235l-62 102l-61 -102h-236zM379 1352l-154 20q0 236 185 236q43 0 86.5 -20.5t79.5 -41t59 -20.5q51 0 51 82l154 -21q0 -235 -185 -235
q-43 0 -86.5 20.5t-79.5 41t-59 20.5q-51 0 -51 -82z" />
    <glyph glyph-name="uni1EAC" unicode="&#x1eac;" horiz-adv-x="1208" 
d="M276 1434l205 266h246l205 -266h-236l-92 122l-92 -122h-236zM461 502h287l-144 430zM-10 0l461 1290h307l461 -1290h-308l-82 246h-450l-82 -246h-307zM451 -266q0 62 45.5 107.5t107.5 45.5t108 -46t46 -107q0 -62 -46 -108t-108 -46q-61 0 -107 46t-46 108z" />
    <glyph glyph-name="uni1EAD" unicode="&#x1ead;" horiz-adv-x="993" 
d="M195 1065l204 266h246l205 -266h-236l-92 123l-92 -123h-235zM696 0l-41 92q-46 -36 -77 -51q-93 -51 -199 -51q-150 0 -234 73t-84 193q0 58 17 104.5t58 87t104.5 67.5t161 42.5t223.5 15.5q0 68 -34 106t-89 38q-64 0 -101 -47q-17 -23 -22 -45l-277 20
q26 147 128.5 232.5t281.5 85.5q169 0 279 -110.5t110 -279.5v-573h-205zM625 369v41q-114 0 -179.5 -16.5t-86.5 -42t-21 -64.5q0 -40 30.5 -66t82.5 -26q78 0 126 48t48 126zM328 -266q0 62 46 107.5t107 45.5q62 0 108 -46t46 -107q0 -62 -46.5 -108t-107.5 -46t-107 46
t-46 108z" />
    <glyph glyph-name="uni1EAE" unicode="&#x1eae;" horiz-adv-x="1208" 
d="M461 502h287l-144 430zM-10 0l461 1290h307l461 -1290h-308l-82 246h-450l-82 -246h-307zM307 1679h174q8 -54 42 -88.5t81 -34.5t81 34.5t42 88.5h174q-18 -118 -97.5 -192t-199.5 -74q-122 0 -200.5 73.5t-96.5 192.5zM502 1649l102 225h236l-164 -225h-174z" />
    <glyph glyph-name="uni1EAF" unicode="&#x1eaf;" horiz-adv-x="993" 
d="M696 0l-41 92q-46 -36 -77 -51q-93 -51 -199 -51q-150 0 -234 73t-84 193q0 58 17 104.5t58 87t104.5 67.5t161 42.5t223.5 15.5q0 68 -34 106t-89 38q-64 0 -101 -47q-17 -23 -22 -45l-277 20q26 147 128.5 232.5t281.5 85.5q169 0 279 -110.5t110 -279.5v-573h-205z
M625 369v41q-114 0 -179.5 -16.5t-86.5 -42t-21 -64.5q0 -40 30.5 -66t82.5 -26q78 0 126 48t48 126zM225 1311h174q8 -54 42 -88.5t81 -34.5t81 34.5t42 88.5h174q-18 -118 -97.5 -192.5t-199.5 -74.5q-121 0 -200 74t-97 193zM420 1280l102 225h236l-164 -225h-174z" />
    <glyph glyph-name="uni1EB0" unicode="&#x1eb0;" horiz-adv-x="1208" 
d="M461 502h287l-144 430zM-10 0l461 1290h307l461 -1290h-308l-82 246h-450l-82 -246h-307zM307 1679h174q8 -54 42 -88.5t81 -34.5t81 34.5t42 88.5h174q-18 -118 -97.5 -192t-199.5 -74q-122 0 -200.5 73.5t-96.5 192.5zM532 1649l-163 225h235l103 -225h-175z" />
    <glyph glyph-name="uni1EB1" unicode="&#x1eb1;" horiz-adv-x="993" 
d="M696 0l-41 92q-46 -36 -77 -51q-93 -51 -199 -51q-150 0 -234 73t-84 193q0 58 17 104.5t58 87t104.5 67.5t161 42.5t223.5 15.5q0 68 -34 106t-89 38q-64 0 -101 -47q-17 -23 -22 -45l-277 20q26 147 128.5 232.5t281.5 85.5q169 0 279 -110.5t110 -279.5v-573h-205z
M625 369v41q-114 0 -179.5 -16.5t-86.5 -42t-21 -64.5q0 -40 30.5 -66t82.5 -26q78 0 126 48t48 126zM225 1311h174q8 -54 42 -88.5t81 -34.5t81 34.5t42 88.5h174q-18 -118 -97.5 -192.5t-199.5 -74.5q-121 0 -200 74t-97 193zM451 1280l-164 225h235l103 -225h-174z" />
    <glyph glyph-name="uni1EB2" unicode="&#x1eb2;" horiz-adv-x="1208" 
d="M461 502h287l-144 430zM-10 0l461 1290h307l461 -1290h-308l-82 246h-450l-82 -246h-307zM307 1679h174q8 -54 42 -88.5t81 -34.5t81 34.5t42 88.5h174q-18 -118 -97.5 -192t-199.5 -74q-122 0 -200.5 73.5t-96.5 192.5zM430 1833v133l29 10q33 11 84 11q97 0 151 -46
t54 -118q0 -74 -41 -129q-12 -16 -41 -45h-154q17 20 25 39q26 43 26 84q0 31 -22 51t-60 20q-13 0 -37 -6z" />
    <glyph glyph-name="uni1EB3" unicode="&#x1eb3;" horiz-adv-x="993" 
d="M696 0l-41 92q-46 -36 -77 -51q-93 -51 -199 -51q-150 0 -234 73t-84 193q0 58 17 104.5t58 87t104.5 67.5t161 42.5t223.5 15.5q0 68 -34 106t-89 38q-64 0 -101 -47q-17 -23 -22 -45l-277 20q26 147 128.5 232.5t281.5 85.5q169 0 279 -110.5t110 -279.5v-573h-205z
M625 369v41q-114 0 -179.5 -16.5t-86.5 -42t-21 -64.5q0 -40 30.5 -66t82.5 -26q78 0 126 48t48 126zM225 1311h174q8 -54 42 -88.5t81 -34.5t81 34.5t42 88.5h174q-18 -118 -97.5 -192.5t-199.5 -74.5q-121 0 -200 74t-97 193zM348 1464v133l29 11q30 10 84 10
q97 0 151 -46t54 -118q0 -74 -41 -129q-12 -16 -41 -45h-154q17 20 25 39q26 43 26 84q0 31 -22.5 51.5t-59.5 20.5q-9 0 -37 -7z" />
    <glyph glyph-name="uni1EB4" unicode="&#x1eb4;" horiz-adv-x="1208" 
d="M461 502h287l-144 430zM-10 0l461 1290h307l461 -1290h-308l-82 246h-450l-82 -246h-307zM307 1679h174q8 -54 42 -88.5t81 -34.5t81 34.5t42 88.5h174q-18 -118 -97.5 -192t-199.5 -74q-122 0 -200.5 73.5t-96.5 192.5zM461 1720l-154 21q0 235 185 235q43 0 86.5 -20.5
t79.5 -41t59 -20.5q51 0 51 82l154 -20q0 -236 -185 -236q-43 0 -86.5 20.5t-79.5 41t-59 20.5q-51 0 -51 -82z" />
    <glyph glyph-name="uni1EB5" unicode="&#x1eb5;" horiz-adv-x="993" 
d="M696 0l-41 92q-46 -36 -77 -51q-93 -51 -199 -51q-150 0 -234 73t-84 193q0 58 17 104.5t58 87t104.5 67.5t161 42.5t223.5 15.5q0 68 -34 106t-89 38q-64 0 -101 -47q-17 -23 -22 -45l-277 20q26 147 128.5 232.5t281.5 85.5q169 0 279 -110.5t110 -279.5v-573h-205z
M625 369v41q-114 0 -179.5 -16.5t-86.5 -42t-21 -64.5q0 -40 30.5 -66t82.5 -26q78 0 126 48t48 126zM225 1311h174q8 -54 42 -88.5t81 -34.5t81 34.5t42 88.5h174q-18 -118 -97.5 -192.5t-199.5 -74.5q-121 0 -200 74t-97 193zM379 1352l-154 20q0 236 185 236
q43 0 86.5 -20.5t79.5 -41t59 -20.5q51 0 51 82l154 -21q0 -235 -185 -235q-43 0 -86.5 20.5t-79.5 41t-59 20.5q-51 0 -51 -82z" />
    <glyph glyph-name="uni1EB6" unicode="&#x1eb6;" horiz-adv-x="1208" 
d="M307 1679h195q7 -47 35 -74.5t67 -27.5t67.5 27.5t35.5 74.5h194q-18 -118 -97.5 -192t-199.5 -74q-122 0 -200.5 73.5t-96.5 192.5zM461 502h287l-144 430zM-10 0l461 1290h307l461 -1290h-308l-82 246h-450l-82 -246h-307zM451 -266q0 62 45.5 107.5t107.5 45.5
t108 -46t46 -107q0 -62 -46 -108t-108 -46q-61 0 -107 46t-46 108z" />
    <glyph glyph-name="uni1EB7" unicode="&#x1eb7;" horiz-adv-x="993" 
d="M225 1311h195q7 -47 35.5 -75t66.5 -28q39 0 67.5 28t35.5 75h194q-18 -118 -97.5 -192.5t-199.5 -74.5q-121 0 -200 74t-97 193zM696 0l-41 92q-46 -36 -77 -51q-93 -51 -199 -51q-150 0 -234 73t-84 193q0 58 17 104.5t58 87t104.5 67.5t161 42.5t223.5 15.5
q0 68 -34 106t-89 38q-64 0 -101 -47q-17 -23 -22 -45l-277 20q26 147 128.5 232.5t281.5 85.5q169 0 279 -110.5t110 -279.5v-573h-205zM625 369v41q-114 0 -179.5 -16.5t-86.5 -42t-21 -64.5q0 -40 30.5 -66t82.5 -26q78 0 126 48t48 126zM328 -266q0 62 46 107.5
t107 45.5q62 0 108 -46t46 -107q0 -62 -46.5 -108t-107.5 -46t-107 46t-46 108z" />
    <glyph glyph-name="uni1EB8" unicode="&#x1eb8;" horiz-adv-x="1146" 
d="M123 0v1290h921v-286h-624v-205h573v-287h-573v-225h645v-287h-942zM440 -266q0 61 46 107t108 46t108 -46t46 -107q0 -62 -46 -108t-108 -46t-108 46t-46 108z" />
    <glyph glyph-name="uni1EB9" unicode="&#x1eb9;" horiz-adv-x="1054" 
d="M686 297l287 -21q-40 -126 -154.5 -211t-286.5 -85q-126 0 -234 64.5t-172.5 178t-64.5 248.5q0 206 141 349t341 143q128 0 232.5 -60.5t166.5 -173.5t62 -258q0 -10 -1 -21t-3 -22.5t-3 -17.5l-4 -31h-645q19 -59 70.5 -101t124.5 -42q67 0 110 30q20 11 33 31z
M348 553h389q-19 66 -69.5 110t-124.5 44t-125 -44t-70 -110zM379 -266q0 62 45.5 107.5t107.5 45.5t108 -46t46 -107q0 -62 -46 -108t-108 -46q-61 0 -107 46t-46 108z" />
    <glyph glyph-name="uni1EBA" unicode="&#x1eba;" horiz-adv-x="1146" 
d="M123 0v1290h921v-286h-624v-205h573v-287h-573v-225h645v-287h-942zM430 1618v133l29 10q33 11 84 11q106 0 165.5 -52t59.5 -133q0 -74 -41 -129q-12 -16 -41 -45h-154q17 20 25 39q27 44 27 84q0 39 -28.5 65.5t-74.5 26.5q-13 0 -37 -6z" />
    <glyph glyph-name="uni1EBB" unicode="&#x1ebb;" horiz-adv-x="1054" 
d="M686 297l287 -21q-40 -126 -154.5 -211t-286.5 -85q-126 0 -234 64.5t-172.5 178t-64.5 248.5q0 206 141 349t341 143q128 0 232.5 -60.5t166.5 -173.5t62 -258q0 -10 -1 -21t-3 -22.5t-3 -17.5l-4 -31h-645q19 -59 70.5 -101t124.5 -42q67 0 110 30q20 11 33 31z
M348 553h389q-19 66 -69.5 110t-124.5 44t-125 -44t-70 -110zM369 1249v133l28 11q30 10 84 10q106 0 166 -51.5t60 -132.5q0 -74 -41 -129q-15 -20 -41 -46h-154q17 20 25 39q26 43 26 84q0 39 -28 66t-74 27q-9 0 -37 -7z" />
    <glyph glyph-name="uni1EBC" unicode="&#x1ebc;" horiz-adv-x="1146" 
d="M123 0v1290h921v-286h-624v-205h573v-287h-573v-225h645v-287h-942zM430 1403l-154 20q0 125 51.5 190.5t133.5 65.5q52 0 95 -23t74.5 -46t55.5 -23q32 0 52 23.5t20 68.5l153 -20q0 -125 -51 -190.5t-133 -65.5q-53 0 -95.5 23t-73.5 46t-56 23q-31 0 -51.5 -23.5
t-20.5 -68.5z" />
    <glyph glyph-name="uni1EBD" unicode="&#x1ebd;" horiz-adv-x="1054" 
d="M686 297l287 -21q-40 -126 -154.5 -211t-286.5 -85q-126 0 -234 64.5t-172.5 178t-64.5 248.5q0 206 141 349t341 143q128 0 232.5 -60.5t166.5 -173.5t62 -258q0 -10 -1 -21t-3 -22.5t-3 -17.5l-4 -31h-645q19 -59 70.5 -101t124.5 -42q67 0 110 30q20 11 33 31z
M348 553h389q-19 66 -69.5 110t-124.5 44t-125 -44t-70 -110zM379 1044l-154 21q0 125 51.5 190.5t133.5 65.5q52 0 95 -23t74.5 -46t55.5 -23q32 0 52 23.5t20 68.5l153 -21q0 -125 -51 -190.5t-133 -65.5q-42 0 -78 14.5t-57 32t-45.5 32t-44.5 14.5q-31 0 -51.5 -24
t-20.5 -69z" />
    <glyph glyph-name="uni1EBE" unicode="&#x1ebe;" horiz-adv-x="1146" 
d="M123 0v1290h921v-286h-624v-205h573v-287h-573v-225h645v-287h-942zM287 1434l174 266h246l174 -266h-236l-61 122l-62 -122h-235zM819 1597l123 226h256l-184 -226h-195z" />
    <glyph glyph-name="uni1EBF" unicode="&#x1ebf;" horiz-adv-x="1054" 
d="M686 297l287 -21q-40 -126 -154.5 -211t-286.5 -85q-126 0 -234 64.5t-172.5 178t-64.5 248.5q0 206 141 349t341 143q128 0 232.5 -60.5t166.5 -173.5t62 -258q0 -10 -1 -21t-3 -22.5t-3 -17.5l-4 -31h-645q19 -59 70.5 -101t124.5 -42q67 0 110 30q20 11 33 31z
M348 553h389q-19 66 -69.5 110t-124.5 44t-125 -44t-70 -110zM246 1065l174 266h246l174 -266h-236l-61 123l-62 -123h-235zM778 1229l123 225h256l-184 -225h-195z" />
    <glyph glyph-name="uni1EC0" unicode="&#x1ec0;" horiz-adv-x="1146" 
d="M123 0v1290h921v-286h-624v-205h573v-287h-573v-225h645v-287h-942zM287 1434l174 266h246l174 -266h-236l-61 122l-62 -122h-235zM881 1597l-185 226h256l123 -226h-194z" />
    <glyph glyph-name="uni1EC1" unicode="&#x1ec1;" horiz-adv-x="1054" 
d="M686 297l287 -21q-40 -126 -154.5 -211t-286.5 -85q-126 0 -234 64.5t-172.5 178t-64.5 248.5q0 206 141 349t341 143q128 0 232.5 -60.5t166.5 -173.5t62 -258q0 -10 -1 -21t-3 -22.5t-3 -17.5l-4 -31h-645q19 -59 70.5 -101t124.5 -42q67 0 110 30q20 11 33 31z
M348 553h389q-19 66 -69.5 110t-124.5 44t-125 -44t-70 -110zM246 1065l174 266h246l174 -266h-236l-61 123l-62 -123h-235zM840 1229l-185 225h256l123 -225h-194z" />
    <glyph glyph-name="uni1EC2" unicode="&#x1ec2;" horiz-adv-x="1146" 
d="M123 0v1290h921v-286h-624v-205h573v-287h-573v-225h645v-287h-942zM287 1434l174 266h246l174 -266h-236l-61 122l-62 -122h-235zM737 1782v133l29 10q30 10 84 10q97 0 151 -45.5t54 -117.5q0 -75 -41 -130q-12 -16 -41 -45h-154q17 20 25 39q26 43 26 84
q0 31 -22.5 51.5t-59.5 20.5q-12 0 -36 -6z" />
    <glyph glyph-name="uni1EC3" unicode="&#x1ec3;" horiz-adv-x="1054" 
d="M686 297l287 -21q-40 -126 -154.5 -211t-286.5 -85q-126 0 -234 64.5t-172.5 178t-64.5 248.5q0 206 141 349t341 143q128 0 232.5 -60.5t166.5 -173.5t62 -258q0 -10 -1 -21t-3 -22.5t-3 -17.5l-4 -31h-645q19 -59 70.5 -101t124.5 -42q67 0 110 30q20 11 33 31z
M348 553h389q-19 66 -69.5 110t-124.5 44t-125 -44t-70 -110zM246 1065l174 266h246l174 -266h-236l-61 123l-62 -123h-235zM696 1413v133l29 10q33 11 84 11q97 0 151 -46t54 -118q0 -74 -41 -129q-12 -16 -41 -45h-154q17 20 25 39q26 43 26 84q0 31 -21.5 51t-59.5 20
q-13 0 -37 -6z" />
    <glyph glyph-name="uni1EC4" unicode="&#x1ec4;" horiz-adv-x="1146" 
d="M123 0v1290h921v-286h-624v-205h573v-287h-573v-225h645v-287h-942zM287 1434l174 245h246l174 -245h-236l-61 102l-62 -102h-235zM440 1720l-153 21q0 235 184 235q43 0 86.5 -20.5t79.5 -41t59 -20.5q52 0 52 82l153 -20q0 -236 -184 -236q-43 0 -86.5 20.5t-79.5 41
t-59 20.5q-52 0 -52 -82z" />
    <glyph glyph-name="uni1EC5" unicode="&#x1ec5;" horiz-adv-x="1054" 
d="M686 297l287 -21q-40 -126 -154.5 -211t-286.5 -85q-126 0 -234 64.5t-172.5 178t-64.5 248.5q0 206 141 349t341 143q128 0 232.5 -60.5t166.5 -173.5t62 -258q0 -10 -1 -21t-3 -22.5t-3 -17.5l-4 -31h-645q19 -59 70.5 -101t124.5 -42q67 0 110 30q20 11 33 31z
M348 553h389q-19 66 -69.5 110t-124.5 44t-125 -44t-70 -110zM246 1065l174 246h246l174 -246h-236l-61 102l-62 -102h-235zM399 1352l-153 20q0 236 184 236q43 0 86.5 -20.5t79.5 -41t59 -20.5q52 0 52 82l153 -21q0 -235 -184 -235q-43 0 -86.5 20.5t-79.5 41t-59 20.5
q-52 0 -52 -82z" />
    <glyph glyph-name="uni1EC6" unicode="&#x1ec6;" horiz-adv-x="1146" 
d="M256 1434l205 266h246l204 -266h-235l-92 122l-92 -122h-236zM123 0v1290h921v-286h-624v-205h573v-287h-573v-225h645v-287h-942zM440 -266q0 61 46 107t108 46t108 -46t46 -107q0 -62 -46 -108t-108 -46t-108 46t-46 108z" />
    <glyph glyph-name="uni1EC7" unicode="&#x1ec7;" horiz-adv-x="1054" 
d="M215 1065l205 266h246l204 -266h-235l-92 123l-92 -123h-236zM686 297l287 -21q-40 -126 -154.5 -211t-286.5 -85q-126 0 -234 64.5t-172.5 178t-64.5 248.5q0 206 141 349t341 143q128 0 232.5 -60.5t166.5 -173.5t62 -258q0 -10 -1 -21t-3 -22.5t-3 -17.5l-4 -31h-645
q19 -59 70.5 -101t124.5 -42q67 0 110 30q20 11 33 31zM348 553h389q-19 66 -69.5 110t-124.5 44t-125 -44t-70 -110zM379 -266q0 62 45.5 107.5t107.5 45.5t108 -46t46 -107q0 -62 -46 -108t-108 -46q-61 0 -107 46t-46 108z" />
    <glyph glyph-name="uni1EC8" unicode="&#x1ec8;" horiz-adv-x="542" 
d="M123 0v1290h297v-1290h-297zM92 1618v133l29 10q33 11 84 11q106 0 165.5 -52t59.5 -133q0 -74 -41 -129q-12 -16 -41 -45h-153q15 18 24 39q27 44 27 84q0 39 -28.5 65.5t-74.5 26.5q-13 0 -37 -6z" />
    <glyph glyph-name="uni1EC9" unicode="&#x1ec9;" horiz-adv-x="481" 
d="M102 0v942h277v-942h-277zM61 1249v133l29 11q30 10 84 10q106 0 165.5 -51.5t59.5 -132.5q0 -74 -41 -129q-15 -20 -41 -46h-153q15 18 24 39q27 44 27 84q0 39 -28 66t-74 27q-9 0 -37 -7z" />
    <glyph glyph-name="uni1ECA" unicode="&#x1eca;" horiz-adv-x="542" 
d="M123 0v1290h297v-1290h-297zM113 -266q0 62 45.5 107.5t107.5 45.5t108 -46t46 -107q0 -62 -46 -108t-108 -46q-61 0 -107 46t-46 108z" />
    <glyph glyph-name="uni1ECB" unicode="&#x1ecb;" horiz-adv-x="481" 
d="M102 0v942h277v-942h-277zM92 1198q0 62 46 108t108 46q61 0 107 -46t46 -108t-46 -108t-107 -46q-62 0 -108 46t-46 108zM102 -266q0 61 46 107t108 46t108 -46t46 -107q0 -62 -46 -108t-108 -46t-108 46t-46 108z" />
    <glyph glyph-name="uni1ECC" unicode="&#x1ecc;" horiz-adv-x="1392" 
d="M696 276q141 0 239.5 105.5t98.5 263.5t-98.5 263.5t-239.5 105.5t-239.5 -105.5t-98.5 -263.5t98.5 -263.5t239.5 -105.5zM696 -10q-173 0 -318.5 86t-231 237t-85.5 332t85.5 332t231 237t318.5 86t318.5 -86t231 -237t85.5 -332t-85.5 -332t-231 -237t-318.5 -86z
M543 -266q0 62 45.5 107.5t107.5 45.5t108 -46t46 -107q0 -62 -46 -108t-108 -46q-61 0 -107 46t-46 108z" />
    <glyph glyph-name="uni1ECD" unicode="&#x1ecd;" horiz-adv-x="1085" 
d="M61 471q0 206 141 349t341 143t340.5 -143t140.5 -349t-140.5 -348.5t-340.5 -142.5t-341 142.5t-141 348.5zM748 471q0 107 -58.5 171.5t-146.5 64.5t-146.5 -64.5t-58.5 -171.5q0 -106 58.5 -170.5t146.5 -64.5t146.5 64.5t58.5 170.5zM389 -266q0 61 46 107t108 46
q61 0 107 -45.5t46 -107.5t-46 -108t-107 -46t-107.5 46t-46.5 108z" />
    <glyph glyph-name="uni1ECE" unicode="&#x1ece;" horiz-adv-x="1392" 
d="M696 276q141 0 239.5 105.5t98.5 263.5t-98.5 263.5t-239.5 105.5t-239.5 -105.5t-98.5 -263.5t98.5 -263.5t239.5 -105.5zM696 -10q-173 0 -318.5 86t-231 237t-85.5 332t85.5 332t231 237t318.5 86t318.5 -86t231 -237t85.5 -332t-85.5 -332t-231 -237t-318.5 -86z
M543 1618v133l28 10q33 11 84 11q106 0 166 -52t60 -133q0 -74 -41 -129q-12 -16 -41 -45h-154q17 20 25 39q26 43 26 84q0 39 -28 65.5t-74 26.5q-13 0 -37 -6z" />
    <glyph glyph-name="uni1ECF" unicode="&#x1ecf;" horiz-adv-x="1085" 
d="M61 471q0 206 141 349t341 143t340.5 -143t140.5 -349t-140.5 -348.5t-340.5 -142.5t-341 142.5t-141 348.5zM748 471q0 107 -58.5 171.5t-146.5 64.5t-146.5 -64.5t-58.5 -171.5q0 -106 58.5 -170.5t146.5 -64.5t146.5 64.5t58.5 170.5zM358 1249v133l29 11q30 10 84 10
q106 0 165.5 -51.5t59.5 -132.5q0 -74 -41 -129q-15 -20 -41 -46h-153q15 18 24 39q27 44 27 84q0 39 -28 66t-74 27q-9 0 -37 -7z" />
    <glyph glyph-name="uni1ED0" unicode="&#x1ed0;" horiz-adv-x="1392" 
d="M696 276q141 0 239.5 105.5t98.5 263.5t-98.5 263.5t-239.5 105.5t-239.5 -105.5t-98.5 -263.5t98.5 -263.5t239.5 -105.5zM696 -10q-173 0 -318.5 86t-231 237t-85.5 332t85.5 332t231 237t318.5 86t318.5 -86t231 -237t85.5 -332t-85.5 -332t-231 -237t-318.5 -86z
M399 1434l174 266h246l174 -266h-235l-62 122l-61 -122h-236zM932 1597l123 226h256l-185 -226h-194z" />
    <glyph glyph-name="uni1ED1" unicode="&#x1ed1;" horiz-adv-x="1085" 
d="M61 471q0 206 141 349t341 143t340.5 -143t140.5 -349t-140.5 -348.5t-340.5 -142.5t-341 142.5t-141 348.5zM748 471q0 107 -58.5 171.5t-146.5 64.5t-146.5 -64.5t-58.5 -171.5q0 -106 58.5 -170.5t146.5 -64.5t146.5 64.5t58.5 170.5zM246 1065l174 266h246l174 -266
h-236l-61 123l-62 -123h-235zM778 1229l123 225h256l-184 -225h-195z" />
    <glyph glyph-name="uni1ED2" unicode="&#x1ed2;" horiz-adv-x="1392" 
d="M696 276q141 0 239.5 105.5t98.5 263.5t-98.5 263.5t-239.5 105.5t-239.5 -105.5t-98.5 -263.5t98.5 -263.5t239.5 -105.5zM696 -10q-173 0 -318.5 86t-231 237t-85.5 332t85.5 332t231 237t318.5 86t318.5 -86t231 -237t85.5 -332t-85.5 -332t-231 -237t-318.5 -86z
M399 1434l174 266h246l174 -266h-235l-62 122l-61 -122h-236zM993 1597l-184 226h256l123 -226h-195z" />
    <glyph glyph-name="uni1ED3" unicode="&#x1ed3;" horiz-adv-x="1085" 
d="M61 471q0 206 141 349t341 143t340.5 -143t140.5 -349t-140.5 -348.5t-340.5 -142.5t-341 142.5t-141 348.5zM748 471q0 107 -58.5 171.5t-146.5 64.5t-146.5 -64.5t-58.5 -171.5q0 -106 58.5 -170.5t146.5 -64.5t146.5 64.5t58.5 170.5zM246 1065l174 266h246l174 -266
h-236l-61 123l-62 -123h-235zM840 1229l-185 225h256l123 -225h-194z" />
    <glyph glyph-name="uni1ED4" unicode="&#x1ed4;" horiz-adv-x="1392" 
d="M696 276q141 0 239.5 105.5t98.5 263.5t-98.5 263.5t-239.5 105.5t-239.5 -105.5t-98.5 -263.5t98.5 -263.5t239.5 -105.5zM696 -10q-173 0 -318.5 86t-231 237t-85.5 332t85.5 332t231 237t318.5 86t318.5 -86t231 -237t85.5 -332t-85.5 -332t-231 -237t-318.5 -86z
M399 1434l174 266h246l174 -266h-235l-62 122l-61 -122h-236zM850 1782v133l29 10q30 10 84 10q97 0 150.5 -45.5t53.5 -117.5q0 -75 -41 -130q-12 -16 -41 -45h-153q15 18 24 39q27 44 27 84q0 31 -22.5 51.5t-59.5 20.5q-13 0 -37 -6z" />
    <glyph glyph-name="uni1ED5" unicode="&#x1ed5;" horiz-adv-x="1085" 
d="M61 471q0 206 141 349t341 143t340.5 -143t140.5 -349t-140.5 -348.5t-340.5 -142.5t-341 142.5t-141 348.5zM748 471q0 107 -58.5 171.5t-146.5 64.5t-146.5 -64.5t-58.5 -171.5q0 -106 58.5 -170.5t146.5 -64.5t146.5 64.5t58.5 170.5zM246 1065l174 266h246l174 -266
h-236l-61 123l-62 -123h-235zM696 1413v133l29 10q33 11 84 11q97 0 151 -46t54 -118q0 -74 -41 -129q-12 -16 -41 -45h-154q17 20 25 39q26 43 26 84q0 31 -21.5 51t-59.5 20q-13 0 -37 -6z" />
    <glyph glyph-name="uni1ED6" unicode="&#x1ed6;" horiz-adv-x="1392" 
d="M696 276q141 0 239.5 105.5t98.5 263.5t-98.5 263.5t-239.5 105.5t-239.5 -105.5t-98.5 -263.5t98.5 -263.5t239.5 -105.5zM696 -10q-173 0 -318.5 86t-231 237t-85.5 332t85.5 332t231 237t318.5 86t318.5 -86t231 -237t85.5 -332t-85.5 -332t-231 -237t-318.5 -86z
M399 1434l174 245h246l174 -245h-235l-62 102l-61 -102h-236zM553 1720l-154 21q0 235 185 235q43 0 86.5 -20.5t79.5 -41t59 -20.5q51 0 51 82l154 -20q0 -236 -185 -236q-43 0 -86.5 20.5t-79.5 41t-59 20.5q-51 0 -51 -82z" />
    <glyph glyph-name="uni1ED7" unicode="&#x1ed7;" horiz-adv-x="1085" 
d="M61 471q0 206 141 349t341 143t340.5 -143t140.5 -349t-140.5 -348.5t-340.5 -142.5t-341 142.5t-141 348.5zM748 471q0 107 -58.5 171.5t-146.5 64.5t-146.5 -64.5t-58.5 -171.5q0 -106 58.5 -170.5t146.5 -64.5t146.5 64.5t58.5 170.5zM246 1065l174 246h246l174 -246
h-236l-61 102l-62 -102h-235zM399 1352l-153 20q0 236 184 236q43 0 86.5 -20.5t79.5 -41t59 -20.5q52 0 52 82l153 -21q0 -235 -184 -235q-43 0 -86.5 20.5t-79.5 41t-59 20.5q-52 0 -52 -82z" />
    <glyph glyph-name="uni1ED8" unicode="&#x1ed8;" horiz-adv-x="1392" 
d="M369 1434l204 266h246l205 -266h-236l-92 122l-92 -122h-235zM696 276q141 0 239.5 105.5t98.5 263.5t-98.5 263.5t-239.5 105.5t-239.5 -105.5t-98.5 -263.5t98.5 -263.5t239.5 -105.5zM696 -10q-173 0 -318.5 86t-231 237t-85.5 332t85.5 332t231 237t318.5 86
t318.5 -86t231 -237t85.5 -332t-85.5 -332t-231 -237t-318.5 -86zM543 -266q0 62 45.5 107.5t107.5 45.5t108 -46t46 -107q0 -62 -46 -108t-108 -46q-61 0 -107 46t-46 108z" />
    <glyph glyph-name="uni1ED9" unicode="&#x1ed9;" horiz-adv-x="1085" 
d="M215 1065l205 266h246l204 -266h-235l-92 123l-92 -123h-236zM61 471q0 206 141 349t341 143t340.5 -143t140.5 -349t-140.5 -348.5t-340.5 -142.5t-341 142.5t-141 348.5zM748 471q0 107 -58.5 171.5t-146.5 64.5t-146.5 -64.5t-58.5 -171.5q0 -106 58.5 -170.5
t146.5 -64.5t146.5 64.5t58.5 170.5zM389 -266q0 61 46 107t108 46q61 0 107 -45.5t46 -107.5t-46 -108t-107 -46t-107.5 46t-46.5 108z" />
    <glyph glyph-name="uni1EDA" unicode="&#x1eda;" horiz-adv-x="1392" 
d="M1065 1178h51q38 0 60 20t22 51q0 34 -16 80l-15 33h174q11 -14 21 -37q20 -46 20 -96q0 -107 -88 -162q-46 -26 -86 -33q35 -47 62 -106q61 -134 61 -283q0 -181 -85.5 -332t-231 -237t-318.5 -86t-318.5 86t-231 237t-85.5 332t85.5 332t231 237t318.5 86
q145 0 269 -61q52 -25 100 -61zM696 276q141 0 239.5 105.5t98.5 263.5t-98.5 263.5t-239.5 105.5t-239.5 -105.5t-98.5 -263.5t98.5 -263.5t239.5 -105.5zM594 1434l133 266h277l-195 -266h-215z" />
    <glyph glyph-name="uni1EDB" unicode="&#x1edb;" horiz-adv-x="1126" 
d="M850 850h31q37 0 59.5 20.5t22.5 51.5q0 30 -17 79l-14 33h174q9 -11 20 -37q21 -48 21 -96q0 -109 -92 -162q-47 -24 -92 -32q16 -28 30 -64q31 -91 31 -172q0 -206 -140.5 -348.5t-340.5 -142.5t-341 142.5t-141 348.5t141 349t341 143q124 0 227 -58q41 -21 80 -55z
M543 236q88 0 146.5 64.5t58.5 170.5q0 107 -58.5 171.5t-146.5 64.5t-146.5 -64.5t-58.5 -171.5q0 -106 58.5 -170.5t146.5 -64.5zM440 1065l133 266h277l-195 -266h-215z" />
    <glyph glyph-name="uni1EDC" unicode="&#x1edc;" horiz-adv-x="1392" 
d="M1065 1178h51q38 0 60 20t22 51q0 34 -16 80l-15 33h174q11 -14 21 -37q20 -46 20 -96q0 -107 -88 -162q-46 -26 -86 -33q35 -47 62 -106q61 -134 61 -283q0 -181 -85.5 -332t-231 -237t-318.5 -86t-318.5 86t-231 237t-85.5 332t85.5 332t231 237t318.5 86
q145 0 269 -61q52 -25 100 -61zM696 276q141 0 239.5 105.5t98.5 263.5t-98.5 263.5t-239.5 105.5t-239.5 -105.5t-98.5 -263.5t98.5 -263.5t239.5 -105.5zM594 1434l-195 266h277l133 -266h-215z" />
    <glyph glyph-name="uni1EDD" unicode="&#x1edd;" horiz-adv-x="1126" 
d="M850 850h31q37 0 59.5 20.5t22.5 51.5q0 30 -17 79l-14 33h174q9 -11 20 -37q21 -48 21 -96q0 -109 -92 -162q-47 -24 -92 -32q16 -28 30 -64q31 -91 31 -172q0 -206 -140.5 -348.5t-340.5 -142.5t-341 142.5t-141 348.5t141 349t341 143q124 0 227 -58q41 -21 80 -55z
M543 236q88 0 146.5 64.5t58.5 170.5q0 107 -58.5 171.5t-146.5 64.5t-146.5 -64.5t-58.5 -171.5q0 -106 58.5 -170.5t146.5 -64.5zM451 1065l-195 266h276l134 -266h-215z" />
    <glyph glyph-name="uni1EDE" unicode="&#x1ede;" horiz-adv-x="1392" 
d="M1065 1178h51q38 0 60 20t22 51q0 34 -16 80l-15 33h174q11 -14 21 -37q20 -46 20 -96q0 -107 -88 -162q-46 -26 -86 -33q35 -47 62 -106q61 -134 61 -283q0 -181 -85.5 -332t-231 -237t-318.5 -86t-318.5 86t-231 237t-85.5 332t85.5 332t231 237t318.5 86
q145 0 269 -61q52 -25 100 -61zM696 276q141 0 239.5 105.5t98.5 263.5t-98.5 263.5t-239.5 105.5t-239.5 -105.5t-98.5 -263.5t98.5 -263.5t239.5 -105.5zM543 1618v133l28 10q33 11 84 11q106 0 166 -52t60 -133q0 -74 -41 -129q-12 -16 -41 -45h-154q17 20 25 39
q26 43 26 84q0 39 -28 65.5t-74 26.5q-13 0 -37 -6z" />
    <glyph glyph-name="uni1EDF" unicode="&#x1edf;" horiz-adv-x="1126" 
d="M850 850h31q37 0 59.5 20.5t22.5 51.5q0 30 -17 79l-14 33h174q9 -11 20 -37q21 -48 21 -96q0 -109 -92 -162q-47 -24 -92 -32q16 -28 30 -64q31 -91 31 -172q0 -206 -140.5 -348.5t-340.5 -142.5t-341 142.5t-141 348.5t141 349t341 143q124 0 227 -58q41 -21 80 -55z
M543 236q88 0 146.5 64.5t58.5 170.5q0 107 -58.5 171.5t-146.5 64.5t-146.5 -64.5t-58.5 -171.5q0 -106 58.5 -170.5t146.5 -64.5zM358 1249v133l29 11q30 10 84 10q106 0 165.5 -51.5t59.5 -132.5q0 -74 -41 -129q-15 -20 -41 -46h-153q15 18 24 39q27 44 27 84
q0 39 -28 66t-74 27q-9 0 -37 -7z" />
    <glyph glyph-name="uni1EE0" unicode="&#x1ee0;" horiz-adv-x="1392" 
d="M1065 1178h51q38 0 60 20t22 51q0 34 -16 80l-15 33h174q11 -14 21 -37q20 -46 20 -96q0 -107 -88 -162q-46 -26 -86 -33q35 -47 62 -106q61 -134 61 -283q0 -181 -85.5 -332t-231 -237t-318.5 -86t-318.5 86t-231 237t-85.5 332t85.5 332t231 237t318.5 86
q145 0 269 -61q52 -25 100 -61zM696 276q141 0 239.5 105.5t98.5 263.5t-98.5 263.5t-239.5 105.5t-239.5 -105.5t-98.5 -263.5t98.5 -263.5t239.5 -105.5zM532 1403l-153 20q0 125 51 190.5t133 65.5q52 0 95 -23t74.5 -46t55.5 -23q32 0 52 23.5t20 68.5l154 -20
q0 -125 -51.5 -190.5t-133.5 -65.5q-53 0 -95.5 23t-73.5 46t-56 23q-31 0 -51.5 -23.5t-20.5 -68.5z" />
    <glyph glyph-name="uni1EE1" unicode="&#x1ee1;" horiz-adv-x="1126" 
d="M850 850h31q37 0 59.5 20.5t22.5 51.5q0 30 -17 79l-14 33h174q9 -11 20 -37q21 -48 21 -96q0 -109 -92 -162q-47 -24 -92 -32q16 -28 30 -64q31 -91 31 -172q0 -206 -140.5 -348.5t-340.5 -142.5t-341 142.5t-141 348.5t141 349t341 143q124 0 227 -58q41 -21 80 -55z
M543 236q88 0 146.5 64.5t58.5 170.5q0 107 -58.5 171.5t-146.5 64.5t-146.5 -64.5t-58.5 -171.5q0 -106 58.5 -170.5t146.5 -64.5zM379 1044l-154 21q0 125 51.5 190.5t133.5 65.5q52 0 95 -23t74.5 -46t55.5 -23q32 0 52 23.5t20 68.5l153 -21q0 -125 -51 -190.5
t-133 -65.5q-42 0 -78 14.5t-57 32t-45.5 32t-44.5 14.5q-31 0 -51.5 -24t-20.5 -69z" />
    <glyph glyph-name="uni1EE2" unicode="&#x1ee2;" horiz-adv-x="1392" 
d="M1065 1178h51q38 0 60 20t22 51q0 34 -16 80l-15 33h174q11 -14 21 -37q20 -46 20 -96q0 -107 -88 -162q-46 -26 -86 -33q35 -47 62 -106q61 -134 61 -283q0 -181 -85.5 -332t-231 -237t-318.5 -86t-318.5 86t-231 237t-85.5 332t85.5 332t231 237t318.5 86
q145 0 269 -61q52 -25 100 -61zM696 276q141 0 239.5 105.5t98.5 263.5t-98.5 263.5t-239.5 105.5t-239.5 -105.5t-98.5 -263.5t98.5 -263.5t239.5 -105.5zM543 -266q0 62 45.5 107.5t107.5 45.5t108 -46t46 -107q0 -62 -46 -108t-108 -46q-61 0 -107 46t-46 108z" />
    <glyph glyph-name="uni1EE3" unicode="&#x1ee3;" horiz-adv-x="1126" 
d="M850 850h31q37 0 59.5 20.5t22.5 51.5q0 30 -17 79l-14 33h174q9 -11 20 -37q21 -48 21 -96q0 -109 -92 -162q-47 -24 -92 -32q16 -28 30 -64q31 -91 31 -172q0 -206 -140.5 -348.5t-340.5 -142.5t-341 142.5t-141 348.5t141 349t341 143q124 0 227 -58q41 -21 80 -55z
M543 236q88 0 146.5 64.5t58.5 170.5q0 107 -58.5 171.5t-146.5 64.5t-146.5 -64.5t-58.5 -171.5q0 -106 58.5 -170.5t146.5 -64.5zM389 -266q0 61 46 107t108 46q61 0 107 -45.5t46 -107.5t-46 -108t-107 -46t-107.5 46t-46.5 108z" />
    <glyph glyph-name="uni1EE4" unicode="&#x1ee4;" horiz-adv-x="1269" 
d="M102 522v768h297v-768q0 -116 63 -181t173 -65q109 0 172 65t63 181v768h297v-768q0 -238 -147 -385t-385 -147t-385.5 147t-147.5 385zM481 -266q0 61 46 107t108 46q61 0 107 -45.5t46 -107.5t-46 -108t-107 -46t-107.5 46t-46.5 108z" />
    <glyph glyph-name="uni1EE5" unicode="&#x1ee5;" 
d="M92 389v553h277v-502q0 -91 47.5 -142.5t126.5 -51.5t126.5 51.5t47.5 142.5v502h276v-942h-205l-40 92q-45 -35 -78 -51q-93 -51 -199 -51q-169 0 -274 108t-105 291zM389 -266q0 61 46 107t108 46q61 0 107 -45.5t46 -107.5t-46 -108t-107 -46t-107.5 46t-46.5 108z
" />
    <glyph glyph-name="uni1EE6" unicode="&#x1ee6;" horiz-adv-x="1269" 
d="M102 522v768h297v-768q0 -116 63 -181t173 -65q109 0 172 65t63 181v768h297v-768q0 -238 -147 -385t-385 -147t-385.5 147t-147.5 385zM471 1618v133l29 10q33 11 84 11q106 0 165.5 -52t59.5 -133q0 -74 -41 -129q-12 -16 -41 -45h-154q17 20 25 39q27 44 27 84
q0 39 -28.5 65.5t-74.5 26.5q-13 0 -37 -6z" />
    <glyph glyph-name="uni1EE7" unicode="&#x1ee7;" 
d="M92 389v553h277v-502q0 -91 47.5 -142.5t126.5 -51.5t126.5 51.5t47.5 142.5v502h276v-942h-205l-40 92q-45 -35 -78 -51q-93 -51 -199 -51q-169 0 -274 108t-105 291zM369 1249v133l28 11q30 10 84 10q106 0 166 -51.5t60 -132.5q0 -74 -41 -129q-15 -20 -41 -46h-154
q17 20 25 39q26 43 26 84q0 39 -28 66t-74 27q-9 0 -37 -7z" />
    <glyph glyph-name="uni1EE8" unicode="&#x1ee8;" horiz-adv-x="1443" 
d="M102 522v768h297v-768q0 -116 63 -181t173 -65q109 0 172 65t63 181v768h297v-112h31q38 0 60 20t22 51q0 34 -16 80l-15 33h174q11 -14 21 -37q20 -46 20 -96q0 -88 -59 -141.5t-166 -53.5q-19 0 -47 4l-25 6v-522q0 -238 -147 -385t-385 -147t-385.5 147t-147.5 385z
M522 1434l133 266h277l-195 -266h-215z" />
    <glyph glyph-name="uni1EE9" unicode="&#x1ee9;" horiz-adv-x="1269" 
d="M92 389v553h277v-502q0 -91 47.5 -142.5t126.5 -51.5t126.5 51.5t47.5 142.5v502h276v-92h31q37 0 59.5 20.5t22.5 51.5q0 33 -16 79l-15 33h174q11 -14 21 -37q20 -46 20 -96q0 -88 -59 -141t-166 -53q-19 0 -47 4l-25 6v-717h-205l-40 92q-45 -35 -78 -51
q-93 -51 -199 -51q-169 0 -274 108t-105 291zM430 1065l133 266h277l-195 -266h-215z" />
    <glyph glyph-name="uni1EEA" unicode="&#x1eea;" horiz-adv-x="1443" 
d="M102 522v768h297v-768q0 -116 63 -181t173 -65q109 0 172 65t63 181v768h297v-112h31q38 0 60 20t22 51q0 34 -16 80l-15 33h174q11 -14 21 -37q20 -46 20 -96q0 -88 -59 -141.5t-166 -53.5q-19 0 -47 4l-25 6v-522q0 -238 -147 -385t-385 -147t-385.5 147t-147.5 385z
M543 1434l-195 266h277l133 -266h-215z" />
    <glyph glyph-name="uni1EEB" unicode="&#x1eeb;" horiz-adv-x="1269" 
d="M92 389v553h277v-502q0 -91 47.5 -142.5t126.5 -51.5t126.5 51.5t47.5 142.5v502h276v-92h31q37 0 59.5 20.5t22.5 51.5q0 33 -16 79l-15 33h174q11 -14 21 -37q20 -46 20 -96q0 -88 -59 -141t-166 -53q-19 0 -47 4l-25 6v-717h-205l-40 92q-45 -35 -78 -51
q-93 -51 -199 -51q-169 0 -274 108t-105 291zM461 1065l-195 266h277l133 -266h-215z" />
    <glyph glyph-name="uni1EEC" unicode="&#x1eec;" horiz-adv-x="1443" 
d="M102 522v768h297v-768q0 -116 63 -181t173 -65q109 0 172 65t63 181v768h297v-112h31q38 0 60 20t22 51q0 34 -16 80l-15 33h174q11 -14 21 -37q20 -46 20 -96q0 -88 -59 -141.5t-166 -53.5q-19 0 -47 4l-25 6v-522q0 -238 -147 -385t-385 -147t-385.5 147t-147.5 385z
M471 1618v133l29 10q33 11 84 11q106 0 165.5 -52t59.5 -133q0 -74 -41 -129q-12 -16 -41 -45h-154q17 20 25 39q27 44 27 84q0 39 -28.5 65.5t-74.5 26.5q-13 0 -37 -6z" />
    <glyph glyph-name="uni1EED" unicode="&#x1eed;" horiz-adv-x="1269" 
d="M92 389v553h277v-502q0 -91 47.5 -142.5t126.5 -51.5t126.5 51.5t47.5 142.5v502h276v-92h31q37 0 59.5 20.5t22.5 51.5q0 33 -16 79l-15 33h174q11 -14 21 -37q20 -46 20 -96q0 -88 -59 -141t-166 -53q-19 0 -47 4l-25 6v-717h-205l-40 92q-45 -35 -78 -51
q-93 -51 -199 -51q-169 0 -274 108t-105 291zM369 1249v133l28 11q30 10 84 10q106 0 166 -51.5t60 -132.5q0 -74 -41 -129q-15 -20 -41 -46h-154q17 20 25 39q26 43 26 84q0 39 -28 66t-74 27q-9 0 -37 -7z" />
    <glyph glyph-name="uni1EEE" unicode="&#x1eee;" horiz-adv-x="1443" 
d="M102 522v768h297v-768q0 -116 63 -181t173 -65q109 0 172 65t63 181v768h297v-112h31q38 0 60 20t22 51q0 34 -16 80l-15 33h174q11 -14 21 -37q20 -46 20 -96q0 -88 -59 -141.5t-166 -53.5q-19 0 -47 4l-25 6v-522q0 -238 -147 -385t-385 -147t-385.5 147t-147.5 385z
M471 1403l-154 20q0 125 51.5 190.5t133.5 65.5q52 0 95 -23t74.5 -46t55.5 -23q32 0 52 23.5t20 68.5l153 -20q0 -125 -51 -190.5t-133 -65.5q-53 0 -95.5 23t-73.5 46t-56 23q-31 0 -51.5 -23.5t-20.5 -68.5z" />
    <glyph glyph-name="uni1EEF" unicode="&#x1eef;" horiz-adv-x="1269" 
d="M92 389v553h277v-502q0 -91 47.5 -142.5t126.5 -51.5t126.5 51.5t47.5 142.5v502h276v-92h31q37 0 59.5 20.5t22.5 51.5q0 33 -16 79l-15 33h174q11 -14 21 -37q20 -46 20 -96q0 -88 -59 -141t-166 -53q-19 0 -47 4l-25 6v-717h-205l-40 92q-45 -35 -78 -51
q-93 -51 -199 -51q-169 0 -274 108t-105 291zM379 1044l-154 21q0 125 51.5 190.5t133.5 65.5q52 0 95 -23t74.5 -46t55.5 -23q32 0 52 23.5t20 68.5l153 -21q0 -125 -51 -190.5t-133 -65.5q-42 0 -78 14.5t-57 32t-45.5 32t-44.5 14.5q-31 0 -51.5 -24t-20.5 -69z" />
    <glyph glyph-name="uni1EF0" unicode="&#x1ef0;" horiz-adv-x="1443" 
d="M102 522v768h297v-768q0 -116 63 -181t173 -65q109 0 172 65t63 181v768h297v-112h31q38 0 60 20t22 51q0 34 -16 80l-15 33h174q11 -14 21 -37q20 -46 20 -96q0 -88 -59 -141.5t-166 -53.5q-19 0 -47 4l-25 6v-522q0 -238 -147 -385t-385 -147t-385.5 147t-147.5 385z
M481 -266q0 61 46 107t108 46q61 0 107 -45.5t46 -107.5t-46 -108t-107 -46t-107.5 46t-46.5 108z" />
    <glyph glyph-name="uni1EF1" unicode="&#x1ef1;" horiz-adv-x="1269" 
d="M92 389v553h277v-502q0 -91 47.5 -142.5t126.5 -51.5t126.5 51.5t47.5 142.5v502h276v-92h31q37 0 59.5 20.5t22.5 51.5q0 33 -16 79l-15 33h174q11 -14 21 -37q20 -46 20 -96q0 -88 -59 -141t-166 -53q-19 0 -47 4l-25 6v-717h-205l-40 92q-45 -35 -78 -51
q-93 -51 -199 -51q-169 0 -274 108t-105 291zM389 -266q0 61 46 107t108 46q61 0 107 -45.5t46 -107.5t-46 -108t-107 -46t-107.5 46t-46.5 108z" />
    <glyph glyph-name="uni1EF2" unicode="&#x1ef2;" horiz-adv-x="1157" 
d="M430 0v481l-430 809h317l263 -512l260 512h317l-430 -809v-481h-297zM471 1434l-195 266h277l133 -266h-215z" />
    <glyph glyph-name="uni1EF3" unicode="&#x1ef3;" horiz-adv-x="1003" 
d="M164 -328v236q81 0 125 33t69 100l-358 901h297l205 -584l205 584h297l-379 -942q-73 -181 -157 -259.5t-212 -78.5q-25 0 -61 4zM399 1065l-194 266h276l133 -266h-215z" />
    <glyph glyph-name="uni1EF4" unicode="&#x1ef4;" horiz-adv-x="1157" 
d="M430 0v481l-430 809h317l263 -512l260 512h317l-430 -809v-481h-297zM420 -266q0 62 46 107.5t107 45.5q62 0 108 -46t46 -107q0 -62 -46.5 -108t-107.5 -46t-107 46t-46 108z" />
    <glyph glyph-name="uni1EF5" unicode="&#x1ef5;" horiz-adv-x="1003" 
d="M164 -328v236q81 0 125 33t69 100l-358 901h297l205 -584l205 584h297l-379 -942q-73 -181 -157 -259.5t-212 -78.5q-25 0 -61 4zM614 -266q0 61 46 107t108 46t108 -46t46 -107q0 -62 -46 -108t-108 -46t-108 46t-46 108z" />
    <glyph glyph-name="uni1EF6" unicode="&#x1ef6;" horiz-adv-x="1157" 
d="M430 0v481l-430 809h317l263 -512l260 512h317l-430 -809v-481h-297zM410 1618v133l28 10q33 11 84 11q106 0 166 -52t60 -133q0 -74 -41 -129q-12 -16 -41 -45h-154q17 20 25 39q26 43 26 84q0 39 -28 65.5t-74 26.5q-13 0 -37 -6z" />
    <glyph glyph-name="uni1EF7" unicode="&#x1ef7;" horiz-adv-x="1003" 
d="M164 -328v236q81 0 125 33t69 100l-358 901h297l205 -584l205 584h297l-379 -942q-73 -181 -157 -259.5t-212 -78.5q-25 0 -61 4zM328 1249v133l28 11q30 10 84 10q106 0 166 -51.5t60 -132.5q0 -74 -41 -129q-15 -20 -41 -46h-154q17 20 25 39q26 43 26 84q0 39 -28 66
t-74 27q-9 0 -37 -7z" />
    <glyph glyph-name="uni1EF8" unicode="&#x1ef8;" horiz-adv-x="1157" 
d="M430 0v481l-430 809h317l263 -512l260 512h317l-430 -809v-481h-297zM410 1403l-154 20q0 125 51 190.5t133 65.5q41 0 77.5 -14.5t58 -31.5t46 -31.5t44.5 -14.5q32 0 51.5 23t19.5 69l154 -20q0 -125 -51 -190.5t-133 -65.5q-42 0 -78.5 14.5t-57.5 31.5t-45.5 31.5
t-44.5 14.5q-31 0 -51 -23.5t-20 -68.5z" />
    <glyph glyph-name="uni1EF9" unicode="&#x1ef9;" horiz-adv-x="1003" 
d="M164 -328v236q81 0 125 33t69 100l-358 901h297l205 -584l205 584h297l-379 -942q-73 -181 -157 -259.5t-212 -78.5q-25 0 -61 4zM338 1044l-154 21q0 125 51.5 190.5t133.5 65.5q52 0 95 -23t74.5 -46t55.5 -23q32 0 52 23.5t20 68.5l153 -21q0 -125 -51 -190.5
t-133 -65.5q-42 0 -78 14.5t-57 32t-45.5 32t-44.5 14.5q-31 0 -51.5 -24t-20.5 -69z" />
    <glyph glyph-name="endash" unicode="&#x2013;" horiz-adv-x="1013" 
d="M72 399v246h870v-246h-870z" />
    <glyph glyph-name="emdash" unicode="&#x2014;" horiz-adv-x="1515" 
d="M72 399v246h1372v-246h-1372z" />
    <glyph glyph-name="quoteleft" unicode="&#x2018;" horiz-adv-x="430" 
d="M266 1352l51 -72q-21 -15 -43 -37q-47 -52 -59 -106q61 0 107.5 -46.5t46.5 -107.5t-46.5 -107.5t-107.5 -46.5q-62 0 -108 48t-46 116q0 160 103 275q44 50 102 84z" />
    <glyph glyph-name="quoteright" unicode="&#x2019;" horiz-adv-x="430" 
d="M164 829l-51 72q21 15 43 37q47 52 59 106q-61 0 -107.5 46t-46.5 108t46.5 108t107.5 46q62 0 108 -48t46 -116q0 -160 -103 -275q-44 -50 -102 -84z" />
    <glyph glyph-name="quotesinglbase" unicode="&#x201a;" horiz-adv-x="430" 
d="M164 -225l-51 71q21 15 43 37q47 51 59 107q-62 0 -108 46t-46 107t46.5 107.5t107.5 46.5q62 0 108 -48t46 -116q0 -159 -103 -274q-44 -50 -102 -84z" />
    <glyph glyph-name="quotedblleft" unicode="&#x201c;" horiz-adv-x="808" 
d="M645 1352l51 -72q-21 -15 -43 -37q-47 -52 -59 -106q62 0 108 -46.5t46 -107.5t-46 -107.5t-108 -46.5t-108 48t-46 116q0 160 103 275q44 50 102 84zM266 1352l51 -72q-21 -15 -43 -37q-47 -52 -59 -106q61 0 107.5 -46.5t46.5 -107.5t-46.5 -107.5t-107.5 -46.5
q-62 0 -108 48t-46 116q0 160 103 275q44 50 102 84z" />
    <glyph glyph-name="quotedblright" unicode="&#x201d;" horiz-adv-x="808" 
d="M164 829l-51 72q21 15 43 37q47 52 59 106q-61 0 -107.5 46t-46.5 108t46.5 108t107.5 46q62 0 108 -48t46 -116q0 -160 -103 -275q-44 -50 -102 -84zM543 829l-51 72q21 15 43 37q47 52 59 106q-62 0 -108 46t-46 108t46 108t108 46t108 -48t46 -116q0 -160 -103 -275
q-44 -50 -102 -84z" />
    <glyph glyph-name="quotedblbase" unicode="&#x201e;" horiz-adv-x="808" 
d="M164 -225l-51 71q21 15 43 37q47 51 59 107q-62 0 -108 46t-46 107t46.5 107.5t107.5 46.5q62 0 108 -48t46 -116q0 -159 -103 -274q-44 -50 -102 -84zM543 -225l-51 71q21 15 43 37q47 51 59 107q-62 0 -108 46t-46 107t46 107.5t108 46.5t108 -48t46 -116
q0 -159 -103 -274q-44 -50 -102 -84z" />
    <glyph glyph-name="dagger" unicode="&#x2020;" horiz-adv-x="819" 
d="M287 338v491h-215v236h215v225h245v-225h216v-236h-216v-491h-245z" />
    <glyph glyph-name="daggerdbl" unicode="&#x2021;" horiz-adv-x="819" 
d="M72 532v205h215v154h-215v205h215v194h245v-194h216v-205h-216v-154h216v-205h-216v-194h-245v194h-215z" />
    <glyph glyph-name="bullet" unicode="&#x2022;" horiz-adv-x="778" 
d="M174 553q0 92 61.5 153.5t153.5 61.5t153.5 -61.5t61.5 -153.5t-61.5 -153.5t-153.5 -61.5t-153.5 61.5t-61.5 153.5z" />
    <glyph glyph-name="ellipsis" unicode="&#x2026;" horiz-adv-x="1249" 
d="M61 143q0 61 46.5 107.5t107.5 46.5t107.5 -46.5t46.5 -107.5t-46 -107t-108 -46t-108 46t-46 107zM471 143q0 61 46.5 107.5t107.5 46.5t107 -46t46 -108q0 -61 -46 -107t-107 -46q-62 0 -108 46t-46 107zM881 143q0 62 46 108t107 46q62 0 108 -46.5t46 -107.5
t-46 -107t-108 -46t-107.5 46t-45.5 107z" />
    <glyph glyph-name="perthousand" unicode="&#x2030;" horiz-adv-x="2007" 
d="M164 0l788 1290h236l-789 -1290h-235zM348 901q47 0 80 33t33 80t-33 79.5t-80 32.5t-79.5 -32.5t-32.5 -79.5t32.5 -80t79.5 -33zM61 1014q0 123 82 204.5t205 81.5t205 -81.5t82 -204.5t-82 -205t-205 -82t-205 82t-82 205zM1004 164q47 0 79.5 32.5t32.5 79.5
t-32.5 80t-79.5 33t-80 -33t-33 -80t33 -79.5t80 -32.5zM717 276q0 123 82 205t205 82t204.5 -82t81.5 -205t-81.5 -204.5t-204.5 -81.5t-205 81.5t-82 204.5zM1659 164q47 0 80 32.5t33 79.5t-33 80t-80 33t-80 -33t-33 -80t33 -79.5t80 -32.5zM1372 276q0 123 82 205
t205 82t205 -82t82 -205t-82 -204.5t-205 -81.5t-205 81.5t-82 204.5z" />
    <glyph glyph-name="guilsinglleft" unicode="&#x2039;" horiz-adv-x="624" 
d="M287 133l-226 328l226 327h276l-225 -327l225 -328h-276z" />
    <glyph glyph-name="guilsinglright" unicode="&#x203a;" horiz-adv-x="624" 
d="M61 133l226 328l-226 327h277l225 -327l-225 -328h-277z" />
    <glyph glyph-name="uni203D" unicode="&#x203d;" horiz-adv-x="952" 
d="M317 389l-20 471l-266 21q17 194 131 306.5t299 112.5q201 0 320.5 -103t119.5 -255q0 -56 -16 -102.5t-41.5 -80t-56.5 -63.5t-62.5 -60.5t-58 -64t-43.5 -80t-19 -102.5h-287zM317 143q0 61 46.5 107.5t107.5 46.5t107.5 -46.5t46.5 -107.5t-46 -107t-108 -46t-108 46
t-46 107zM471 1034l-10 -307q133 94 133 184q0 54 -34.5 88.5t-88.5 34.5z" />
    <glyph glyph-name="fraction" unicode="&#x2044;" horiz-adv-x="245" 
d="M-389 0l788 1290h236l-789 -1290h-235z" />
    <glyph glyph-name="zerosuperior" unicode="&#x2070;" horiz-adv-x="634" 
d="M236 1167q0 -80 23 -116.5t58 -36.5t58.5 36.5t23.5 116.5t-23.5 117t-58.5 37t-58 -37t-23 -117zM51 1167q0 150 73 234t193 84t193.5 -84t73.5 -234t-73.5 -233.5t-193.5 -83.5t-193 83.5t-73 233.5z" />
    <glyph glyph-name="foursuperior" unicode="&#x2074;" horiz-adv-x="573" 
d="M0 973v112l246 390h215v-349h71v-153h-71v-113h-185v113h-276zM184 1126h103v164z" />
    <glyph glyph-name="fivesuperior" unicode="&#x2075;" horiz-adv-x="573" 
d="M61 1100l41 375h390v-154h-236l-10 -72l22 11q23 10 60 10q81 0 142.5 -56.5t61.5 -138.5q0 -96 -66 -160.5t-179 -64.5q-92 0 -157.5 49t-88.5 135l184 10q5 -10 15 -20q20 -20 47 -20q24 0 42.5 20.5t18.5 50.5t-18.5 51t-42.5 21q-35 0 -49 -25q-10 -10 -13 -22h-164z
" />
    <glyph glyph-name="sixsuperior" unicode="&#x2076;" horiz-adv-x="583" 
d="M133 1290l133 185h195l-133 -185q91 0 158 -64.5t67 -150.5q0 -96 -71.5 -160.5t-184.5 -64.5t-184.5 64.5t-71.5 160.5q0 66 45 146q18 31 47 69zM225 1075q0 -37 20.5 -59.5t51.5 -22.5t51.5 22.5t20.5 59.5t-20.5 59.5t-51.5 22.5t-51.5 -22.5t-20.5 -59.5z" />
    <glyph glyph-name="sevensuperior" unicode="&#x2077;" horiz-adv-x="522" 
d="M92 860l205 451h-246v164h451v-134l-215 -481h-195z" />
    <glyph glyph-name="eightsuperior" unicode="&#x2078;" horiz-adv-x="593" 
d="M297 973q31 0 51.5 20t20.5 51t-20.5 51.5t-51.5 20.5t-51.5 -20.5t-20.5 -51.5t20.5 -51t51.5 -20zM41 1034q0 66 45 111q22 22 47 33q-23 13 -37 30q-35 45 -35 92q0 81 61.5 133t174.5 52t174 -51.5t61 -133.5q0 -46 -36 -92q-13 -15 -35 -30q24 -12 45 -33
q47 -47 47 -111q0 -74 -69.5 -129t-186.5 -55t-186.5 55t-69.5 129zM297 1239q23 0 42 19t19 42t-19 42.5t-42 19.5t-42 -19.5t-19 -42.5t19 -42t42 -19z" />
    <glyph glyph-name="ninesuperior" unicode="&#x2079;" horiz-adv-x="583" 
d="M123 860l133 184q-93 0 -159 64.5t-66 151.5q0 93 71.5 159t184.5 66t184.5 -66t71.5 -159q0 -62 -47 -146q-15 -27 -45 -70l-134 -184h-194zM358 1260q0 38 -20 59.5t-51 21.5q-32 0 -52 -22t-20 -59t20.5 -59.5t51.5 -22.5t51 22t20 60z" />
    <glyph glyph-name="zeroinferior" unicode="&#x2080;" horiz-adv-x="634" 
d="M236 113q0 -80 23 -117t58 -37t58.5 37t23.5 117t-23.5 116.5t-58.5 36.5t-58 -36.5t-23 -116.5zM51 113q0 150 73 233.5t193 83.5t193.5 -83.5t73.5 -233.5t-73.5 -234t-193.5 -84t-193 84t-73 234z" />
    <glyph glyph-name="oneinferior" unicode="&#x2081;" horiz-adv-x="512" 
d="M184 -195v390l-71 -41l-82 133l215 133h123v-615h-185z" />
    <glyph glyph-name="twoinferior" unicode="&#x2082;" horiz-adv-x="573" 
d="M51 -195v123l185 164l51 47q51 55 51 86q0 51 -62 51q-31 0 -51 -20t-20 -51l-164 10q18 103 79 159t167 56q120 0 182.5 -55t62.5 -150q0 -49 -30 -98q-10 -14 -31 -35l-154 -133h205v-154h-471z" />
    <glyph glyph-name="threeinferior" unicode="&#x2083;" horiz-adv-x="583" 
d="M215 51v133h61q24 0 43 12t19 29q0 51 -62 51q-71 0 -71 -51l-164 11q8 89 70.5 141.5t175.5 52.5t174 -51.5t61 -132.5q0 -45 -37 -92q-16 -19 -34 -31q24 -12 45 -33q47 -47 47 -100q0 -81 -71 -138t-185 -57q-113 0 -180.5 57.5t-75.5 147.5q1 1 87 5t87 5
q0 -24 22 -42.5t52 -18.5q40 0 59.5 15.5t19.5 35.5q0 51 -79 51h-64z" />
    <glyph glyph-name="fourinferior" unicode="&#x2084;" horiz-adv-x="573" 
d="M0 -82v113l246 389h215v-348h71v-154h-71v-113h-185v113h-276zM184 72h103v164z" />
    <glyph glyph-name="fiveinferior" unicode="&#x2085;" horiz-adv-x="573" 
d="M61 45l41 375h390v-154h-236l-10 -71l22 10q23 10 60 10q81 0 142.5 -56.5t61.5 -138.5q0 -96 -66 -160.5t-179 -64.5q-92 0 -157.5 49.5t-88.5 135.5l184 10q6 -12 15 -21q20 -20 47 -20q24 0 42.5 20.5t18.5 50.5t-18.5 51t-42.5 21q-35 0 -49 -24q-10 -10 -13 -23
h-164z" />
    <glyph glyph-name="sixinferior" unicode="&#x2086;" horiz-adv-x="583" 
d="M133 236l133 184h195l-133 -184q91 0 158 -65t67 -151q0 -96 -71.5 -160.5t-184.5 -64.5t-184.5 64.5t-71.5 160.5q0 66 45 146q20 35 47 70zM225 20q0 -37 20 -59t52 -22t52 22t20 59t-20.5 59.5t-51.5 22.5t-51.5 -22.5t-20.5 -59.5z" />
    <glyph glyph-name="seveninferior" unicode="&#x2087;" horiz-adv-x="522" 
d="M92 -195l205 451h-246v164h451v-133l-215 -482h-195z" />
    <glyph glyph-name="eightinferior" unicode="&#x2088;" horiz-adv-x="593" 
d="M297 -82q31 0 51.5 20.5t20.5 51.5t-20.5 51t-51.5 20t-51.5 -20t-20.5 -51t20.5 -51.5t51.5 -20.5zM41 -20q0 65 45 110q22 22 47 33q-21 12 -37 31q-35 45 -35 92q0 81 61.5 132.5t174.5 51.5t174 -51.5t61 -132.5q0 -46 -36 -92q-14 -17 -35 -31q24 -12 45 -33
q47 -47 47 -110q0 -74 -69.5 -129.5t-186.5 -55.5t-186.5 55.5t-69.5 129.5zM297 184q23 0 42 19.5t19 42.5t-19 42t-42 19t-42 -19t-19 -42t19 -42.5t42 -19.5z" />
    <glyph glyph-name="nineinferior" unicode="&#x2089;" horiz-adv-x="583" 
d="M123 -195l133 185q-93 0 -159 64t-66 151q0 93 71.5 159t184.5 66t184.5 -66t71.5 -159q0 -62 -47 -146q-12 -22 -45 -69l-134 -185h-194zM358 205q0 38 -20 60t-51 22t-51.5 -22.5t-20.5 -59.5t20.5 -59.5t51.5 -22.5t51 22t20 60z" />
    <glyph glyph-name="uni20A9" unicode="&#x20a9;" horiz-adv-x="1740" 
d="M10 389v184h234l-33 123h-201v185h152l-111 409h297l113 -409h198l109 409h205l106 -409h201l113 409h297l-111 -409h152v-185h-203l-33 -123h236v-184h-285l-105 -389h-266l-102 389h-205l-102 -389h-267l-104 389h-285zM815 573h109l-33 123h-43zM545 573h35l32 123
h-100zM1161 573h33l35 123h-101z" />
    <glyph glyph-name="uni20AB" unicode="&#x20ab;" horiz-adv-x="972" 
d="M676 236l-31 71q-26 -26 -55 -41q-70 -41 -170 -41q-154 0 -256.5 102.5t-102.5 256.5t102.5 256t256.5 102q74 0 147 -31q33 -18 47 -30v123h-194v184h194v102h236v-102h113v-184h-113v-768h-174zM297 584q0 -62 48 -108t116 -46t116 46t48 108t-48 107.5t-116 45.5
t-116 -45.5t-48 -107.5zM123 0v164h717v-164h-717z" />
    <glyph glyph-name="Euro" unicode="&#x20ac;" horiz-adv-x="1433" 
d="M41 420v164h123v102h-123v164h154q41 126 120 225q74 97 193 161t280 64q228 0 378.5 -124.5t205.5 -325.5l-297 -21q-25 92 -97.5 148.5t-189.5 56.5q-118 0 -210 -92q-38 -38 -66 -92h307v-164h-348v-102h348v-164h-307q26 -45 66 -82q94 -82 210 -82q117 0 189.5 56.5
t97.5 148.5l297 -21q-55 -201 -205.5 -325.5t-378.5 -124.5q-299 0 -473 215q-79 94 -120 215h-154z" />
    <glyph glyph-name="uni20B4" unicode="&#x20b4;" horiz-adv-x="1136" 
d="M72 430v164h993v-164h-533q-24 -14 -40 -27q-41 -29 -41 -75q0 -41 37 -72t96 -31q68 0 105.5 34t37.5 89l277 -20q-18 -154 -129 -246t-312 -92q-196 0 -308 91.5t-112 215.5q0 59 25 100q7 17 27 33h-123zM72 696v164h532q27 16 41 27q41 29 41 76q0 40 -37 71t-96 31
q-68 0 -105.5 -34t-37.5 -89l-277 21q18 154 128.5 245.5t311.5 91.5q196 0 308 -91.5t112 -215.5q0 -57 -26 -100q-8 -20 -25 -33h123v-164h-993z" />
    <glyph glyph-name="uni20B8" unicode="&#x20b8;" 
d="M399 0v696h-348v246h993v-246h-348v-696h-297zM51 1044v246h993v-246h-993z" />
    <glyph glyph-name="uni20B9" unicode="&#x20b9;" horiz-adv-x="1075" 
d="M72 451v225h297q70 0 116 31t68 71h-481v185h481q-22 40 -68 71t-116 31h-297v225h921v-225h-174l17 -33q16 -36 24 -69h133v-185h-133q-25 -128 -124.5 -219t-243.5 -108l532 -451h-420z" />
    <glyph glyph-name="uni20BA" unicode="&#x20ba;" horiz-adv-x="1105" 
d="M174 0v418l-133 -49v225l133 49v82l-133 -49v225l133 49v340h297v-231l266 98v-225l-266 -98v-82l266 98v-225l-266 -99v-239q169 0 243 59t74 186h277q0 -272 -141.5 -402t-452.5 -130h-297z" />
    <glyph glyph-name="uni20BD" unicode="&#x20bd;" horiz-adv-x="1187" 
d="M195 0v174h-144v236h144v92h-144v235h144v553h471q210 0 335 -113.5t125 -285.5q0 -166 -125 -277.5t-335 -111.5h-174v-92h348v-236h-348v-174h-297zM492 737h163q76 0 125 45.5t49 108.5t-49 108t-125 45h-163v-307z" />
    <glyph glyph-name="uni20BF" unicode="&#x20bf;" horiz-adv-x="1187" 
d="M123 0v1290h184v174h215v-174h82v174h215v-196q117 -38 186.5 -129.5t69.5 -206.5q0 -111 -78 -189q-38 -38 -75 -57q54 -25 102 -70q102 -98 102 -237q0 -129 -85 -232t-222 -135v-186h-215v174h-82v-174h-215v174h-184zM420 246h256q68 0 116 45.5t48 107.5t-48 108
t-116 46h-256v-307zM420 778h225q61 0 102 39t41 94t-41 94t-102 39h-225v-266z" />
    <glyph glyph-name="uni2113" unicode="&#x2113;" horiz-adv-x="737" 
d="M10 358v185q64 0 111 14l43 16v451q0 137 67.5 212t178.5 75q112 0 184 -84.5t72 -233.5q0 -77 -20 -149t-51 -127.5t-74.5 -105.5t-85 -85t-87.5 -65v-195q0 -112 113 -112q52 0 84 14q3 2 13 7.5t15 8.5v-164q-10 -8 -38 -20q-54 -20 -115 -20q-119 0 -187.5 74.5
t-68.5 211.5v123q-8 -3 -24 -8t-23 -8q-58 -15 -107 -15zM348 1024v-328q55 45 94 119.5t39 177.5q0 64 -22 98.5t-49 34.5q-26 0 -44 -26t-18 -76z" />
    <glyph glyph-name="afii61352" unicode="&#x2116;" horiz-adv-x="2054" 
d="M1389 0v225h573v-225h-573zM1778 645q0 47 -28 75t-75 28t-74.5 -28t-27.5 -75t27.5 -74.5t74.5 -27.5t75 27.5t28 74.5zM1368 645q0 131 88 219t219 88t219 -88t88 -219t-88 -219t-219 -88t-219 88t-88 219zM123 0v1290h266l522 -758v758h297v-1290h-266l-522 758v-758
h-297z" />
    <glyph glyph-name="uni2117" unicode="&#x2117;" horiz-adv-x="1474" 
d="M696 666h82q82 0 82 82q0 81 -82 81h-82v-163zM522 307v676h266q108 0 177 -67t69 -168t-69 -168.5t-177 -67.5h-92v-205h-174zM737 154q200 0 341 142.5t141 348.5t-141 349t-341 143t-340.5 -143t-140.5 -349t140.5 -348.5t340.5 -142.5zM82 645q0 136 51 257.5
t138 208.5t208.5 138t257.5 51t257.5 -51t209 -138t138.5 -208.5t51 -257.5t-51 -257.5t-138.5 -208.5t-209 -138t-257.5 -51t-257.5 51t-208.5 138t-138 208.5t-51 257.5z" />
    <glyph glyph-name="trademark" unicode="&#x2122;" horiz-adv-x="1218" 
d="M543 758v532h153l144 -215l143 215h154v-532h-174v276l-93 -133h-61l-92 133v-276h-174zM164 758v368h-144v164h461v-164h-143v-368h-174z" />
    <glyph glyph-name="uni2126" unicode="&#x2126;" horiz-adv-x="1536" 
d="M154 0v184h235q-74 51 -133 125q-133 164 -133 377q0 172 83.5 315t232 226.5t329.5 83.5t329.5 -83.5t232 -226.5t83.5 -315q0 -208 -133 -377q-55 -70 -133 -125h235v-184h-512v184q102 45 179 113q180 168 180 389q0 185 -135 318t-326 133t-326 -133t-135 -318
q0 -231 178 -389q78 -69 181 -113v-184h-512z" />
    </font>
</defs>
</svg>
